<?xml version="1.0" encoding="UTF-8"?>
<svg xmlns="http://www.w3.org/2000/svg" xmlns:xlink="http://www.w3.org/1999/xlink" width="100px" height="px" viewBox="0 0 100 60" version="1.1">
<g id="surface1">
<path style=" stroke:none;fill-rule:nonzero;fill:rgb(14.509804%,18.431373%,24.313725%);fill-opacity:1;" d="M 28.421875 21.890625 C 28.421875 23.109375 28.550781 24.097656 28.78125 24.824219 C 29.046875 25.550781 29.375 26.339844 29.835938 27.199219 C 30 27.460938 30.066406 27.726562 30.066406 27.957031 C 30.066406 28.285156 29.867188 28.617188 29.441406 28.945312 L 27.367188 30.328125 C 27.074219 30.527344 26.777344 30.625 26.511719 30.625 C 26.183594 30.625 25.855469 30.460938 25.527344 30.164062 C 25.066406 29.671875 24.671875 29.144531 24.34375 28.617188 C 24.011719 28.054688 23.683594 27.429688 23.324219 26.671875 C 20.757812 29.703125 17.53125 31.21875 13.652344 31.21875 C 10.886719 31.21875 8.683594 30.429688 7.074219 28.847656 C 5.460938 27.265625 4.636719 25.152344 4.636719 22.515625 C 4.636719 19.714844 5.625 17.441406 7.632812 15.726562 C 9.636719 14.011719 12.300781 13.152344 15.691406 13.152344 C 16.808594 13.152344 17.960938 13.253906 19.175781 13.417969 C 20.394531 13.582031 21.644531 13.847656 22.960938 14.144531 L 22.960938 11.734375 C 22.960938 9.230469 22.433594 7.484375 21.414062 6.460938 C 20.363281 5.441406 18.585938 4.945312 16.050781 4.945312 C 14.902344 4.945312 13.71875 5.078125 12.5 5.375 C 11.28125 5.671875 10.097656 6.03125 8.949219 6.496094 C 8.421875 6.726562 8.027344 6.855469 7.796875 6.921875 C 7.566406 6.988281 7.402344 7.023438 7.269531 7.023438 C 6.808594 7.023438 6.578125 6.691406 6.578125 6 L 6.578125 4.382812 C 6.578125 3.855469 6.644531 3.460938 6.808594 3.230469 C 6.972656 3 7.269531 2.769531 7.730469 2.539062 C 8.882812 1.945312 10.261719 1.449219 11.875 1.054688 C 13.488281 0.625 15.199219 0.429688 17.007812 0.429688 C 20.921875 0.429688 23.78125 1.320312 25.625 3.097656 C 27.433594 4.878906 28.355469 7.582031 28.355469 11.207031 L 28.355469 21.890625 Z M 15.066406 26.902344 C 16.152344 26.902344 17.269531 26.703125 18.453125 26.308594 C 19.636719 25.910156 20.691406 25.1875 21.578125 24.199219 C 22.105469 23.570312 22.5 22.878906 22.699219 22.089844 C 22.894531 21.296875 23.027344 20.339844 23.027344 19.21875 L 23.027344 17.835938 C 22.074219 17.605469 21.050781 17.40625 20 17.273438 C 18.949219 17.144531 17.925781 17.078125 16.90625 17.078125 C 14.703125 17.078125 13.09375 17.503906 12.007812 18.394531 C 10.921875 19.285156 10.394531 20.539062 10.394531 22.1875 C 10.394531 23.734375 10.789062 24.890625 11.613281 25.679688 C 12.402344 26.503906 13.550781 26.902344 15.066406 26.902344 Z M 41.480469 30.460938 C 40.886719 30.460938 40.492188 30.363281 40.230469 30.132812 C 39.96875 29.933594 39.738281 29.472656 39.539062 28.847656 L 31.808594 3.363281 C 31.613281 2.703125 31.511719 2.273438 31.511719 2.042969 C 31.511719 1.515625 31.777344 1.21875 32.300781 1.21875 L 35.527344 1.21875 C 36.152344 1.21875 36.578125 1.320312 36.808594 1.550781 C 37.074219 1.746094 37.269531 2.207031 37.46875 2.835938 L 42.992188 24.660156 L 48.125 2.835938 C 48.289062 2.175781 48.488281 1.746094 48.75 1.550781 C 49.011719 1.351562 49.472656 1.21875 50.066406 1.21875 L 52.699219 1.21875 C 53.324219 1.21875 53.75 1.320312 54.011719 1.550781 C 54.277344 1.746094 54.507812 2.207031 54.636719 2.835938 L 59.835938 24.921875 L 65.527344 2.835938 C 65.722656 2.175781 65.953125 1.746094 66.183594 1.550781 C 66.449219 1.351562 66.875 1.21875 67.46875 1.21875 L 70.527344 1.21875 C 71.050781 1.21875 71.347656 1.484375 71.347656 2.042969 C 71.347656 2.207031 71.316406 2.375 71.28125 2.570312 C 71.25 2.769531 71.183594 3.03125 71.050781 3.394531 L 63.125 28.878906 C 62.925781 29.539062 62.699219 29.96875 62.433594 30.164062 C 62.171875 30.363281 61.742188 30.496094 61.183594 30.496094 L 58.355469 30.496094 C 57.730469 30.496094 57.300781 30.394531 57.039062 30.164062 C 56.777344 29.933594 56.546875 29.503906 56.414062 28.847656 L 51.316406 7.582031 L 46.25 28.8125 C 46.085938 29.472656 45.886719 29.902344 45.625 30.132812 C 45.363281 30.363281 44.902344 30.460938 44.308594 30.460938 Z M 83.75 31.351562 C 82.039062 31.351562 80.328125 31.152344 78.683594 30.757812 C 77.039062 30.363281 75.757812 29.933594 74.902344 29.441406 C 74.375 29.144531 74.011719 28.8125 73.882812 28.515625 C 73.75 28.21875 73.683594 27.890625 73.683594 27.59375 L 73.683594 25.910156 C 73.683594 25.21875 73.949219 24.890625 74.441406 24.890625 C 74.636719 24.890625 74.835938 24.921875 75.03125 24.988281 C 75.230469 25.054688 75.527344 25.1875 75.855469 25.320312 C 76.972656 25.8125 78.191406 26.207031 79.472656 26.472656 C 80.789062 26.734375 82.074219 26.867188 83.386719 26.867188 C 85.460938 26.867188 87.074219 26.503906 88.191406 25.78125 C 89.308594 25.054688 89.902344 24 89.902344 22.648438 C 89.902344 21.726562 89.605469 20.96875 89.011719 20.339844 C 88.421875 19.714844 87.300781 19.152344 85.691406 18.625 L 80.921875 17.144531 C 78.519531 16.382812 76.742188 15.265625 75.65625 13.78125 C 74.574219 12.328125 74.011719 10.714844 74.011719 9 C 74.011719 7.617188 74.308594 6.394531 74.902344 5.339844 C 75.492188 4.285156 76.28125 3.363281 77.269531 2.636719 C 78.257812 1.878906 79.375 1.320312 80.691406 0.921875 C 82.007812 0.527344 83.386719 0.363281 84.835938 0.363281 C 85.558594 0.363281 86.316406 0.394531 87.039062 0.496094 C 87.796875 0.59375 88.488281 0.726562 89.175781 0.855469 C 89.835938 1.023438 90.460938 1.1875 91.050781 1.382812 C 91.644531 1.582031 92.105469 1.78125 92.433594 1.976562 C 92.894531 2.242188 93.222656 2.503906 93.421875 2.800781 C 93.617188 3.066406 93.71875 3.429688 93.71875 3.890625 L 93.71875 5.441406 C 93.71875 6.132812 93.453125 6.496094 92.960938 6.496094 C 92.699219 6.496094 92.269531 6.363281 91.710938 6.097656 C 89.835938 5.242188 87.730469 4.8125 85.394531 4.8125 C 83.519531 4.8125 82.039062 5.109375 81.019531 5.734375 C 80 6.363281 79.472656 7.320312 79.472656 8.671875 C 79.472656 9.59375 79.800781 10.382812 80.460938 11.011719 C 81.117188 11.636719 82.335938 12.265625 84.078125 12.824219 L 88.75 14.308594 C 91.117188 15.066406 92.828125 16.121094 93.847656 17.472656 C 94.867188 18.824219 95.363281 20.375 95.363281 22.089844 C 95.363281 23.503906 95.066406 24.792969 94.507812 25.910156 C 93.914062 27.03125 93.125 28.023438 92.105469 28.8125 C 91.085938 29.636719 89.867188 30.230469 88.453125 30.660156 C 86.972656 31.121094 85.425781 31.351562 83.75 31.351562 Z M 83.75 31.351562 "/>
<path style=" stroke:none;fill-rule:evenodd;fill:rgb(100%,60%,0%);fill-opacity:1;" d="M 89.96875 47.375 C 79.144531 55.382812 63.421875 59.636719 49.902344 59.636719 C 30.953125 59.636719 13.882812 52.617188 0.988281 40.945312 C -0.03125 40.023438 0.886719 38.769531 2.105469 39.496094 C 16.050781 47.605469 33.257812 52.515625 51.050781 52.515625 C 63.058594 52.515625 76.25 50.011719 88.386719 44.867188 C 90.199219 44.042969 91.742188 46.054688 89.96875 47.375 Z M 89.96875 47.375 "/>
<path style=" stroke:none;fill-rule:evenodd;fill:rgb(100%,60%,0%);fill-opacity:1;" d="M 94.472656 42.230469 C 93.09375 40.449219 85.328125 41.375 81.808594 41.800781 C 80.757812 41.933594 80.59375 41.011719 81.546875 40.320312 C 87.730469 35.96875 97.894531 37.21875 99.078125 38.671875 C 100.261719 40.152344 98.75 50.339844 92.960938 55.21875 C 92.074219 55.976562 91.21875 55.582031 91.613281 54.59375 C 92.925781 51.328125 95.855469 43.976562 94.472656 42.230469 Z M 94.472656 42.230469 "/>
</g>
</svg>
