<svg id="Layer_1" data-name="Layer 1" xmlns="http://www.w3.org/2000/svg" xmlns:xlink="http://www.w3.org/1999/xlink" viewBox="0 0 100 100"><defs><style>.cls-1,.cls-4{fill:none;}.cls-2{clip-path:url(#clip-path);}.cls-3{fill:#0e1225;}.cls-4{stroke:#f88d2a;stroke-width:4.06px;}.cls-5{fill:#fff;}</style><clipPath id="clip-path"><rect class="cls-1" width="100" height="100"/></clipPath></defs><g class="cls-2"><path class="cls-3" d="M50,98A48,48,0,1,0,2,50,48,48,0,0,0,50,98"/><path class="cls-4" d="M50,98A48,48,0,1,0,2,50,48,48,0,0,0,50,98Z"/></g><path class="cls-5" d="M45.32,48.88a3.78,3.78,0,0,0,.22-.81l3.12-13.19c.22-1,.45-1.13,1.41-1.13.61,0,1.22,0,1.83,0a.86.86,0,0,1,.93.74c.22.8.4,1.61.59,2.42q1.42,6,2.83,11.95a1.13,1.13,0,0,0,0,.15c.11-.07.11-.18.13-.26L60,35a4.37,4.37,0,0,1,.25-.72.82.82,0,0,1,.74-.52c.8-.05,1.61,0,2.41,0,.3,0,.43.18.44.48a1.93,1.93,0,0,1-.12.71q-2.59,8.36-5.21,16.7c-.3,1-.51,1.12-1.54,1.12h-1.6c-.78,0-1.06-.23-1.24-1q-.74-3.09-1.48-6.17-.88-3.72-1.79-7.44a.22.22,0,0,0-.1-.19L50,41.25q-1.25,5.2-2.5,10.39c-.22.94-.44,1.11-1.4,1.11l-1.93,0a.92.92,0,0,1-.9-.66c-.29-.76-.5-1.55-.74-2.33L38,34.93a2.72,2.72,0,0,1-.13-.58.47.47,0,0,1,.51-.6c.78,0,1.55,0,2.33,0a.89.89,0,0,1,.88.6,21,21,0,0,1,.6,2.2l3.06,12.06C45.25,48.69,45.28,48.77,45.32,48.88Z"/><path class="cls-5" d="M49.59,71.66a29.29,29.29,0,0,1-3.43-.12,47.64,47.64,0,0,1-14.45-3.37,47.25,47.25,0,0,1-13-8c-.28-.24-.55-.48-.8-.74a.51.51,0,0,1-.11-.67.5.5,0,0,1,.62-.2,1.47,1.47,0,0,1,.34.15l1.55.85a63.06,63.06,0,0,0,11,4.6,67.18,67.18,0,0,0,6.67,1.7c1.51.3,3,.55,4.57.74s3.3.36,5,.44c1.35.06,2.7.12,4,.09,1.59,0,3.18-.11,4.76-.27a64.34,64.34,0,0,0,18.67-4.69,1.22,1.22,0,0,1,.84-.1.83.83,0,0,1,.4,1.45,5.79,5.79,0,0,1-1,.74,40.14,40.14,0,0,1-10.25,5,49.73,49.73,0,0,1-7.71,1.85c-1.44.23-2.88.39-4.33.5C51.85,71.64,50.81,71.67,49.59,71.66Z"/><path class="cls-5" d="M32.5,50.29a8.59,8.59,0,0,1-2,1.74,7.71,7.71,0,0,1-6.93.73,4.85,4.85,0,0,1-3.19-4.12,5.81,5.81,0,0,1,4.51-6.82,11.11,11.11,0,0,1,3.94-.26,25.35,25.35,0,0,1,3.36.57l0,0a13.72,13.72,0,0,0-.14-3.2,3,3,0,0,0-2.94-2.64,11.47,11.47,0,0,0-5.59.75c-.44.15-.85.36-1.3.47s-.67,0-.68-.51,0-.85,0-1.27a1,1,0,0,1,.6-1,11.64,11.64,0,0,1,2.42-.93,13.11,13.11,0,0,1,6.58-.22,5.44,5.44,0,0,1,4.47,5,13.75,13.75,0,0,1,.12,1.92V46.5a12.87,12.87,0,0,0,.16,2,6.94,6.94,0,0,0,.78,2,.81.81,0,0,1-.32,1.26l-1.18.79a.91.91,0,0,1-1.4-.2,7.87,7.87,0,0,1-1.14-1.77Zm-4.26-6.24a8.4,8.4,0,0,0-1.5.14,3,3,0,0,0-2.59,2.3,4.18,4.18,0,0,0-.07,1.27,2.59,2.59,0,0,0,2.29,2.62,5.87,5.87,0,0,0,3.8-.73,3.8,3.8,0,0,0,2-2.69,13.11,13.11,0,0,0,.14-2.17c0-.2-.07-.27-.26-.32A18.35,18.35,0,0,0,28.24,44.05Z"/><path class="cls-5" d="M71.83,53.32a14.35,14.35,0,0,1-5-.92,5.92,5.92,0,0,1-.87-.44,1.2,1.2,0,0,1-.59-1.09c0-.38,0-.76,0-1.14s.28-.7.76-.56c.3.09.59.22.89.34a12.13,12.13,0,0,0,5.52.87,5.2,5.2,0,0,0,2-.49A2.4,2.4,0,0,0,75.84,47a2.13,2.13,0,0,0-1-1.21,10.31,10.31,0,0,0-2.39-1c-1.16-.37-2.35-.66-3.47-1.14a5.32,5.32,0,0,1-3.29-3.63,4.85,4.85,0,0,1,1.77-5.26,7.34,7.34,0,0,1,4.22-1.59,12.69,12.69,0,0,1,5.15.7l.41.17a1.56,1.56,0,0,1,1.13,1.75c0,.29,0,.58,0,.87a.47.47,0,0,1-.64.43c-.5-.12-.94-.39-1.42-.54a10.23,10.23,0,0,0-5.12-.35,4.36,4.36,0,0,0-.77.26,2.05,2.05,0,0,0-1.3,1.73,2.1,2.1,0,0,0,1,2.13,8.44,8.44,0,0,0,2.15,1c1.31.44,2.66.78,3.94,1.31a4.89,4.89,0,0,1,3.06,3.13,5.44,5.44,0,0,1-2.48,6.33,8.81,8.81,0,0,1-3.64,1.17A11.21,11.21,0,0,1,71.83,53.32Z"/><path class="cls-5" d="M77.46,57.25a12.77,12.77,0,0,1,3.44.38c1,.28,1.25.55,1.2,1.59a13.67,13.67,0,0,1-3.8,9.23,4.22,4.22,0,0,1-.56.47c-.18.13-.41.23-.6.06s-.12-.38,0-.58c.51-1.28,1-2.57,1.43-3.88A14.12,14.12,0,0,0,79.14,62a4,4,0,0,0,0-1.09,1,1,0,0,0-.68-.84A4.41,4.41,0,0,0,77,59.72a23.94,23.94,0,0,0-3.69.08c-.87.08-1.74.17-2.61.28a1,1,0,0,1-.24,0,.32.32,0,0,1-.29-.5,1.14,1.14,0,0,1,.44-.46,10.88,10.88,0,0,1,4.06-1.59A13.81,13.81,0,0,1,77.46,57.25Z"/></svg>