<?xml version="1.0" encoding="UTF-8"?>
<svg xmlns="http://www.w3.org/2000/svg" xmlns:xlink="http://www.w3.org/1999/xlink" width="100px" height="px" viewBox="0 0 100 100" version="1.1">
<g id="surface1">
<path style=" stroke:none;fill-rule:nonzero;fill:rgb(14.901961%,30.196078%,89.411765%);fill-opacity:1;" d="M 14.0625 89.84375 L 5.859375 0 L 93.945312 0 L 85.9375 89.84375 L 50 100 "/>
<path style=" stroke:none;fill-rule:nonzero;fill:rgb(16.078431%,39.607843%,94.509804%);fill-opacity:1;" d="M 50 7.226562 L 50 92.1875 L 79.101562 84.179688 L 85.9375 7.226562 "/>
<path style=" stroke:none;fill-rule:nonzero;fill:rgb(92.156863%,92.156863%,92.156863%);fill-opacity:1;" d="M 22.265625 18.359375 L 50 18.359375 L 50 29.296875 L 23.242188 29.296875 M 24.21875 40.625 L 50 40.625 L 50 51.757812 L 25.195312 51.757812 M 25.78125 57.226562 L 36.71875 57.226562 L 37.5 66.015625 L 50 69.335938 L 50 80.859375 L 27.148438 74.609375 "/>
<path style=" stroke:none;fill-rule:nonzero;fill:rgb(100%,100%,100%);fill-opacity:1;" d="M 50 40.625 L 50 51.757812 L 63.476562 51.757812 L 62.109375 66.015625 L 50 69.335938 L 50 80.859375 L 72.460938 74.609375 L 77.539062 18.359375 L 50 18.359375 L 50 29.296875 L 65.625 29.296875 L 64.550781 40.625 Z M 50 40.625 "/>
</g>
</svg>
