<?xml version="1.0" encoding="UTF-8"?>
<svg xmlns="http://www.w3.org/2000/svg" xmlns:xlink="http://www.w3.org/1999/xlink" width="100px" height="px" viewBox="0 0 100 118" version="1.1">
<g id="surface1">
<path style=" stroke:none;fill-rule:nonzero;fill:rgb(89.411765%,63.921569%,16.470588%);fill-opacity:1;" d="M 0 0 C 33 0 66 0 100 0 C 100 38.941406 100 77.878906 100 118 C 67 118 34 118 0 118 C 0 79.058594 0 40.121094 0 0 Z M 0 0 "/>
<path style=" stroke:none;fill-rule:nonzero;fill:rgb(99.607843%,99.607843%,99.215686%);fill-opacity:1;" d="M 0 0 C 33 0 66 0 100 0 C 100 38.941406 100 77.878906 100 118 C 67 118 34 118 0 118 C 0 79.058594 0 40.121094 0 0 Z M 2.957031 9.832031 C 3.078125 11.527344 3.203125 13.21875 3.347656 14.910156 C 3.367188 15.121094 3.386719 15.335938 3.40625 15.558594 C 3.464844 16.265625 3.527344 16.96875 3.585938 17.675781 C 3.609375 17.925781 3.628906 18.171875 3.652344 18.429688 C 4.007812 22.515625 4.382812 26.597656 4.769531 30.679688 C 5.09375 34.097656 5.414062 37.515625 5.722656 40.933594 C 5.742188 41.121094 5.757812 41.3125 5.777344 41.503906 C 5.945312 43.375 6.117188 45.246094 6.285156 47.117188 C 6.363281 47.992188 6.445312 48.863281 6.523438 49.738281 C 6.546875 49.992188 6.546875 49.992188 6.570312 50.253906 C 6.828125 53.097656 7.097656 55.9375 7.371094 58.78125 C 7.609375 61.277344 7.84375 63.773438 8.054688 66.273438 C 8.136719 67.210938 8.214844 68.148438 8.296875 69.085938 C 8.3125 69.269531 8.328125 69.453125 8.34375 69.644531 C 8.480469 71.207031 8.628906 72.765625 8.777344 74.328125 C 8.996094 76.601562 9.191406 78.878906 9.382812 81.15625 C 9.714844 85.109375 10.074219 89.058594 10.449219 93.007812 C 10.492188 93.425781 10.53125 93.84375 10.570312 94.265625 C 10.644531 95.050781 10.71875 95.835938 10.796875 96.621094 C 10.828125 96.972656 10.828125 96.972656 10.863281 97.332031 C 10.882812 97.550781 10.90625 97.769531 10.925781 97.996094 C 10.945312 98.183594 10.964844 98.375 10.980469 98.570312 C 11.050781 99.152344 11.140625 99.722656 11.242188 100.300781 C 13.675781 101.003906 16.105469 101.695312 18.578125 102.257812 C 21.15625 102.851562 21.15625 102.851562 22.410156 103.296875 C 23.160156 103.539062 23.929688 103.714844 24.695312 103.898438 C 25.886719 104.191406 27.070312 104.511719 28.253906 104.835938 C 30.019531 105.320312 31.78125 105.785156 33.566406 106.191406 C 36.125 106.777344 36.125 106.777344 36.980469 107.085938 C 37.773438 107.367188 38.582031 107.550781 39.398438 107.738281 C 40.730469 108.039062 42.042969 108.390625 43.355469 108.769531 C 45.027344 109.253906 45.027344 109.253906 46.707031 109.714844 C 46.871094 109.757812 47.035156 109.804688 47.207031 109.847656 C 48.503906 110.066406 49.519531 109.929688 50.765625 109.53125 C 51.058594 109.4375 51.355469 109.347656 51.652344 109.257812 C 51.894531 109.183594 51.894531 109.183594 52.140625 109.109375 C 53.117188 108.816406 54.105469 108.5625 55.089844 108.300781 C 57.125 107.761719 59.148438 107.195312 61.171875 106.617188 C 63.152344 106.046875 65.132812 105.492188 67.117188 104.9375 C 67.386719 104.859375 67.65625 104.785156 67.921875 104.710938 C 68.058594 104.671875 68.195312 104.632812 68.332031 104.59375 C 69.40625 104.292969 70.480469 103.992188 71.554688 103.6875 C 72.21875 103.5 72.882812 103.3125 73.546875 103.128906 C 73.792969 103.058594 73.792969 103.058594 74.042969 102.988281 C 76.246094 102.367188 78.453125 101.753906 80.667969 101.175781 C 82.589844 100.671875 84.488281 100.089844 86.390625 99.511719 C 86.589844 97.355469 86.785156 95.199219 86.984375 93.042969 C 87.015625 92.695312 87.046875 92.347656 87.078125 91.996094 C 87.515625 87.25 87.941406 82.5 88.332031 77.75 C 88.347656 77.574219 88.359375 77.402344 88.375 77.222656 C 88.402344 76.910156 88.425781 76.597656 88.453125 76.28125 C 88.519531 75.496094 88.625 74.726562 88.757812 73.945312 C 88.785156 73.628906 88.808594 73.308594 88.828125 72.988281 C 88.847656 72.699219 88.847656 72.699219 88.863281 72.40625 C 88.878906 72.191406 88.890625 71.980469 88.90625 71.757812 C 89.085938 69.082031 89.34375 66.414062 89.609375 63.746094 C 90.058594 59.214844 90.4375 54.683594 90.789062 50.148438 C 90.96875 47.835938 91.15625 45.53125 91.4375 43.226562 C 91.542969 42.238281 91.589844 41.253906 91.640625 40.261719 C 91.6875 39.289062 91.777344 38.328125 91.894531 37.359375 C 92.132812 35.320312 92.289062 33.273438 92.445312 31.222656 C 92.878906 25.535156 92.878906 25.535156 93.121094 23.605469 C 93.355469 21.738281 93.550781 19.867188 93.703125 17.992188 C 93.730469 17.660156 93.730469 17.660156 93.757812 17.320312 C 93.8125 16.636719 93.867188 15.953125 93.921875 15.265625 C 93.941406 15.042969 93.957031 14.820312 93.976562 14.589844 C 94.027344 13.949219 94.078125 13.308594 94.128906 12.667969 C 94.152344 12.375 94.152344 12.375 94.175781 12.078125 C 94.1875 11.898438 94.203125 11.71875 94.21875 11.53125 C 94.230469 11.375 94.242188 11.214844 94.253906 11.054688 C 94.277344 10.648438 94.28125 10.238281 94.28125 9.832031 C 64.144531 9.832031 34.007812 9.832031 2.957031 9.832031 Z M 2.957031 9.832031 "/>
<path style=" stroke:none;fill-rule:nonzero;fill:rgb(90.196078%,77.254902%,11.372549%);fill-opacity:1;" d="M 47.335938 16.914062 C 59.574219 16.914062 71.8125 16.914062 84.417969 16.914062 C 84.71875 17.515625 84.578125 18.027344 84.519531 18.691406 C 84.507812 18.835938 84.496094 18.976562 84.480469 19.121094 C 84.453125 19.425781 84.425781 19.730469 84.398438 20.035156 C 84.328125 20.847656 84.257812 21.660156 84.1875 22.46875 C 84.171875 22.632812 84.15625 22.796875 84.144531 22.964844 C 84.019531 24.40625 83.917969 25.847656 83.828125 27.289062 C 83.660156 29.832031 83.425781 32.367188 83.179688 34.902344 C 83.074219 35.972656 82.980469 37.042969 82.890625 38.117188 C 82.757812 39.65625 82.613281 41.191406 82.441406 42.730469 C 82.183594 45.023438 81.964844 47.320312 81.792969 49.621094 C 81.78125 49.757812 81.769531 49.890625 81.761719 50.027344 C 81.675781 51.128906 81.597656 52.226562 81.515625 53.324219 C 81.453125 54.15625 81.390625 54.984375 81.328125 55.816406 C 81.300781 56.195312 81.273438 56.574219 81.246094 56.953125 C 81.144531 58.269531 80.996094 59.550781 80.753906 60.847656 C 80.621094 61.671875 80.613281 62.492188 80.597656 63.328125 C 80.527344 65.566406 80.335938 67.785156 80.128906 70.011719 C 80.113281 70.191406 80.09375 70.371094 80.078125 70.558594 C 80.003906 71.324219 79.933594 72.085938 79.859375 72.851562 C 79.644531 75.15625 79.4375 77.460938 79.230469 79.769531 C 79.167969 80.464844 79.105469 81.160156 79.042969 81.855469 C 78.832031 84.203125 78.628906 86.550781 78.4375 88.902344 C 78.347656 90.015625 78.234375 91.125 78.105469 92.238281 C 77.277344 92.574219 76.496094 92.851562 75.617188 93.011719 C 74.105469 93.289062 72.628906 93.726562 71.175781 94.214844 C 70.097656 94.570312 68.996094 94.867188 67.851562 94.792969 C 67.851562 94.921875 67.851562 95.054688 67.851562 95.1875 C 67.613281 95.246094 67.375 95.304688 67.128906 95.367188 C 65.59375 95.757812 64.082031 96.15625 62.597656 96.710938 C 61.714844 97.039062 60.96875 97.21875 60.035156 97.277344 C 59.164062 97.410156 58.351562 97.765625 57.527344 98.070312 C 55.617188 98.761719 53.65625 99.230469 51.667969 99.632812 C 50.972656 99.777344 50.496094 99.902344 49.902344 100.300781 C 49.484375 100.425781 49.484375 100.425781 49.027344 100.519531 C 48.875 100.554688 48.726562 100.585938 48.570312 100.621094 C 48.125 100.691406 48.125 100.691406 47.335938 100.691406 C 47.335938 73.046875 47.335938 45.398438 47.335938 16.914062 Z M 47.335938 16.914062 "/>
<path style=" stroke:none;fill-rule:nonzero;fill:rgb(90.980392%,90.588235%,90.196078%);fill-opacity:1;" d="M 50.296875 31.859375 C 53.179688 31.859375 53.179688 31.859375 54.171875 31.957031 C 54.398438 31.976562 54.621094 32 54.851562 32.019531 C 55.089844 32.042969 55.324219 32.066406 55.566406 32.089844 C 55.953125 32.128906 56.34375 32.164062 56.730469 32.199219 C 57.277344 32.253906 57.824219 32.308594 58.371094 32.359375 C 59.074219 32.429688 59.78125 32.496094 60.488281 32.5625 C 60.773438 32.589844 61.058594 32.617188 61.34375 32.644531 C 61.484375 32.660156 61.625 32.671875 61.769531 32.6875 C 62.195312 32.726562 62.621094 32.765625 63.046875 32.808594 C 64.75 32.972656 66.457031 33.128906 68.160156 33.28125 C 68.359375 33.296875 68.5625 33.316406 68.765625 33.332031 C 69.511719 33.398438 70.253906 33.464844 70.996094 33.527344 C 72.855469 33.6875 74.691406 33.871094 76.527344 34.21875 C 76.59375 35.035156 76.660156 35.851562 76.726562 36.667969 C 76.753906 37.007812 76.753906 37.007812 76.78125 37.359375 C 76.808594 37.699219 76.808594 37.699219 76.835938 38.042969 C 76.851562 38.246094 76.871094 38.453125 76.886719 38.664062 C 76.929688 39.476562 76.921875 40.289062 76.921875 41.101562 C 71.066406 41.101562 65.207031 41.101562 59.171875 41.101562 C 59.171875 44.21875 59.171875 47.332031 59.171875 50.542969 C 64.964844 50.542969 70.757812 50.542969 76.726562 50.542969 C 76.726562 60.269531 76.726562 60.269531 76.683594 63.65625 C 76.679688 64.035156 76.671875 64.414062 76.667969 64.796875 C 76.65625 65.761719 76.644531 66.726562 76.632812 67.695312 C 76.621094 68.695312 76.609375 69.695312 76.597656 70.695312 C 76.574219 72.628906 76.550781 74.566406 76.527344 76.503906 C 76.332031 76.519531 76.136719 76.535156 75.933594 76.550781 C 71.027344 76.9375 71.027344 76.9375 66.128906 77.453125 C 65.40625 77.539062 64.683594 77.621094 63.960938 77.699219 C 63.820312 77.71875 63.679688 77.734375 63.535156 77.75 C 62.070312 77.914062 60.605469 78.035156 59.136719 78.144531 C 58.078125 78.226562 57.03125 78.34375 55.980469 78.496094 C 54.09375 78.703125 52.191406 78.667969 50.296875 78.667969 C 50.296875 75.617188 50.296875 72.566406 50.296875 69.421875 C 56.089844 69.359375 61.882812 69.292969 67.851562 69.226562 C 67.914062 66.175781 67.980469 63.125 68.046875 59.984375 C 62.1875 59.984375 56.332031 59.984375 50.296875 59.984375 C 50.296875 50.703125 50.296875 41.421875 50.296875 31.859375 Z M 50.296875 31.859375 "/>
<path style=" stroke:none;fill-rule:nonzero;fill:rgb(90.980392%,90.588235%,89.411765%);fill-opacity:1;" d="M 34.910156 31.664062 C 38.035156 31.664062 41.160156 31.664062 44.378906 31.664062 C 44.378906 47.238281 44.378906 62.816406 44.378906 78.863281 C 39.96875 78.402344 39.96875 78.402344 37.855469 78.136719 C 37.699219 78.117188 37.542969 78.097656 37.382812 78.078125 C 37.222656 78.054688 37.0625 78.035156 36.894531 78.015625 C 36.730469 77.996094 36.5625 77.972656 36.390625 77.953125 C 33.875 77.636719 31.359375 77.304688 28.847656 76.957031 C 28.628906 76.929688 28.628906 76.929688 28.402344 76.898438 C 27.070312 76.710938 25.738281 76.523438 24.414062 76.296875 C 23 76.054688 21.578125 75.902344 20.152344 75.746094 C 19.949219 75.722656 19.742188 75.699219 19.53125 75.671875 C 19.257812 75.644531 19.257812 75.644531 18.980469 75.613281 C 18.105469 75.484375 17.238281 75.300781 16.371094 75.125 C 16.371094 71.425781 16.371094 67.726562 16.371094 63.917969 C 19.429688 63.917969 22.488281 63.917969 25.640625 63.917969 C 25.640625 65.539062 25.640625 67.160156 25.640625 68.832031 C 28.699219 68.832031 31.757812 68.832031 34.910156 68.832031 C 34.910156 56.566406 34.910156 44.300781 34.910156 31.664062 Z M 34.910156 31.664062 "/>
<path style=" stroke:none;fill-rule:nonzero;fill:rgb(87.45098%,78.823529%,34.117647%);fill-opacity:1;" d="M 50.097656 31.464844 C 50.980469 31.492188 51.867188 31.523438 52.75 31.550781 C 53 31.558594 53.253906 31.566406 53.515625 31.574219 C 53.753906 31.585938 53.992188 31.59375 54.238281 31.601562 C 54.574219 31.613281 54.574219 31.613281 54.914062 31.621094 C 55.425781 31.664062 55.425781 31.664062 55.621094 31.859375 C 55.898438 31.882812 56.171875 31.894531 56.449219 31.902344 C 56.707031 31.910156 56.707031 31.910156 56.972656 31.917969 C 57.15625 31.921875 57.339844 31.929688 57.53125 31.933594 C 59.261719 31.996094 60.847656 32.199219 62.523438 32.648438 C 62.523438 32.710938 62.523438 32.777344 62.523438 32.84375 C 58.449219 32.519531 54.371094 32.191406 50.296875 31.859375 C 50.296875 41.140625 50.296875 50.421875 50.296875 59.984375 C 56.152344 59.984375 62.011719 59.984375 68.046875 59.984375 C 68.050781 61.503906 68.054688 63.027344 68.058594 64.59375 C 68.0625 65.074219 68.0625 65.554688 68.066406 66.050781 C 68.066406 66.429688 68.066406 66.808594 68.066406 67.183594 C 68.066406 67.382812 68.070312 67.582031 68.070312 67.789062 C 68.070312 68.070312 68.070312 68.070312 68.070312 68.355469 C 68.070312 68.519531 68.070312 68.683594 68.070312 68.851562 C 68.046875 69.226562 68.046875 69.226562 67.851562 69.421875 C 67.304688 69.441406 66.761719 69.449219 66.214844 69.445312 C 65.960938 69.445312 65.960938 69.445312 65.699219 69.445312 C 65.128906 69.445312 64.558594 69.445312 63.992188 69.441406 C 63.597656 69.441406 63.203125 69.441406 62.8125 69.441406 C 61.773438 69.441406 60.738281 69.4375 59.699219 69.4375 C 58.457031 69.433594 57.210938 69.433594 55.96875 69.433594 C 54.078125 69.429688 52.1875 69.425781 50.296875 69.421875 C 50.296875 72.472656 50.296875 75.523438 50.296875 78.667969 C 50.882812 78.667969 51.46875 78.667969 52.070312 78.667969 C 52.070312 78.730469 52.070312 78.796875 52.070312 78.863281 C 51.421875 78.863281 50.769531 78.863281 50.097656 78.863281 C 50.097656 75.617188 50.097656 72.375 50.097656 69.03125 C 55.890625 69.03125 61.683594 69.03125 67.652344 69.03125 C 67.652344 66.175781 67.652344 63.320312 67.652344 60.375 C 65.777344 60.378906 65.777344 60.378906 63.863281 60.382812 C 63.074219 60.382812 62.28125 60.386719 61.492188 60.386719 C 60.238281 60.386719 58.980469 60.390625 57.726562 60.390625 C 56.714844 60.394531 55.703125 60.394531 54.691406 60.394531 C 54.304688 60.394531 53.917969 60.394531 53.53125 60.398438 C 52.992188 60.398438 52.453125 60.398438 51.910156 60.398438 C 51.75 60.398438 51.589844 60.402344 51.421875 60.402344 C 50.316406 60.398438 50.316406 60.398438 50.097656 60.179688 C 50.078125 59.808594 50.074219 59.4375 50.074219 59.066406 C 50.074219 58.824219 50.074219 58.582031 50.074219 58.332031 C 50.074219 58.0625 50.074219 57.792969 50.078125 57.523438 C 50.078125 57.238281 50.078125 56.957031 50.074219 56.671875 C 50.074219 55.902344 50.078125 55.132812 50.078125 54.363281 C 50.078125 53.558594 50.078125 52.753906 50.082031 51.949219 C 50.082031 50.425781 50.082031 48.902344 50.085938 47.378906 C 50.085938 45.644531 50.085938 43.910156 50.089844 42.171875 C 50.089844 38.605469 50.09375 35.035156 50.097656 31.464844 Z M 50.097656 31.464844 "/>
<path style=" stroke:none;fill-rule:nonzero;fill:rgb(86.666667%,78.431373%,31.372549%);fill-opacity:1;" d="M 59.171875 41.101562 C 64.964844 41.101562 70.757812 41.101562 76.726562 41.101562 C 76.726562 41.167969 76.726562 41.234375 76.726562 41.300781 C 70.996094 41.300781 65.269531 41.300781 59.367188 41.300781 C 59.367188 44.21875 59.367188 47.140625 59.367188 50.148438 C 65.160156 50.148438 70.953125 50.148438 76.921875 50.148438 C 76.941406 56.5 76.921875 62.847656 76.84375 69.195312 C 76.835938 69.71875 76.832031 70.242188 76.824219 70.765625 C 76.816406 71.597656 76.804688 72.425781 76.792969 73.253906 C 76.789062 73.5625 76.785156 73.871094 76.785156 74.179688 C 76.777344 74.601562 76.773438 75.023438 76.765625 75.449219 C 76.761719 75.6875 76.761719 75.925781 76.757812 76.167969 C 76.726562 76.699219 76.726562 76.699219 76.527344 76.898438 C 75.945312 76.9375 75.363281 76.972656 74.777344 76.996094 C 74.453125 77.007812 74.128906 77.023438 73.804688 77.039062 C 73.660156 77.042969 73.515625 77.050781 73.367188 77.054688 C 72.9375 77.082031 72.9375 77.082031 72.386719 77.289062 C 72.050781 77.304688 71.714844 77.3125 71.378906 77.308594 C 71.1875 77.308594 70.992188 77.308594 70.792969 77.308594 C 70.589844 77.304688 70.386719 77.304688 70.179688 77.300781 C 69.875 77.300781 69.875 77.300781 69.5625 77.300781 C 69.054688 77.296875 68.550781 77.292969 68.046875 77.289062 C 68.046875 77.226562 68.046875 77.160156 68.046875 77.09375 C 68.875 77.007812 69.703125 76.925781 70.53125 76.839844 C 70.808594 76.8125 71.089844 76.785156 71.371094 76.753906 C 71.777344 76.714844 72.1875 76.671875 72.59375 76.632812 C 72.835938 76.609375 73.082031 76.582031 73.332031 76.558594 C 74.394531 76.46875 75.460938 76.492188 76.527344 76.503906 C 76.527344 76.304688 76.527344 76.101562 76.527344 75.894531 C 76.523438 73.960938 76.519531 72.027344 76.519531 70.09375 C 76.515625 69.101562 76.515625 68.109375 76.515625 67.117188 C 76.511719 66.148438 76.511719 65.183594 76.511719 64.214844 C 76.507812 63.855469 76.507812 63.496094 76.507812 63.136719 C 76.496094 58.933594 76.628906 54.746094 76.726562 50.542969 C 70.933594 50.542969 65.140625 50.542969 59.171875 50.542969 C 59.171875 47.429688 59.171875 44.3125 59.171875 41.101562 Z M 59.171875 41.101562 "/>
<path style=" stroke:none;fill-rule:nonzero;fill:rgb(94.117647%,91.372549%,76.078431%);fill-opacity:1;" d="M 59.171875 50.542969 C 64.964844 50.542969 70.757812 50.542969 76.726562 50.542969 C 76.726562 60.269531 76.726562 60.269531 76.683594 63.65625 C 76.679688 64.035156 76.671875 64.414062 76.667969 64.796875 C 76.65625 65.761719 76.644531 66.726562 76.632812 67.695312 C 76.621094 68.695312 76.609375 69.695312 76.597656 70.695312 C 76.574219 72.628906 76.550781 74.566406 76.527344 76.503906 C 75.777344 76.570312 75.023438 76.636719 74.273438 76.699219 C 73.957031 76.726562 73.957031 76.726562 73.632812 76.757812 C 72.421875 76.859375 71.234375 76.917969 70.019531 76.898438 C 70.085938 76.765625 70.148438 76.636719 70.21875 76.503906 C 70.46875 76.492188 70.71875 76.480469 70.980469 76.46875 C 71.308594 76.449219 71.636719 76.433594 71.96875 76.417969 C 72.132812 76.410156 72.300781 76.402344 72.46875 76.394531 C 72.707031 76.382812 72.707031 76.382812 72.953125 76.367188 C 73.097656 76.363281 73.246094 76.355469 73.398438 76.347656 C 73.785156 76.328125 73.785156 76.328125 74.160156 76.109375 C 74.5 76.097656 74.835938 76.09375 75.171875 76.097656 C 75.351562 76.097656 75.53125 76.101562 75.714844 76.101562 C 75.921875 76.105469 75.921875 76.105469 76.132812 76.109375 C 76.136719 75.984375 76.136719 75.859375 76.136719 75.726562 C 76.15625 72.660156 76.179688 69.59375 76.199219 66.523438 C 76.210938 65.042969 76.222656 63.558594 76.230469 62.074219 C 76.242188 60.78125 76.25 59.488281 76.257812 58.195312 C 76.265625 57.511719 76.269531 56.828125 76.273438 56.140625 C 76.277344 55.378906 76.285156 54.613281 76.289062 53.851562 C 76.292969 53.621094 76.292969 53.394531 76.292969 53.160156 C 76.296875 52.953125 76.296875 52.746094 76.300781 52.53125 C 76.300781 52.351562 76.300781 52.167969 76.304688 51.984375 C 76.332031 51.527344 76.332031 51.527344 76.527344 50.9375 C 70.800781 50.9375 65.074219 50.9375 59.171875 50.9375 C 59.171875 50.808594 59.171875 50.675781 59.171875 50.542969 Z M 59.171875 50.542969 "/>
<path style=" stroke:none;fill-rule:nonzero;fill:rgb(94.117647%,90.588235%,73.333333%);fill-opacity:1;" d="M 66.273438 33.238281 C 68.28125 33.316406 70.285156 33.421875 72.289062 33.617188 C 72.441406 33.632812 72.59375 33.648438 72.75 33.664062 C 74.019531 33.792969 75.273438 34 76.527344 34.21875 C 76.59375 35.035156 76.660156 35.851562 76.726562 36.667969 C 76.746094 36.894531 76.761719 37.125 76.78125 37.359375 C 76.800781 37.585938 76.820312 37.808594 76.835938 38.042969 C 76.851562 38.246094 76.871094 38.453125 76.886719 38.664062 C 76.929688 39.476562 76.921875 40.289062 76.921875 41.101562 C 71.066406 41.101562 65.207031 41.101562 59.171875 41.101562 C 59.171875 40.972656 59.171875 40.84375 59.171875 40.710938 C 64.835938 40.710938 70.496094 40.710938 76.332031 40.710938 C 76.265625 38.632812 76.203125 36.554688 76.132812 34.417969 C 75.15625 34.417969 74.179688 34.417969 73.175781 34.417969 C 73.175781 34.351562 73.175781 34.285156 73.175781 34.21875 C 70.898438 34.023438 68.621094 33.832031 66.273438 33.628906 C 66.273438 33.5 66.273438 33.371094 66.273438 33.238281 Z M 66.273438 33.238281 "/>
<path style=" stroke:none;fill-rule:nonzero;fill:rgb(95.686275%,89.803922%,78.039216%);fill-opacity:1;" d="M 16.371094 63.917969 C 19.429688 63.917969 22.488281 63.917969 25.640625 63.917969 C 25.640625 65.605469 25.640625 67.292969 25.640625 69.03125 C 28.765625 69.03125 31.890625 69.03125 35.109375 69.03125 C 35.109375 69.09375 35.109375 69.160156 35.109375 69.226562 C 31.917969 69.226562 28.730469 69.226562 25.445312 69.226562 C 25.445312 67.605469 25.445312 65.980469 25.445312 64.308594 C 22.578125 64.308594 19.714844 64.308594 16.765625 64.308594 C 16.765625 67.878906 16.765625 71.449219 16.765625 75.125 C 16.636719 75.125 16.503906 75.125 16.371094 75.125 C 16.371094 71.425781 16.371094 67.726562 16.371094 63.917969 Z M 16.371094 63.917969 "/>
<path style=" stroke:none;fill-rule:nonzero;fill:rgb(94.901961%,89.411765%,62.745098%);fill-opacity:1;" d="M 67.851562 69.226562 C 67.949219 69.421875 67.949219 69.421875 68.046875 69.621094 C 62.320312 69.683594 56.589844 69.75 50.691406 69.816406 C 50.625 72.671875 50.558594 75.527344 50.492188 78.46875 C 51.339844 78.46875 52.183594 78.46875 53.058594 78.46875 C 53.058594 78.339844 53.058594 78.210938 53.058594 78.078125 C 54.035156 78.140625 55.011719 78.207031 56.015625 78.273438 C 56.015625 78.339844 56.015625 78.402344 56.015625 78.46875 C 54.121094 78.707031 52.203125 78.667969 50.296875 78.667969 C 50.296875 75.617188 50.296875 72.566406 50.296875 69.421875 C 56.089844 69.359375 61.882812 69.292969 67.851562 69.226562 Z M 67.851562 69.226562 "/>
<path style=" stroke:none;fill-rule:nonzero;fill:rgb(87.843137%,78.431373%,28.235294%);fill-opacity:1;" d="M 76.527344 63.523438 C 76.59375 63.523438 76.660156 63.523438 76.726562 63.523438 C 76.730469 65.238281 76.734375 66.953125 76.734375 68.667969 C 76.738281 69.464844 76.738281 70.257812 76.742188 71.054688 C 76.742188 71.824219 76.742188 72.589844 76.746094 73.359375 C 76.746094 73.652344 76.746094 73.945312 76.746094 74.238281 C 76.75 74.648438 76.75 75.058594 76.75 75.46875 C 76.75 75.703125 76.75 75.933594 76.75 76.175781 C 76.726562 76.699219 76.726562 76.699219 76.527344 76.898438 C 75.945312 76.9375 75.363281 76.972656 74.777344 76.996094 C 74.453125 77.007812 74.128906 77.023438 73.804688 77.039062 C 73.660156 77.042969 73.515625 77.050781 73.367188 77.054688 C 72.9375 77.082031 72.9375 77.082031 72.386719 77.289062 C 72.050781 77.304688 71.714844 77.3125 71.378906 77.308594 C 71.1875 77.308594 70.992188 77.308594 70.792969 77.308594 C 70.589844 77.304688 70.386719 77.304688 70.179688 77.300781 C 69.976562 77.300781 69.769531 77.300781 69.5625 77.300781 C 69.054688 77.296875 68.550781 77.292969 68.046875 77.289062 C 68.046875 77.226562 68.046875 77.160156 68.046875 77.09375 C 68.875 77.007812 69.703125 76.925781 70.53125 76.839844 C 70.808594 76.8125 71.089844 76.785156 71.371094 76.753906 C 71.777344 76.714844 72.1875 76.671875 72.59375 76.632812 C 72.957031 76.59375 72.957031 76.59375 73.332031 76.558594 C 74.394531 76.488281 75.460938 76.503906 76.527344 76.503906 C 76.527344 72.21875 76.527344 67.9375 76.527344 63.523438 Z M 76.527344 63.523438 "/>
<path style=" stroke:none;fill-rule:nonzero;fill:rgb(93.72549%,87.843137%,75.294118%);fill-opacity:1;" d="M 30.964844 76.503906 C 30.964844 76.566406 30.964844 76.632812 30.964844 76.699219 C 31.148438 76.710938 31.332031 76.722656 31.519531 76.734375 C 31.875 76.761719 31.875 76.761719 32.234375 76.785156 C 32.472656 76.800781 32.707031 76.816406 32.949219 76.835938 C 33.53125 76.898438 33.53125 76.898438 33.726562 77.09375 C 34.222656 77.132812 34.710938 77.167969 35.207031 77.191406 C 36.660156 77.261719 36.660156 77.261719 36.882812 77.488281 C 37.515625 77.542969 38.144531 77.574219 38.777344 77.609375 C 39.445312 77.683594 40.003906 77.84375 40.632812 78.078125 C 40.632812 78.140625 40.632812 78.207031 40.632812 78.273438 C 37.78125 78.167969 34.972656 77.765625 32.148438 77.375 C 31.671875 77.308594 31.191406 77.246094 30.710938 77.179688 C 29.546875 77.019531 28.382812 76.859375 27.21875 76.699219 C 27.21875 76.636719 27.21875 76.570312 27.21875 76.503906 C 27.621094 76.464844 28.023438 76.429688 28.425781 76.394531 C 28.652344 76.371094 28.875 76.351562 29.105469 76.332031 C 29.761719 76.308594 30.328125 76.371094 30.964844 76.503906 Z M 30.964844 76.503906 "/>
<path style=" stroke:none;fill-rule:nonzero;fill:rgb(93.333333%,90.980392%,75.686275%);fill-opacity:1;" d="M 65.6875 76.875 C 65.859375 76.875 66.035156 76.875 66.210938 76.878906 C 66.398438 76.878906 66.582031 76.878906 66.777344 76.878906 C 66.972656 76.882812 67.167969 76.882812 67.371094 76.882812 C 67.566406 76.886719 67.761719 76.886719 67.964844 76.886719 C 68.453125 76.890625 68.941406 76.894531 69.429688 76.898438 C 69.429688 76.960938 69.429688 77.027344 69.429688 77.09375 C 62.527344 77.882812 62.527344 77.882812 59.589844 78.125 C 59.308594 78.148438 59.308594 78.148438 59.019531 78.171875 C 58.148438 78.242188 57.285156 78.289062 56.410156 78.273438 C 56.410156 78.207031 56.410156 78.144531 56.410156 78.078125 C 56.734375 78.078125 57.0625 78.078125 57.394531 78.078125 C 57.394531 77.945312 57.394531 77.816406 57.394531 77.683594 C 58.761719 77.683594 60.128906 77.683594 61.539062 77.683594 C 61.539062 77.554688 61.539062 77.421875 61.539062 77.289062 C 61.792969 77.277344 62.046875 77.265625 62.308594 77.253906 C 62.640625 77.238281 62.96875 77.21875 63.300781 77.203125 C 63.554688 77.191406 63.554688 77.191406 63.808594 77.179688 C 63.96875 77.171875 64.128906 77.164062 64.292969 77.15625 C 64.515625 77.144531 64.515625 77.144531 64.742188 77.132812 C 65.183594 77.082031 65.226562 76.898438 65.6875 76.875 Z M 65.6875 76.875 "/>
<path style=" stroke:none;fill-rule:nonzero;fill:rgb(92.54902%,89.019608%,69.803922%);fill-opacity:1;" d="M 76.332031 70.011719 C 76.394531 70.011719 76.460938 70.011719 76.527344 70.011719 C 76.527344 72.15625 76.527344 74.296875 76.527344 76.503906 C 75.785156 76.566406 75.039062 76.632812 74.273438 76.699219 C 73.925781 76.730469 73.925781 76.730469 73.574219 76.761719 C 72.382812 76.863281 71.214844 76.917969 70.019531 76.898438 C 70.085938 76.765625 70.148438 76.636719 70.21875 76.503906 C 70.46875 76.492188 70.71875 76.480469 70.980469 76.46875 C 71.308594 76.449219 71.636719 76.433594 71.96875 76.417969 C 72.132812 76.410156 72.300781 76.402344 72.46875 76.394531 C 72.628906 76.386719 72.789062 76.378906 72.953125 76.367188 C 73.097656 76.363281 73.246094 76.355469 73.398438 76.347656 C 73.785156 76.328125 73.785156 76.328125 74.160156 76.109375 C 74.5 76.097656 74.835938 76.09375 75.171875 76.097656 C 75.351562 76.097656 75.53125 76.101562 75.714844 76.101562 C 75.855469 76.105469 75.992188 76.109375 76.132812 76.109375 C 76.132812 75.867188 76.128906 75.625 76.128906 75.375 C 76.117188 73.578125 76.128906 71.804688 76.332031 70.011719 Z M 76.332031 70.011719 "/>
<path style=" stroke:none;fill-rule:nonzero;fill:rgb(98.823529%,94.117647%,79.215686%);fill-opacity:1;" d="M 4.535156 27.730469 C 4.601562 27.730469 4.667969 27.730469 4.734375 27.730469 C 4.863281 29.164062 4.992188 30.597656 5.121094 32.035156 C 5.179688 32.699219 5.238281 33.367188 5.296875 34.03125 C 5.367188 34.800781 5.4375 35.566406 5.503906 36.335938 C 5.527344 36.570312 5.546875 36.808594 5.570312 37.050781 C 5.671875 38.210938 5.746094 39.351562 5.71875 40.511719 C 5.324219 40.121094 5.324219 40.121094 5.285156 39.480469 C 5.292969 39.226562 5.296875 38.976562 5.300781 38.71875 C 5.304688 38.464844 5.308594 38.214844 5.3125 37.957031 C 5.316406 37.761719 5.320312 37.566406 5.324219 37.367188 C 5.195312 37.367188 5.066406 37.367188 4.929688 37.367188 C 4.925781 37.234375 4.921875 37.097656 4.914062 36.960938 C 4.894531 36.355469 4.867188 35.75 4.84375 35.140625 C 4.835938 34.929688 4.828125 34.71875 4.820312 34.503906 C 4.8125 34.300781 4.804688 34.097656 4.796875 33.890625 C 4.785156 33.609375 4.785156 33.609375 4.773438 33.324219 C 4.75 32.816406 4.75 32.816406 4.535156 32.253906 C 4.519531 31.90625 4.515625 31.554688 4.515625 31.207031 C 4.519531 31.003906 4.519531 30.800781 4.519531 30.59375 C 4.519531 30.382812 4.523438 30.171875 4.523438 29.953125 C 4.523438 29.742188 4.527344 29.527344 4.527344 29.308594 C 4.527344 28.78125 4.53125 28.257812 4.535156 27.730469 Z M 4.535156 27.730469 "/>
<path style=" stroke:none;fill-rule:nonzero;fill:rgb(93.72549%,90.588235%,74.509804%);fill-opacity:1;" d="M 52.859375 32.058594 C 54.488281 32.027344 56.082031 32.109375 57.703125 32.273438 C 58.039062 32.304688 58.039062 32.304688 58.382812 32.339844 C 59.089844 32.40625 59.796875 32.476562 60.503906 32.546875 C 60.984375 32.597656 61.46875 32.644531 61.953125 32.691406 C 63.128906 32.804688 64.304688 32.921875 65.484375 33.039062 C 65.484375 33.105469 65.484375 33.167969 65.484375 33.238281 C 64.800781 33.242188 64.117188 33.246094 63.4375 33.25 C 63.144531 33.25 63.144531 33.25 62.847656 33.253906 C 62.570312 33.253906 62.570312 33.253906 62.285156 33.257812 C 62.027344 33.257812 62.027344 33.257812 61.765625 33.257812 C 61.339844 33.238281 61.339844 33.238281 60.945312 33.039062 C 60.679688 33 60.410156 32.96875 60.140625 32.941406 C 59.976562 32.925781 59.808594 32.910156 59.640625 32.894531 C 59.460938 32.875 59.28125 32.859375 59.097656 32.84375 C 58.914062 32.828125 58.734375 32.808594 58.542969 32.792969 C 56.652344 32.621094 54.757812 32.527344 52.859375 32.449219 C 52.859375 32.320312 52.859375 32.191406 52.859375 32.058594 Z M 52.859375 32.058594 "/>
<path style=" stroke:none;fill-rule:nonzero;fill:rgb(87.45098%,78.431373%,29.411765%);fill-opacity:1;" d="M 50.097656 31.464844 C 50.980469 31.492188 51.867188 31.523438 52.75 31.550781 C 53 31.558594 53.253906 31.566406 53.515625 31.574219 C 53.753906 31.585938 53.992188 31.59375 54.238281 31.601562 C 54.574219 31.613281 54.574219 31.613281 54.914062 31.621094 C 55.425781 31.664062 55.425781 31.664062 55.621094 31.859375 C 55.898438 31.882812 56.171875 31.894531 56.449219 31.902344 C 56.707031 31.910156 56.707031 31.910156 56.972656 31.917969 C 57.15625 31.921875 57.339844 31.929688 57.53125 31.933594 C 59.261719 31.996094 60.847656 32.199219 62.523438 32.648438 C 62.523438 32.710938 62.523438 32.777344 62.523438 32.84375 C 59.75 32.632812 56.976562 32.398438 54.203125 32.144531 C 54.066406 32.128906 53.929688 32.117188 53.789062 32.105469 C 53.394531 32.066406 53 32.03125 52.605469 31.996094 C 52.378906 31.972656 52.152344 31.953125 51.917969 31.929688 C 51.304688 31.863281 50.703125 31.769531 50.097656 31.664062 C 50.097656 31.597656 50.097656 31.535156 50.097656 31.464844 Z M 50.097656 31.464844 "/>
<path style=" stroke:none;fill-rule:nonzero;fill:rgb(98.823529%,94.509804%,80.392157%);fill-opacity:1;" d="M 91.714844 37.761719 C 91.78125 37.761719 91.847656 37.761719 91.914062 37.761719 C 91.890625 38.671875 91.867188 39.585938 91.839844 40.5 C 91.832031 40.8125 91.824219 41.121094 91.816406 41.433594 C 91.804688 41.878906 91.792969 42.324219 91.777344 42.773438 C 91.773438 42.910156 91.773438 43.050781 91.769531 43.195312 C 91.75 43.792969 91.710938 44.269531 91.519531 44.839844 C 91.496094 45.148438 91.480469 45.457031 91.46875 45.765625 C 91.464844 45.945312 91.457031 46.125 91.449219 46.3125 C 91.4375 46.6875 91.425781 47.066406 91.417969 47.445312 C 91.351562 49.144531 91.351562 49.144531 90.925781 49.953125 C 90.863281 49.953125 90.796875 49.953125 90.730469 49.953125 C 90.8125 47.890625 90.925781 45.84375 91.175781 43.792969 C 91.320312 42.570312 91.398438 41.351562 91.453125 40.121094 C 91.488281 39.320312 91.566406 38.546875 91.714844 37.761719 Z M 91.714844 37.761719 "/>
<path style=" stroke:none;fill-rule:nonzero;fill:rgb(93.72549%,90.980392%,73.333333%);fill-opacity:1;" d="M 50.296875 69.621094 C 50.492188 69.71875 50.492188 69.71875 50.691406 69.816406 C 50.625 72.671875 50.558594 75.527344 50.492188 78.46875 C 51.339844 78.46875 52.183594 78.46875 53.058594 78.46875 C 53.058594 78.339844 53.058594 78.210938 53.058594 78.078125 C 54.035156 78.140625 55.011719 78.207031 56.015625 78.273438 C 56.015625 78.339844 56.015625 78.402344 56.015625 78.46875 C 54.121094 78.707031 52.203125 78.667969 50.296875 78.667969 C 50.296875 75.679688 50.296875 72.695312 50.296875 69.621094 Z M 50.296875 69.621094 "/>
<path style=" stroke:none;fill-rule:nonzero;fill:rgb(87.45098%,69.803922%,36.078431%);fill-opacity:1;" d="M 9.269531 78.078125 C 9.660156 78.660156 9.714844 78.800781 9.746094 79.457031 C 9.753906 79.605469 9.761719 79.753906 9.769531 79.90625 C 9.777344 80.140625 9.777344 80.140625 9.789062 80.375 C 9.796875 80.53125 9.804688 80.6875 9.8125 80.851562 C 9.828125 81.238281 9.847656 81.625 9.863281 82.011719 C 9.925781 82.011719 9.992188 82.011719 10.058594 82.011719 C 10.058594 83.566406 10.058594 85.125 10.058594 86.730469 C 9.992188 86.730469 9.929688 86.730469 9.863281 86.730469 C 9.777344 85.84375 9.691406 84.960938 9.609375 84.074219 C 9.582031 83.777344 9.550781 83.476562 9.523438 83.175781 C 9.359375 81.472656 9.21875 79.792969 9.269531 78.078125 Z M 9.269531 78.078125 "/>
<path style=" stroke:none;fill-rule:nonzero;fill:rgb(99.215686%,94.509804%,80%);fill-opacity:1;" d="M 89.546875 61.753906 C 89.613281 61.753906 89.675781 61.753906 89.742188 61.753906 C 89.742188 63.503906 89.742188 65.257812 89.742188 67.0625 C 89.613281 67.0625 89.484375 67.0625 89.347656 67.0625 C 89.347656 68.035156 89.347656 69.011719 89.347656 70.011719 C 89.21875 70.011719 89.089844 70.011719 88.953125 70.011719 C 89.085938 67.253906 89.304688 64.503906 89.546875 61.753906 Z M 89.546875 61.753906 "/>
<path style=" stroke:none;fill-rule:nonzero;fill:rgb(86.27451%,67.058824%,30.588235%);fill-opacity:1;" d="M 6.113281 43.265625 C 6.179688 43.265625 6.246094 43.265625 6.3125 43.265625 C 6.515625 44.582031 6.527344 45.867188 6.507812 47.199219 C 6.640625 47.199219 6.769531 47.199219 6.902344 47.199219 C 6.902344 48.757812 6.902344 50.316406 6.902344 51.921875 C 6.839844 51.921875 6.773438 51.921875 6.707031 51.921875 C 6.621094 50.972656 6.535156 50.023438 6.453125 49.078125 C 6.425781 48.753906 6.394531 48.433594 6.367188 48.109375 C 6.324219 47.644531 6.285156 47.179688 6.242188 46.714844 C 6.230469 46.574219 6.21875 46.433594 6.203125 46.285156 C 6.117188 45.277344 6.105469 44.28125 6.113281 43.265625 Z M 6.113281 43.265625 "/>
<path style=" stroke:none;fill-rule:nonzero;fill:rgb(86.27451%,67.058824%,30.980392%);fill-opacity:1;" d="M 42.605469 108.363281 C 43.1875 108.363281 43.773438 108.363281 44.378906 108.363281 C 44.378906 108.492188 44.378906 108.621094 44.378906 108.757812 C 44.539062 108.753906 44.695312 108.75 44.859375 108.746094 C 45.363281 108.757812 45.363281 108.757812 45.5625 108.953125 C 45.824219 108.992188 46.085938 109.023438 46.351562 109.050781 C 47.117188 109.128906 47.117188 109.128906 47.335938 109.347656 C 47.734375 109.394531 48.132812 109.429688 48.53125 109.457031 C 48.75 109.472656 48.96875 109.492188 49.191406 109.507812 C 49.363281 109.519531 49.53125 109.53125 49.703125 109.542969 C 49.308594 109.9375 49.308594 109.9375 48.664062 110.003906 C 47.425781 109.972656 46.25 109.582031 45.070312 109.25 C 44.832031 109.183594 44.59375 109.117188 44.347656 109.050781 C 43.765625 108.886719 43.183594 108.726562 42.605469 108.558594 C 42.605469 108.496094 42.605469 108.429688 42.605469 108.363281 Z M 42.605469 108.363281 "/>
<path style=" stroke:none;fill-rule:nonzero;fill:rgb(99.215686%,94.901961%,80.392157%);fill-opacity:1;" d="M 10.652344 95.1875 C 10.714844 95.1875 10.78125 95.1875 10.847656 95.1875 C 10.914062 95.816406 10.980469 96.449219 11.046875 97.078125 C 11.0625 97.257812 11.082031 97.433594 11.101562 97.617188 C 11.195312 98.515625 11.265625 99.394531 11.242188 100.300781 C 11.390625 100.324219 11.542969 100.347656 11.695312 100.371094 C 11.890625 100.40625 12.089844 100.4375 12.289062 100.472656 C 12.484375 100.503906 12.679688 100.535156 12.878906 100.570312 C 13.414062 100.691406 13.414062 100.691406 14.003906 101.085938 C 13.375 101.296875 13.039062 101.277344 12.425781 101.023438 C 12.296875 100.972656 12.164062 100.921875 12.03125 100.867188 C 11.632812 100.691406 11.238281 100.496094 10.847656 100.300781 C 10.78125 98.613281 10.71875 96.925781 10.652344 95.1875 Z M 10.652344 95.1875 "/>
<path style=" stroke:none;fill-rule:nonzero;fill:rgb(98.431373%,96.862745%,88.235294%);fill-opacity:1;" d="M 86.390625 99.511719 C 86.390625 99.902344 86.390625 100.292969 86.390625 100.691406 C 86.128906 100.691406 85.871094 100.691406 85.601562 100.691406 C 85.601562 100.5625 85.601562 100.433594 85.601562 100.300781 C 85.394531 100.34375 85.394531 100.34375 85.179688 100.390625 C 84.609375 100.496094 84.046875 100.558594 83.46875 100.605469 C 83.277344 100.625 83.085938 100.640625 82.886719 100.65625 C 82.742188 100.667969 82.59375 100.679688 82.445312 100.691406 C 82.976562 100.164062 83.476562 100.085938 84.195312 99.882812 C 84.441406 99.8125 84.683594 99.742188 84.933594 99.671875 C 85.601562 99.511719 85.601562 99.511719 86.390625 99.511719 Z M 86.390625 99.511719 "/>
<path style=" stroke:none;fill-rule:nonzero;fill:rgb(98.431373%,93.333333%,78.039216%);fill-opacity:1;" d="M 74.554688 102.855469 C 74.554688 102.988281 74.554688 103.117188 74.554688 103.25 C 74.421875 103.273438 74.285156 103.296875 74.144531 103.320312 C 73.878906 103.371094 73.878906 103.371094 73.605469 103.421875 C 73.429688 103.453125 73.253906 103.484375 73.074219 103.519531 C 72.539062 103.625 72.539062 103.625 71.992188 104.035156 C 71.53125 104.109375 71.074219 104.171875 70.613281 104.234375 C 70.546875 104.296875 70.480469 104.363281 70.414062 104.429688 C 69.953125 104.4375 69.492188 104.4375 69.035156 104.429688 C 69.578125 104.066406 69.945312 103.917969 70.5625 103.738281 C 70.742188 103.6875 70.925781 103.636719 71.109375 103.582031 C 71.300781 103.53125 71.488281 103.476562 71.683594 103.421875 C 71.871094 103.367188 72.058594 103.3125 72.253906 103.257812 C 72.4375 103.207031 72.617188 103.152344 72.804688 103.101562 C 72.96875 103.054688 73.136719 103.007812 73.308594 102.957031 C 73.765625 102.855469 73.765625 102.855469 74.554688 102.855469 Z M 74.554688 102.855469 "/>
<path style=" stroke:none;fill-rule:nonzero;fill:rgb(84.705882%,66.27451%,31.372549%);fill-opacity:1;" d="M 20.117188 75.714844 C 21.984375 75.804688 23.800781 75.949219 25.640625 76.308594 C 25.640625 76.371094 25.640625 76.4375 25.640625 76.503906 C 25.222656 76.507812 24.804688 76.511719 24.382812 76.515625 C 24.148438 76.519531 23.917969 76.519531 23.675781 76.523438 C 23.078125 76.503906 23.078125 76.503906 22.683594 76.308594 C 22.246094 76.230469 21.8125 76.160156 21.375 76.097656 C 21.140625 76.0625 20.90625 76.027344 20.664062 75.992188 C 20.394531 75.953125 20.394531 75.953125 20.117188 75.914062 C 20.117188 75.847656 20.117188 75.785156 20.117188 75.714844 Z M 20.117188 75.714844 "/>
<path style=" stroke:none;fill-rule:nonzero;fill:rgb(87.843137%,69.019608%,34.901961%);fill-opacity:1;" d="M 36.292969 106.789062 C 39.089844 106.6875 39.089844 106.6875 39.992188 107.492188 C 40.074219 107.585938 40.152344 107.679688 40.238281 107.773438 C 38.882812 107.644531 37.605469 107.332031 36.292969 106.988281 C 36.292969 106.921875 36.292969 106.855469 36.292969 106.789062 Z M 36.292969 106.789062 "/>
<path style=" stroke:none;fill-rule:nonzero;fill:rgb(90.980392%,88.235294%,64.705882%);fill-opacity:1;" d="M 53.058594 78.078125 C 54.035156 78.140625 55.011719 78.207031 56.015625 78.273438 C 56.015625 78.339844 56.015625 78.402344 56.015625 78.46875 C 54.453125 78.566406 54.453125 78.566406 52.859375 78.667969 C 52.925781 78.472656 52.988281 78.277344 53.058594 78.078125 Z M 53.058594 78.078125 "/>
<path style=" stroke:none;fill-rule:nonzero;fill:rgb(99.215686%,94.901961%,81.176471%);fill-opacity:1;" d="M 86.980469 91.253906 C 87.046875 91.253906 87.113281 91.253906 87.179688 91.253906 C 87.230469 91.695312 87.273438 92.136719 87.316406 92.582031 C 87.351562 92.949219 87.351562 92.949219 87.390625 93.328125 C 87.375 94.007812 87.375 94.007812 86.785156 94.792969 C 86.882812 93.042969 86.882812 93.042969 86.980469 91.253906 Z M 86.980469 91.253906 "/>
<path style=" stroke:none;fill-rule:nonzero;fill:rgb(98.431373%,93.333333%,78.823529%);fill-opacity:1;" d="M 77.316406 102.265625 C 77.121094 102.265625 76.925781 102.265625 76.726562 102.265625 C 76.660156 102.460938 76.59375 102.65625 76.527344 102.855469 C 75.878906 102.855469 75.226562 102.855469 74.554688 102.855469 C 75.398438 102.296875 76.324219 101.871094 77.316406 102.265625 Z M 77.316406 102.265625 "/>
<path style=" stroke:none;fill-rule:nonzero;fill:rgb(92.54902%,89.019608%,67.45098%);fill-opacity:1;" d="M 61.539062 77.289062 C 62.320312 77.355469 63.101562 77.417969 63.90625 77.488281 C 63.90625 77.550781 63.90625 77.617188 63.90625 77.683594 C 62.34375 77.78125 62.34375 77.78125 60.75 77.878906 C 61.011719 77.816406 61.269531 77.75 61.539062 77.683594 C 61.539062 77.554688 61.539062 77.421875 61.539062 77.289062 Z M 61.539062 77.289062 "/>
<path style=" stroke:none;fill-rule:nonzero;fill:rgb(87.058824%,68.627451%,34.117647%);fill-opacity:1;" d="M 16.960938 101.675781 C 17.546875 101.675781 18.132812 101.675781 18.738281 101.675781 C 18.738281 101.804688 18.738281 101.9375 18.738281 102.070312 C 19.191406 102.136719 19.648438 102.199219 20.117188 102.265625 C 19.375 102.539062 18.847656 102.382812 18.097656 102.179688 C 17.777344 102.097656 17.777344 102.097656 17.453125 102.007812 C 17.210938 101.941406 17.210938 101.941406 16.960938 101.875 C 16.960938 101.808594 16.960938 101.742188 16.960938 101.675781 Z M 16.960938 101.675781 "/>
<path style=" stroke:none;fill-rule:nonzero;fill:rgb(98.823529%,94.117647%,78.431373%);fill-opacity:1;" d="M 85.207031 100.101562 C 84.558594 100.535156 84.253906 100.566406 83.492188 100.621094 C 83.199219 100.640625 83.199219 100.640625 82.898438 100.664062 C 82.675781 100.679688 82.675781 100.679688 82.445312 100.691406 C 82.867188 100.273438 83.046875 100.207031 83.605469 100.066406 C 83.738281 100.03125 83.871094 99.996094 84.011719 99.960938 C 84.464844 99.902344 84.773438 99.96875 85.207031 100.101562 Z M 85.207031 100.101562 "/>
<path style=" stroke:none;fill-rule:nonzero;fill:rgb(98.823529%,94.117647%,78.823529%);fill-opacity:1;" d="M 63.707031 105.808594 C 63.644531 106.066406 63.578125 106.324219 63.511719 106.59375 C 62.730469 106.59375 61.949219 106.59375 61.144531 106.59375 C 61.667969 106.246094 61.949219 106.117188 62.535156 105.980469 C 62.671875 105.945312 62.808594 105.914062 62.949219 105.878906 C 63.3125 105.808594 63.3125 105.808594 63.707031 105.808594 Z M 63.707031 105.808594 "/>
<path style=" stroke:none;fill-rule:nonzero;fill:rgb(98.823529%,93.333333%,79.607843%);fill-opacity:1;" d="M 82.050781 100.691406 C 81.984375 100.886719 81.921875 101.082031 81.855469 101.285156 C 81.136719 101.347656 80.421875 101.414062 79.683594 101.480469 C 80.328125 100.839844 81.160156 100.691406 82.050781 100.691406 Z M 82.050781 100.691406 "/>
<path style=" stroke:none;fill-rule:nonzero;fill:rgb(99.607843%,95.686275%,85.490196%);fill-opacity:1;" d="M 36.488281 106.988281 C 37.289062 107.078125 37.960938 107.160156 38.660156 107.578125 C 38.136719 107.578125 37.617188 107.578125 37.082031 107.578125 C 37.082031 107.445312 37.082031 107.316406 37.082031 107.183594 C 36.886719 107.117188 36.691406 107.054688 36.488281 106.988281 Z M 36.488281 106.988281 "/>
<path style=" stroke:none;fill-rule:nonzero;fill:rgb(93.72549%,89.019608%,79.607843%);fill-opacity:1;" d="M 38.265625 77.683594 C 39.144531 77.640625 39.808594 77.765625 40.632812 78.078125 C 40.632812 78.140625 40.632812 78.207031 40.632812 78.273438 C 40.109375 78.273438 39.589844 78.273438 39.054688 78.273438 C 39.054688 78.144531 39.054688 78.015625 39.054688 77.878906 C 38.792969 77.816406 38.53125 77.75 38.265625 77.683594 Z M 38.265625 77.683594 "/>
</g>
</svg>
