<?xml version="1.0" encoding="UTF-8"?>
<svg xmlns="http://www.w3.org/2000/svg" xmlns:xlink="http://www.w3.org/1999/xlink" width="100px" height="px" viewBox="0 0 100 100" version="1.1">
<defs>
<linearGradient id="linear0" gradientUnits="userSpaceOnUse" x1="16.0578" y1="6.30617" x2="15.8364" y2="9.30598" gradientTransform="matrix(3.125,0,0,3.125,0,0)">
<stop offset="0" style="stop-color:rgb(100%,100%,100%);stop-opacity:0.8;"/>
<stop offset="1" style="stop-color:rgb(100%,100%,100%);stop-opacity:0;"/>
</linearGradient>
<linearGradient id="linear1" gradientUnits="userSpaceOnUse" x1="12.8966" y1="22.6721" x2="11.2506" y2="17.2716" gradientTransform="matrix(3.125,0,0,3.125,0,0)">
<stop offset="0" style="stop-color:rgb(100%,93.333333%,84.313725%);stop-opacity:1;"/>
<stop offset="1" style="stop-color:rgb(74.117647%,74.901961%,76.078431%);stop-opacity:1;"/>
</linearGradient>
<linearGradient id="linear2" gradientUnits="userSpaceOnUse" x1="12.8966" y1="22.6721" x2="11.2506" y2="17.2716" gradientTransform="matrix(3.125,0,0,3.125,0,0)">
<stop offset="0" style="stop-color:rgb(100%,93.333333%,84.313725%);stop-opacity:1;"/>
<stop offset="1" style="stop-color:rgb(74.117647%,74.901961%,76.078431%);stop-opacity:1;"/>
</linearGradient>
<linearGradient id="linear3" gradientUnits="userSpaceOnUse" x1="16.6681" y1="9.65546" x2="16.5748" y2="10.3542" gradientTransform="matrix(3.125,0,0,3.125,0,0)">
<stop offset="0" style="stop-color:rgb(100%,100%,100%);stop-opacity:0.65098;"/>
<stop offset="1" style="stop-color:rgb(100%,100%,100%);stop-opacity:0;"/>
</linearGradient>
<linearGradient id="linear4" gradientUnits="userSpaceOnUse" x1="14.434" y1="9.78294" x2="14.5344" y2="10.3483" gradientTransform="matrix(3.125,0,0,3.125,0,0)">
<stop offset="0" style="stop-color:rgb(100%,100%,100%);stop-opacity:0.65098;"/>
<stop offset="1" style="stop-color:rgb(100%,100%,100%);stop-opacity:0;"/>
</linearGradient>
<linearGradient id="linear5" gradientUnits="userSpaceOnUse" x1="15.7613" y1="15.6306" x2="15.778" y2="19.6272" gradientTransform="matrix(3.125,0,0,3.125,0,0)">
<stop offset="0" style="stop-color:rgb(100%,100%,100%);stop-opacity:0.8;"/>
<stop offset="1" style="stop-color:rgb(100%,100%,100%);stop-opacity:0;"/>
</linearGradient>
<linearGradient id="linear6" gradientUnits="userSpaceOnUse" x1="15.8504" y1="13.1247" x2="15.8688" y2="14.7138" gradientTransform="matrix(3.125,0,0,3.125,0,0)">
<stop offset="0" style="stop-color:rgb(100%,100%,100%);stop-opacity:0.65098;"/>
<stop offset="1" style="stop-color:rgb(100%,100%,100%);stop-opacity:0;"/>
</linearGradient>
<linearGradient id="linear7" gradientUnits="userSpaceOnUse" x1="11.72" y1="14.1055" x2="11.72" y2="19.9372" gradientTransform="matrix(3.125,0,0,3.125,0,0)">
<stop offset="0" style="stop-color:rgb(100%,100%,100%);stop-opacity:0.65098;"/>
<stop offset="1" style="stop-color:rgb(100%,100%,100%);stop-opacity:0;"/>
</linearGradient>
<linearGradient id="linear8" gradientUnits="userSpaceOnUse" x1="21.033" y1="13.5359" x2="21.0308" y2="18.8052" gradientTransform="matrix(3.125,0,0,3.125,0,0)">
<stop offset="0" style="stop-color:rgb(100%,100%,100%);stop-opacity:0.65098;"/>
<stop offset="1" style="stop-color:rgb(100%,100%,100%);stop-opacity:0;"/>
</linearGradient>
<linearGradient id="linear9" gradientUnits="userSpaceOnUse" x1="11.4286" y1="22.4374" x2="10.5354" y2="25.4214" gradientTransform="matrix(3.125,0,0,3.125,0,0)">
<stop offset="0" style="stop-color:rgb(100%,65.098039%,24.705882%);stop-opacity:1;"/>
<stop offset="1" style="stop-color:rgb(100%,100%,0%);stop-opacity:1;"/>
</linearGradient>
<linearGradient id="linear10" gradientUnits="userSpaceOnUse" x1="19.882" y1="21.53" x2="22.2656" y2="24.7801" gradientTransform="matrix(3.125,0,0,3.125,0,0)">
<stop offset="0" style="stop-color:rgb(100%,65.098039%,24.705882%);stop-opacity:1;"/>
<stop offset="1" style="stop-color:rgb(100%,100%,0%);stop-opacity:1;"/>
</linearGradient>
<linearGradient id="linear11" gradientUnits="userSpaceOnUse" x1="20.5198" y1="18.9333" x2="19.6863" y2="22.8605" gradientTransform="matrix(3.125,0,0,3.125,0,0)">
<stop offset="0" style="stop-color:rgb(100%,100%,100%);stop-opacity:0.65098;"/>
<stop offset="1" style="stop-color:rgb(100%,100%,100%);stop-opacity:0;"/>
</linearGradient>
<linearGradient id="linear12" gradientUnits="userSpaceOnUse" x1="11.2464" y1="19.9042" x2="11.4117" y2="24.3239" gradientTransform="matrix(3.125,0,0,3.125,0,0)">
<stop offset="0" style="stop-color:rgb(100%,100%,100%);stop-opacity:0.65098;"/>
<stop offset="1" style="stop-color:rgb(100%,100%,100%);stop-opacity:0;"/>
</linearGradient>
<linearGradient id="linear13" gradientUnits="userSpaceOnUse" x1="20.3755" y1="18.8616" x2="20.5688" y2="20.1822" gradientTransform="matrix(3.125,0,0,3.125,0,0)">
<stop offset="0" style="stop-color:rgb(100%,100%,100%);stop-opacity:0.65098;"/>
<stop offset="1" style="stop-color:rgb(100%,100%,100%);stop-opacity:0;"/>
</linearGradient>
<linearGradient id="linear14" gradientUnits="userSpaceOnUse" x1="15.7644" y1="10.784" x2="15.7805" y2="13.1098" gradientTransform="matrix(3.125,0,0,3.125,0,0)">
<stop offset="0" style="stop-color:rgb(100%,65.098039%,24.705882%);stop-opacity:1;"/>
<stop offset="1" style="stop-color:rgb(100%,100%,0%);stop-opacity:1;"/>
</linearGradient>
<linearGradient id="linear15" gradientUnits="userSpaceOnUse" x1="15.5106" y1="10.5638" x2="15.5062" y2="11.7936" gradientTransform="matrix(3.125,0,0,3.125,0,0)">
<stop offset="0" style="stop-color:rgb(100%,100%,100%);stop-opacity:0.65098;"/>
<stop offset="1" style="stop-color:rgb(100%,100%,100%);stop-opacity:0;"/>
</linearGradient>
</defs>
<g id="surface1">
<path style=" stroke:none;fill-rule:nonzero;fill:rgb(100%,100%,100%);fill-opacity:1;" d="M 93.75 50 C 93.75 74.148438 74.171875 93.75 50 93.75 C 25.828125 93.75 6.25 74.148438 6.25 50 C 6.25 25.828125 25.828125 6.25 50 6.25 C 74.171875 6.25 93.75 25.828125 93.75 50 Z M 93.75 50 "/>
<path style=" stroke:none;fill-rule:nonzero;fill:rgb(0%,0%,0%);fill-opacity:1;" d="M 35.332031 68.46875 C 34.941406 67.886719 34.597656 67.097656 34.320312 66.15625 C 29.300781 60.492188 33.179688 52.160156 37.015625 46.503906 C 37.382812 45.898438 37.78125 45.3125 38.21875 44.753906 C 41.144531 41.117188 41.902344 38.585938 42.128906 35.164062 C 42.15625 34.523438 42.101562 33.679688 42.042969 32.710938 C 41.730469 27.761719 41.21875 19.535156 50.050781 18.808594 C 61.089844 17.894531 60.191406 28.035156 60.109375 33.980469 C 60.105469 34.226562 60.101562 34.464844 60.101562 34.695312 C 60.070312 38.277344 61.941406 40.730469 63.890625 43.292969 C 64.605469 44.226562 65.328125 45.175781 65.976562 46.199219 C 65.992188 46.230469 66.011719 46.261719 66.03125 46.292969 C 69.441406 51.210938 72.8125 58.554688 68.125 65.515625 C 67.464844 67.894531 66.46875 70.074219 65.136719 71.851562 C 60.355469 78.140625 56.105469 77.503906 52.789062 77.003906 C 51.785156 76.851562 50.871094 76.714844 50.050781 76.785156 C 48.6875 76.867188 47.59375 77.089844 46.648438 77.277344 C 43.003906 78.015625 41.578125 78.304688 35.332031 68.46875 Z M 35.332031 68.46875 "/>
<path style=" stroke:none;fill-rule:nonzero;fill:url(#linear0);" d="M 56.292969 24.359375 C 56.191406 27.273438 53.101562 29.800781 49.394531 30.035156 C 45.691406 30.269531 42.785156 28.058594 42.886719 25.144531 C 42.988281 22.230469 46.078125 19.699219 49.785156 19.464844 C 53.488281 19.253906 56.394531 21.445312 56.292969 24.359375 Z M 56.292969 24.359375 "/>
<path style=" stroke:none;fill-rule:evenodd;fill:url(#linear1);" d="M 49.578125 31.441406 C 49.609375 33.023438 50.335938 34.375 51.355469 34.984375 C 48.03125 34.6875 43.910156 35.902344 43.910156 38.203125 C 43.859375 42.09375 41.691406 46.9375 40.132812 50.421875 C 39.828125 51.105469 39.542969 51.742188 39.304688 52.304688 C 38.339844 54.695312 37.761719 57.25 37.691406 59.757812 C 35.136719 56.234375 36.992188 51.714844 37.996094 49.753906 C 39.328125 47.171875 39.300781 46.847656 38.785156 47.453125 C 36.800781 50.828125 33.0625 57.605469 37.742188 61.675781 C 37.890625 63.492188 38.332031 65.253906 39.121094 66.875 C 45.382812 79.507812 57.113281 74.316406 60.980469 67.765625 C 61.496094 66.835938 61.914062 65.933594 62.242188 65.0625 C 62.4375 65.183594 62.644531 65.28125 62.863281 65.34375 C 64.808594 65.917969 67.714844 63.726562 68.410156 62.363281 C 69.25 60.554688 68.390625 59.324219 65.527344 57.855469 C 65.378906 57.78125 65.234375 57.714844 65.09375 57.652344 C 66.191406 53.023438 63.164062 48.210938 61 46.167969 C 60.597656 46.070312 60.539062 46.296875 61.164062 46.921875 C 62.527344 48.230469 65.492188 52.882812 63.886719 57.214844 C 63.625 57.144531 63.371094 57.09375 63.128906 57.066406 C 62.636719 54.113281 61.320312 51.8125 60.40625 50.207031 C 60.195312 49.839844 60.007812 49.511719 59.855469 49.21875 C 59.546875 48.628906 59.175781 48.019531 58.785156 47.371094 C 57.277344 44.875 55.433594 41.824219 55.433594 37.308594 C 55.203125 36.316406 54.265625 35.65625 53.019531 35.289062 C 54.464844 34.996094 55.554688 33.304688 55.515625 31.269531 C 55.476562 29.078125 54.105469 27.335938 52.464844 27.378906 C 50.828125 27.421875 49.519531 29.25 49.578125 31.441406 Z M 50.929688 31.929688 C 50.910156 33.140625 51.484375 34.121094 52.242188 34.121094 C 52.976562 34.121094 53.613281 33.140625 53.632812 31.949219 C 53.652344 30.738281 53.082031 29.761719 52.324219 29.761719 C 51.566406 29.761719 50.953125 30.738281 50.929688 31.929688 Z M 50.929688 31.929688 "/>
<path style=" stroke:none;fill-rule:evenodd;fill:url(#linear2);" d="M 45.484375 34.84375 C 46.671875 34.78125 47.53125 33.183594 47.429688 31.292969 C 47.328125 29.398438 46.285156 27.929688 45.097656 27.996094 C 43.910156 28.058594 43.050781 29.652344 43.152344 31.546875 C 43.253906 33.4375 44.300781 34.90625 45.484375 34.84375 Z M 46.203125 31.949219 C 46.304688 32.949219 45.9375 33.800781 45.40625 33.886719 C 44.871094 33.949219 44.359375 33.207031 44.257812 32.207031 C 44.15625 31.207031 44.523438 30.355469 45.054688 30.269531 C 45.589844 30.207031 46.101562 30.949219 46.203125 31.949219 Z M 46.203125 31.949219 "/>
<path style=" stroke:none;fill-rule:nonzero;fill:url(#linear3);" d="M 51.238281 31.25 C 51.175781 31.929688 51.484375 32.484375 51.914062 32.523438 C 52.34375 32.566406 52.753906 32.035156 52.8125 31.375 C 52.875 30.695312 52.566406 30.144531 52.136719 30.101562 C 51.707031 30.058594 51.300781 30.589844 51.238281 31.25 Z M 51.238281 31.25 "/>
<path style=" stroke:none;fill-rule:nonzero;fill:url(#linear4);" d="M 45.753906 31.417969 C 45.8125 31.972656 45.589844 32.460938 45.261719 32.503906 C 44.933594 32.546875 44.628906 32.121094 44.566406 31.546875 C 44.503906 30.992188 44.730469 30.503906 45.058594 30.460938 C 45.382812 30.417969 45.691406 30.867188 45.753906 31.417969 Z M 45.753906 31.417969 "/>
<path style=" stroke:none;fill-rule:nonzero;fill:url(#linear5);" d="M 58.339844 53.601562 C 58.339844 57.34375 54.882812 62.195312 48.945312 62.152344 C 42.824219 62.195312 40.226562 57.34375 40.226562 53.601562 C 40.226562 49.859375 44.277344 46.816406 49.273438 46.816406 C 54.289062 46.839844 58.339844 49.859375 58.339844 53.601562 Z M 58.339844 53.601562 "/>
<path style=" stroke:none;fill-rule:nonzero;fill:url(#linear6);" d="M 55.109375 41.839844 C 55.046875 45.710938 52.609375 46.625 49.539062 46.625 C 46.46875 46.625 44.238281 46.050781 43.972656 41.839844 C 43.972656 39.203125 46.46875 37.671875 49.539062 37.671875 C 52.609375 37.652344 55.109375 39.183594 55.109375 41.839844 Z M 55.109375 41.839844 "/>
<path style=" stroke:none;fill-rule:nonzero;fill:url(#linear7);" d="M 36.542969 47.796875 C 38.546875 44.628906 42.785156 39.757812 37.339844 48.476562 C 32.917969 55.664062 35.703125 60.28125 37.136719 61.554688 C 41.269531 65.386719 41.105469 67.957031 37.851562 65.9375 C 30.871094 61.621094 32.324219 54.347656 36.542969 47.796875 Z M 36.542969 47.796875 "/>
<path style=" stroke:none;fill-rule:nonzero;fill:url(#linear8);" d="M 65.585938 49.09375 C 63.847656 45.371094 58.320312 35.929688 65.855469 46.902344 C 72.710938 56.835938 67.902344 63.746094 67.042969 64.429688 C 66.179688 65.109375 63.296875 66.492188 64.132812 64.085938 C 64.996094 61.683594 69.25 57.132812 65.585938 49.09375 Z M 65.585938 49.09375 "/>
<path style=" stroke:none;fill-rule:nonzero;fill:url(#linear9);" d="M 35.027344 78.445312 C 30.441406 75.914062 23.789062 78.933594 26.207031 72.085938 C 26.695312 70.53125 25.488281 68.191406 26.265625 66.683594 C 27.1875 64.832031 29.171875 65.234375 30.359375 64.003906 C 31.527344 62.726562 32.265625 60.515625 34.453125 60.855469 C 36.625 61.195312 38.078125 63.960938 39.59375 67.363281 C 40.71875 69.789062 44.6875 73.210938 44.421875 75.933594 C 44.09375 80.101562 39.53125 80.890625 35.027344 78.445312 Z M 35.027344 78.445312 "/>
<path style=" stroke:none;fill-rule:evenodd;fill:rgb(90.196078%,54.901961%,24.705882%);fill-opacity:1;" d="M 30.863281 64.5 C 29.75 65.722656 27.703125 65.429688 26.878906 67.023438 C 26.351562 68.046875 26.929688 69.625 27.007812 70.746094 C 27.101562 72.132812 25.953125 74.097656 26.539062 75.28125 C 27.195312 76.609375 30.164062 76.4375 31.472656 76.628906 C 34.695312 77.101562 40.019531 81.269531 42.933594 77.941406 C 45.78125 74.6875 40.308594 70.570312 38.964844 67.679688 C 38.089844 65.714844 36.78125 61.953125 34.351562 61.570312 C 32.632812 61.304688 31.851562 63.417969 30.863281 64.5 Z M 34.558594 60.140625 C 37.585938 60.613281 39.101562 64.542969 40.222656 67.054688 C 41.917969 70.695312 47.734375 74.609375 43.964844 78.914062 C 40.542969 82.824219 35.136719 78.625 31.277344 78.0625 C 29.347656 77.78125 26.308594 77.984375 25.300781 75.941406 C 24.433594 74.1875 25.738281 72.597656 25.617188 70.851562 C 25.511719 69.359375 24.925781 67.761719 25.648438 66.34375 C 26.640625 64.359375 28.558594 64.839844 29.859375 63.496094 C 31.242188 61.976562 32.074219 59.753906 34.558594 60.140625 Z M 34.558594 60.140625 "/>
<path style=" stroke:none;fill-rule:nonzero;fill:url(#linear10);" d="M 66.816406 77.273438 C 70.171875 73.042969 77.644531 73.914062 72.609375 68.109375 C 71.546875 66.851562 71.871094 64.171875 70.5625 63.023438 C 69.027344 61.621094 67.328125 62.769531 65.773438 62.046875 C 64.21875 61.257812 62.578125 59.75 60.675781 60.8125 C 58.773438 61.898438 58.566406 64.703125 58.382812 68.40625 C 58.21875 71.0625 55.886719 75.507812 57.132812 77.953125 C 58.9375 81.742188 63.625 81.230469 66.816406 77.273438 Z M 66.816406 77.273438 "/>
<path style=" stroke:none;fill-rule:evenodd;fill:rgb(90.196078%,54.901961%,24.705882%);fill-opacity:1;" d="M 68.15625 61.558594 C 69.015625 61.535156 70.046875 61.59375 71.015625 62.476562 C 72.21875 63.539062 72.230469 65.269531 72.683594 66.722656 C 73.222656 68.441406 75.105469 69.421875 74.992188 71.4375 C 74.808594 74.730469 69.105469 75.523438 67.351562 77.738281 C 65.664062 79.828125 63.53125 81.070312 61.507812 81.238281 C 58.4375 81.492188 55.902344 78.914062 56.082031 75.761719 C 56.226562 73.210938 57.527344 70.894531 57.683594 68.363281 C 57.777344 66.53125 57.875 64.832031 58.207031 63.453125 C 58.539062 62.058594 59.144531 60.859375 60.339844 60.179688 C 62.953125 58.71875 65.480469 61.625 68.15625 61.558594 Z M 61.007812 61.449219 C 60.296875 61.851562 59.847656 62.597656 59.558594 63.804688 C 59.265625 65.023438 59.167969 66.585938 59.074219 68.453125 C 58.917969 70.988281 57.617188 73.304688 57.472656 75.847656 C 57.34375 78.117188 59.085938 79.988281 61.394531 79.796875 C 62.964844 79.667969 64.773438 78.675781 66.277344 76.8125 C 67.625 75.117188 73.480469 73.542969 73.601562 71.351562 C 73.683594 69.921875 71.800781 68.582031 71.359375 67.167969 C 71.015625 66.066406 70.996094 64.355469 70.109375 63.578125 C 69.546875 63.0625 68.949219 62.984375 68.191406 63.003906 C 65.988281 63.0625 63.050781 60.308594 61.007812 61.449219 Z M 61.007812 61.449219 "/>
<path style=" stroke:none;fill-rule:nonzero;fill:url(#linear11);" d="M 65.359375 71.617188 C 70.558594 63.640625 66.691406 63.703125 65.382812 63.089844 C 64.070312 62.449219 62.699219 61.195312 61.164062 62.066406 C 59.628906 62.960938 59.546875 65.257812 59.507812 68.277344 C 59.445312 70.445312 57.707031 74.085938 58.75 76.105469 C 60.019531 78.464844 63.089844 75.039062 65.359375 71.617188 Z M 65.359375 71.617188 "/>
<path style=" stroke:none;fill-rule:nonzero;fill:url(#linear12);" d="M 33.964844 72.765625 C 26.183594 67.53125 29.828125 65.746094 30.996094 64.917969 C 32.40625 63.851562 32.429688 61.8125 34.167969 62.003906 C 35.90625 62.195312 36.929688 64.425781 38.097656 67.191406 C 38.957031 69.171875 41.945312 71.808594 41.722656 74.082031 C 41.433594 76.761719 37.320312 74.996094 33.964844 72.765625 Z M 33.964844 72.765625 "/>
<path style=" stroke:none;fill-rule:nonzero;fill:rgb(0%,0%,0%);fill-opacity:1;" d="M 67.960938 62.300781 C 67.347656 63.40625 64.851562 65.148438 63.195312 64.683594 C 61.496094 64.234375 60.71875 61.746094 61.066406 59.875 C 61.371094 57.75 63.195312 57.644531 65.484375 58.707031 C 67.921875 59.855469 68.679688 60.832031 67.960938 62.300781 Z M 67.960938 62.300781 "/>
<path style=" stroke:none;fill-rule:nonzero;fill:url(#linear13);" d="M 66.285156 61.683594 C 65.894531 62.449219 64.257812 63.660156 63.109375 63.34375 C 61.964844 63.023438 61.390625 61.300781 61.574219 60.003906 C 61.738281 58.535156 62.96875 58.453125 64.523438 59.175781 C 66.203125 59.984375 66.734375 60.664062 66.285156 61.683594 Z M 66.285156 61.683594 "/>
<path style=" stroke:none;fill-rule:nonzero;fill:url(#linear14);" d="M 45.117188 33.929688 C 45.9375 33.144531 47.921875 30.738281 51.6875 33.25 C 52.382812 33.71875 52.957031 33.757812 54.289062 34.355469 C 56.96875 35.503906 55.699219 38.269531 52.832031 39.203125 C 51.605469 39.609375 50.5 41.160156 48.289062 41.011719 C 46.386719 40.90625 45.894531 39.609375 44.726562 38.90625 C 42.660156 37.695312 42.351562 36.054688 43.480469 35.183594 C 44.605469 34.3125 45.035156 33.992188 45.117188 33.929688 Z M 45.117188 33.929688 "/>
<path style=" stroke:none;fill-rule:evenodd;fill:rgb(90.196078%,54.901961%,24.705882%);fill-opacity:1;" d="M 43.730469 35.53125 C 43.300781 35.863281 43.164062 36.304688 43.304688 36.792969 C 43.597656 37.792969 45.691406 39.171875 46.496094 39.84375 C 46.953125 40.226562 47.472656 40.53125 48.316406 40.578125 C 50.121094 40.699219 51.125 39.308594 52.707031 38.789062 C 53.75 38.449219 55.953125 37.152344 55.222656 35.664062 C 54.597656 34.390625 52.503906 34.3125 51.460938 33.613281 C 49.667969 32.417969 48.363281 32.429688 47.433594 32.761719 C 46.414062 33.128906 44.652344 34.816406 43.730469 35.53125 Z M 47.160156 31.941406 C 48.367188 31.507812 49.941406 31.570312 51.914062 32.882812 C 53.210938 33.753906 55.183594 33.671875 55.964844 35.269531 C 56.964844 37.300781 54.546875 39.097656 52.960938 39.617188 C 51.257812 40.179688 50.308594 41.582031 48.265625 41.445312 C 47.207031 41.386719 46.527344 40.988281 45.96875 40.519531 C 44.816406 39.550781 42.863281 38.628906 42.417969 37.09375 C 42.171875 36.238281 42.53125 35.375 43.230469 34.835938 C 44.355469 33.960938 45.882812 32.402344 47.160156 31.941406 Z M 47.160156 31.941406 "/>
<path style=" stroke:none;fill-rule:evenodd;fill:rgb(90.196078%,54.901961%,24.705882%);fill-opacity:1;" d="M 54.609375 36.148438 C 54.617188 36.308594 54.5 36.445312 54.34375 36.453125 C 52.179688 36.574219 50.65625 39.046875 48.210938 39.046875 C 46.839844 39.046875 45.757812 38.386719 44.980469 37.75 C 44.824219 37.625 43.449219 36.5625 43.449219 36.289062 C 43.449219 36.128906 43.574219 36 43.726562 36 C 44.015625 36 44.882812 36.945312 45.207031 37.207031 C 45.9375 37.808594 47.019531 38.46875 48.210938 38.46875 C 50.632812 38.46875 52.117188 36 54.3125 35.875 C 54.46875 35.863281 54.597656 35.988281 54.609375 36.148438 Z M 54.609375 36.148438 "/>
<path style=" stroke:none;fill-rule:nonzero;fill:url(#linear15);" d="M 46.386719 33.714844 C 46.796875 33.332031 48.085938 32.292969 49.785156 33.355469 C 50.15625 33.566406 50.523438 33.800781 51.054688 34.121094 C 52.140625 34.78125 51.609375 35.738281 50.296875 36.332031 C 49.703125 36.585938 48.722656 37.140625 47.984375 37.097656 C 47.164062 37.011719 46.613281 36.460938 46.082031 36.097656 C 45.078125 35.417969 45.140625 34.84375 45.609375 34.398438 C 45.957031 34.058594 46.347656 33.738281 46.386719 33.714844 Z M 46.386719 33.714844 "/>
</g>
</svg>
