<?xml version="1.0" encoding="UTF-8"?>
<svg xmlns="http://www.w3.org/2000/svg" xmlns:xlink="http://www.w3.org/1999/xlink" width="100px" height="px" viewBox="0 0 100 100" version="1.1">
<g id="surface1">
<path style="fill-rule:nonzero;fill:rgb(100%,100%,100%);fill-opacity:1;stroke-width:1;stroke-linecap:butt;stroke-linejoin:miter;stroke:rgb(85.098039%,85.098039%,85.098039%);stroke-opacity:1;stroke-miterlimit:4;" d="M 5.999219 0.500781 L 64.000781 0.500781 C 67.038672 0.500781 69.499609 2.961719 69.499609 5.999609 L 69.499609 42.000391 C 69.499609 45.038281 67.038672 47.499219 64.000781 47.499219 L 5.999219 47.499219 C 2.961328 47.499219 0.500391 45.038281 0.500391 42.000391 L 0.500391 5.999609 C 0.500391 2.961719 2.961328 0.500781 5.999219 0.500781 Z M 5.999219 0.500781 " transform="matrix(1.428571,0,0,1.428571,0,15.714286)"/>
<path style=" stroke:none;fill-rule:evenodd;fill:rgb(92.941176%,0%,2.352941%);fill-opacity:1;" d="M 50.5625 65.375 C 47.160156 68.3125 42.742188 70.085938 37.917969 70.085938 C 27.148438 70.085938 18.421875 61.253906 18.421875 50.363281 C 18.421875 39.46875 27.148438 30.640625 37.917969 30.640625 C 42.742188 30.640625 47.160156 32.414062 50.5625 35.351562 C 53.96875 32.414062 58.382812 30.640625 63.210938 30.640625 C 73.976562 30.640625 82.707031 39.46875 82.707031 50.363281 C 82.707031 61.253906 73.976562 70.085938 63.210938 70.085938 C 58.382812 70.085938 53.96875 68.3125 50.5625 65.375 Z M 50.5625 65.375 "/>
<path style=" stroke:none;fill-rule:evenodd;fill:rgb(97.647059%,62.745098%,0%);fill-opacity:1;" d="M 50.5625 65.375 C 54.753906 61.757812 57.414062 56.375 57.414062 50.363281 C 57.414062 44.351562 54.753906 38.96875 50.5625 35.351562 C 53.96875 32.414062 58.382812 30.640625 63.210938 30.640625 C 73.976562 30.640625 82.707031 39.46875 82.707031 50.363281 C 82.707031 61.253906 73.976562 70.085938 63.210938 70.085938 C 58.382812 70.085938 53.96875 68.3125 50.5625 65.375 Z M 50.5625 65.375 "/>
<path style=" stroke:none;fill-rule:evenodd;fill:rgb(100%,36.862745%,0%);fill-opacity:1;" d="M 50.5625 35.351562 C 54.753906 38.96875 57.414062 44.351562 57.414062 50.363281 C 57.414062 56.375 54.753906 61.757812 50.5625 65.375 C 46.371094 61.757812 43.714844 56.375 43.714844 50.363281 C 43.714844 44.351562 46.371094 38.96875 50.5625 35.351562 Z M 50.5625 35.351562 "/>
</g>
</svg>
