<?xml version="1.0" encoding="UTF-8"?>
<svg xmlns="http://www.w3.org/2000/svg" xmlns:xlink="http://www.w3.org/1999/xlink" width="100px" height="100px" viewBox="0 0 100 100" version="1.1">
<g id="surface1">
<path style="fill-rule:nonzero;fill:rgb(100%,100%,100%);fill-opacity:0.8;stroke-width:1;stroke-linecap:butt;stroke-linejoin:miter;stroke:rgb(46.666667%,46.666667%,46.666667%);stroke-opacity:1;stroke-miterlimit:4;" d="M 63 1 C 28.405 1.55 0.725 29.895 1 64.49 C 1.275 99.09 29.4 126.99 64 126.99 C 98.6 126.99 126.725 99.09 127 64.49 C 127.275 29.895 99.595 1.55 65 1 Z M 63 15 C 36.14 15.55 14.73 37.625 15.005 64.49 C 15.275 91.355 37.135 112.99 64 112.99 C 90.865 112.99 112.725 91.355 112.995 64.49 C 113.27 37.625 91.86 15.55 65 15 Z M 63 29 C 43.875 29.545 28.73 45.355 29.005 64.485 C 29.275 83.62 44.865 98.985 64 98.985 C 83.135 98.985 98.725 83.62 98.995 64.485 C 99.27 45.355 84.125 29.545 65 29 Z M 63 43 C 51.61 43.545 42.735 53.075 43.005 64.475 C 43.28 75.875 52.595 84.975 64 84.975 C 75.405 84.975 84.72 75.875 84.995 64.475 C 85.265 53.075 76.39 43.545 65 43 Z M 63 57 C 59.365 57.525 56.755 60.765 57.02 64.43 C 57.28 68.09 60.33 70.93 64 70.93 C 67.67 70.93 70.72 68.09 70.98 64.43 C 71.245 60.765 68.635 57.525 65 57 Z M 127 64 L 1 64 M 109 19 L 19 109 M 109 109 L 19 19 M 64 1 L 64 127 " transform="matrix(0.78125,0,0,0.78125,0,0)"/>
<path style="fill-rule:nonzero;fill:rgb(100%,40%,0%);fill-opacity:0.8;stroke-width:1;stroke-linecap:butt;stroke-linejoin:miter;stroke:rgb(46.666667%,46.666667%,46.666667%);stroke-opacity:1;stroke-miterlimit:4;" d="M 50 8 L 30 18 L 98 110 L 108 100 L 64 64 Z M 50 8 " transform="matrix(0.78125,0,0,0.78125,0,0)"/>
<path style="fill-rule:nonzero;fill:rgb(100%,80%,0%);fill-opacity:0.8;stroke-width:1;stroke-linecap:butt;stroke-linejoin:miter;stroke:rgb(46.666667%,46.666667%,46.666667%);stroke-opacity:1;stroke-miterlimit:4;" d="M 17 50 L 17 78 L 64 64 Z M 17 50 " transform="matrix(0.78125,0,0,0.78125,0,0)"/>
<path style="fill-rule:nonzero;fill:rgb(46.666667%,100%,46.666667%);fill-opacity:0.8;stroke-width:1;stroke-linecap:butt;stroke-linejoin:miter;stroke:rgb(46.666667%,46.666667%,46.666667%);stroke-opacity:1;stroke-miterlimit:4;" d="M 64 64 L 70 99 L 58 99 Z M 64 64 " transform="matrix(0.78125,0,0,0.78125,0,0)"/>
<path style="fill-rule:nonzero;fill:rgb(80%,100%,20%);fill-opacity:0.8;stroke-width:1;stroke-linecap:butt;stroke-linejoin:miter;stroke:rgb(46.666667%,46.666667%,46.666667%);stroke-opacity:1;stroke-miterlimit:4;" d="M 64 64 L 77 24 L 86 29 Z M 64 64 " transform="matrix(0.78125,0,0,0.78125,0,0)"/>
<path style="fill-rule:nonzero;fill:rgb(0%,26.666667%,100%);fill-opacity:0.8;stroke-width:1;stroke-linecap:butt;stroke-linejoin:miter;stroke:rgb(46.666667%,46.666667%,46.666667%);stroke-opacity:1;stroke-miterlimit:4;" d="M 64 64 L 78 58 L 79 62 Z M 64 64 L 38 77 L 41 81 Z M 64 64 " transform="matrix(0.78125,0,0,0.78125,0,0)"/>
</g>
</svg>
