<?xml version="1.0" encoding="UTF-8"?>
<svg xmlns="http://www.w3.org/2000/svg" xmlns:xlink="http://www.w3.org/1999/xlink" width="100px" height="px" viewBox="0 0 100 100" version="1.1">
<g id="surface1">
<path style=" stroke:none;fill-rule:nonzero;fill:rgb(34.901961%,58.823529%,21.176471%);fill-opacity:1;" d="M 46.019531 13 L 48.1875 17.070312 C 48.675781 17.824219 49.203125 18.488281 49.824219 19.105469 C 51.648438 20.90625 53.347656 22.828125 54.910156 24.855469 C 58.582031 29.679688 61.058594 35.03125 62.828125 40.824219 C 63.890625 44.363281 64.464844 47.992188 64.507812 51.660156 C 64.6875 62.628906 60.925781 72.050781 53.34375 79.878906 C 52.109375 81.121094 50.777344 82.257812 49.359375 83.285156 C 48.605469 83.285156 48.25 82.707031 47.941406 82.179688 C 47.378906 81.195312 47.003906 80.113281 46.835938 78.992188 C 46.570312 77.667969 46.394531 76.339844 46.480469 74.96875 L 46.480469 74.347656 C 46.417969 74.21875 45.757812 13.3125 46.019531 13 Z M 46.019531 13 "/>
<path style=" stroke:none;fill-rule:nonzero;fill:rgb(42.352941%,67.45098%,28.235294%);fill-opacity:1;" d="M 46.019531 12.867188 C 45.933594 12.6875 45.84375 12.824219 45.753906 12.910156 C 45.796875 13.796875 45.488281 14.589844 45.003906 15.347656 C 44.46875 16.097656 43.765625 16.671875 43.058594 17.292969 C 39.125 20.699219 36.027344 24.8125 33.546875 29.414062 C 30.25 35.605469 28.550781 42.238281 28.066406 49.226562 C 27.847656 51.746094 28.863281 60.636719 29.65625 63.203125 C 31.824219 70.015625 35.71875 75.722656 40.761719 80.675781 C 42 81.867188 43.324219 82.976562 44.695312 84.039062 C 45.09375 84.039062 45.136719 83.683594 45.226562 83.417969 C 45.402344 82.855469 45.535156 82.277344 45.625 81.691406 L 46.511719 75.058594 Z M 46.019531 12.867188 "/>
<path style=" stroke:none;fill-rule:nonzero;fill:rgb(76.078431%,74.901961%,74.901961%);fill-opacity:1;" d="M 48.1875 85.980469 C 48.277344 84.964844 48.765625 84.121094 49.292969 83.28125 C 48.761719 83.0625 48.367188 82.621094 48.054688 82.132812 C 47.789062 81.667969 47.566406 81.179688 47.394531 80.671875 C 46.777344 78.816406 46.644531 76.867188 46.46875 74.96875 L 46.46875 73.820312 C 46.246094 73.996094 46.203125 75.5 46.203125 75.722656 C 46.070312 77.726562 45.804688 79.722656 45.40625 81.691406 C 45.273438 82.488281 45.183594 83.285156 44.695312 83.992188 C 44.695312 84.082031 44.695312 84.171875 44.738281 84.300781 C 45.535156 86.648438 45.753906 89.035156 45.886719 91.46875 L 45.886719 92.355469 C 45.886719 93.417969 45.84375 93.195312 46.722656 93.550781 C 47.078125 93.679688 47.476562 93.726562 47.832031 93.992188 C 48.097656 93.992188 48.140625 93.769531 48.140625 93.59375 L 48.007812 92.132812 L 48.007812 88.0625 C 47.964844 87.351562 48.097656 86.648438 48.1875 85.980469 Z M 48.1875 85.980469 "/>
</g>
</svg>
