<?xml version="1.0" encoding="UTF-8"?>
<svg xmlns="http://www.w3.org/2000/svg" xmlns:xlink="http://www.w3.org/1999/xlink" width="100px" height="px" viewBox="0 0 100 100" version="1.1">
<defs>
<linearGradient id="linear0" gradientUnits="userSpaceOnUse" x1="-2901.952" y1="923.573" x2="-2061.249" y2="1420.331" gradientTransform="matrix(0.00475,0,0,-0.00475,58.08011,63.652395)">
<stop offset="0" style="stop-color:rgb(56.470588%,61.176471%,66.27451%);stop-opacity:1;"/>
<stop offset="1" style="stop-color:rgb(92.941176%,92.941176%,93.333333%);stop-opacity:1;"/>
</linearGradient>
<linearGradient id="linear1" gradientUnits="userSpaceOnUse" x1="-2882.7" y1="10288.81" x2="-2206.249" y2="10288.81" gradientTransform="matrix(0.00475,0,0,-0.00475,58.08011,63.652395)">
<stop offset="0" style="stop-color:rgb(57.647059%,62.352941%,67.058824%);stop-opacity:1;"/>
<stop offset="1" style="stop-color:rgb(86.27451%,87.058824%,88.235294%);stop-opacity:1;"/>
</linearGradient>
<radialGradient id="radial0" gradientUnits="userSpaceOnUse" cx="-14217.448" cy="7277.705" fx="-14217.448" fy="7277.705" r="898.12" gradientTransform="matrix(-0.00456139,-0.000685171,-0.00138574,0.00912278,5.834498,-46.617282)">
<stop offset="0" style="stop-color:rgb(93.333333%,20.784314%,17.254902%);stop-opacity:1;"/>
<stop offset="1" style="stop-color:rgb(66.27451%,11.372549%,13.333333%);stop-opacity:1;"/>
</radialGradient>
</defs>
<g id="surface1">
<path style=" stroke:none;fill-rule:nonzero;fill:url(#linear0);" d="M 67.796875 35.320312 L 56.753906 38.925781 L 47.144531 43.164062 L 44.457031 43.875 C 43.773438 44.527344 43.054688 45.183594 42.28125 45.851562 C 41.429688 46.585938 40.636719 47.253906 40.027344 47.738281 C 39.347656 48.273438 38.347656 49.277344 37.839844 49.910156 C 37.078125 50.863281 36.476562 51.871094 36.21875 52.648438 C 35.761719 54.050781 35.984375 55.46875 36.871094 56.78125 C 38.003906 58.449219 40.269531 60.152344 42.90625 61.3125 C 44.25 61.90625 46.511719 62.664062 48.214844 63.089844 C 51.042969 63.808594 56.519531 64.585938 59.535156 64.703125 C 60.144531 64.726562 60.960938 64.726562 60.992188 64.703125 C 61.0625 64.660156 61.527344 63.765625 62.070312 62.65625 C 63.925781 58.875 65.257812 55.328125 65.984375 52.296875 C 66.417969 50.460938 66.761719 48.015625 66.988281 45.117188 C 67.046875 44.308594 67.070312 41.597656 67.019531 40.679688 C 66.945312 39.175781 66.8125 37.957031 66.605469 36.761719 C 66.570312 36.585938 66.5625 36.429688 66.578125 36.421875 C 66.613281 36.394531 66.710938 36.363281 68.074219 35.96875 Z M 65.277344 36.796875 C 65.375 36.796875 65.644531 39.359375 65.710938 40.976562 C 65.726562 41.320312 65.71875 41.546875 65.703125 41.546875 C 65.636719 41.546875 64.292969 40.753906 63.332031 40.152344 C 62.496094 39.625 60.910156 38.574219 60.660156 38.375 C 60.578125 38.316406 60.585938 38.308594 61.269531 38.074219 C 62.429688 37.679688 65.183594 36.796875 65.277344 36.796875 Z M 59.648438 38.648438 C 59.726562 38.648438 59.917969 38.757812 60.375 39.042969 C 62.097656 40.117188 64.433594 41.421875 65.433594 41.855469 C 65.742188 41.988281 65.777344 41.9375 65.066406 42.421875 C 63.546875 43.457031 61.652344 44.476562 59.332031 45.503906 C 58.925781 45.6875 58.582031 45.828125 58.574219 45.828125 C 58.558594 45.828125 58.605469 45.621094 58.671875 45.367188 C 59.234375 43.289062 59.550781 41.1875 59.566406 39.5 C 59.574219 38.667969 59.574219 38.667969 59.648438 38.640625 C 59.632812 38.648438 59.640625 38.648438 59.648438 38.648438 Z M 58.488281 39.09375 C 58.539062 39.140625 58.507812 41.011719 58.441406 41.519531 C 58.289062 42.738281 58.054688 43.875 57.671875 45.152344 C 57.582031 45.460938 57.496094 45.71875 57.480469 45.734375 C 57.445312 45.777344 56.304688 44.660156 55.925781 44.226562 C 55.277344 43.472656 54.765625 42.722656 54.390625 41.988281 C 54.199219 41.613281 53.898438 40.878906 53.925781 40.851562 C 54.058594 40.761719 58.457031 39.058594 58.488281 39.09375 Z M 53.03125 41.238281 C 53.039062 41.238281 53.046875 41.238281 53.054688 41.246094 C 53.074219 41.261719 53.132812 41.394531 53.179688 41.546875 C 53.449219 42.273438 54.050781 43.339844 54.566406 44.023438 C 55.132812 44.777344 55.878906 45.578125 56.496094 46.105469 C 56.695312 46.269531 56.878906 46.429688 56.902344 46.453125 C 56.953125 46.503906 56.972656 46.496094 55.609375 47.011719 C 54.03125 47.613281 52.3125 48.214844 50.34375 48.851562 C 49.871094 49 49.402344 49.15625 48.933594 49.308594 C 48.855469 49.335938 48.882812 49.292969 49.097656 48.949219 C 50.074219 47.421875 51.5625 44.425781 52.394531 42.304688 C 52.539062 41.9375 52.679688 41.570312 52.707031 41.488281 C 52.738281 41.371094 52.78125 41.328125 52.890625 41.269531 C 52.949219 41.253906 53.003906 41.238281 53.03125 41.238281 Z M 51.363281 41.929688 C 51.386719 41.945312 50.960938 42.839844 50.542969 43.65625 C 49.734375 45.234375 48.847656 46.789062 47.664062 48.675781 C 47.464844 49 47.269531 49.300781 47.246094 49.335938 C 47.203125 49.390625 47.1875 49.375 47.054688 49.117188 C 46.769531 48.558594 46.535156 47.839844 46.410156 47.179688 C 46.285156 46.527344 46.3125 45.394531 46.453125 44.691406 C 46.5625 44.175781 46.554688 44.183594 46.804688 44.058594 C 47.871094 43.515625 51.328125 41.898438 51.363281 41.929688 Z M 65.761719 42.515625 L 65.761719 42.863281 C 65.761719 44.726562 65.558594 47.28125 65.269531 49.140625 C 65.21875 49.46875 65.175781 49.734375 65.167969 49.742188 C 65.167969 49.742188 64.925781 49.675781 64.640625 49.59375 C 63.390625 49.199219 62.027344 48.625 60.800781 47.949219 C 59.992188 47.507812 58.816406 46.78125 58.847656 46.746094 C 58.855469 46.738281 59.207031 46.554688 59.617188 46.335938 C 61.253906 45.484375 62.820312 44.566406 64.183594 43.65625 C 64.691406 43.316406 65.460938 42.765625 65.628906 42.613281 Z M 45.058594 44.984375 C 45.09375 44.984375 45.085938 45.050781 45.035156 45.351562 C 45 45.570312 44.957031 45.96875 44.941406 46.246094 C 44.875 47.464844 45.074219 48.367188 45.675781 49.601562 C 45.84375 49.941406 45.976562 50.226562 45.96875 50.234375 C 45.910156 50.285156 40.382812 51.90625 38.648438 52.378906 C 38.128906 52.523438 37.679688 52.648438 37.648438 52.65625 C 37.589844 52.671875 37.578125 52.664062 37.605469 52.523438 C 37.796875 51.296875 38.730469 49.691406 40.035156 48.339844 C 40.902344 47.4375 41.59375 46.914062 42.78125 46.238281 C 43.632812 45.753906 44.941406 45.027344 45.042969 44.992188 C 45.042969 44.984375 45.050781 44.984375 45.058594 44.984375 Z M 58.082031 47.3125 C 58.089844 47.304688 58.289062 47.414062 58.53125 47.554688 C 60.316406 48.589844 62.804688 49.550781 64.925781 50.042969 L 65.117188 50.085938 L 64.851562 50.234375 C 63.742188 50.851562 60.09375 52.371094 56.363281 53.765625 C 55.820312 53.964844 55.285156 54.167969 55.183594 54.207031 C 55.085938 54.25 54.992188 54.277344 54.992188 54.265625 C 54.992188 54.257812 55.144531 53.964844 55.335938 53.609375 C 56.378906 51.65625 57.429688 49.277344 57.964844 47.621094 C 58.03125 47.464844 58.074219 47.324219 58.082031 47.3125 Z M 56.753906 47.746094 C 56.761719 47.757812 56.695312 47.933594 56.613281 48.132812 C 55.886719 49.894531 54.933594 51.8125 53.714844 53.96875 C 53.40625 54.519531 53.148438 54.960938 53.140625 54.960938 C 53.132812 54.960938 52.878906 54.808594 52.578125 54.625 C 50.808594 53.542969 49.242188 52.207031 48.214844 50.910156 L 48.0625 50.726562 L 48.824219 50.519531 C 51.546875 49.777344 53.855469 48.976562 56.152344 47.988281 C 56.476562 47.855469 56.746094 47.746094 56.753906 47.746094 Z M 65 50.628906 C 65 50.628906 65.007812 50.636719 65 50.628906 C 65.007812 50.820312 64.582031 52.539062 64.234375 53.78125 C 63.941406 54.828125 63.691406 55.644531 63.230469 57.089844 C 63.03125 57.722656 62.855469 58.25 62.847656 58.25 C 62.839844 58.25 62.789062 58.242188 62.738281 58.222656 C 60.257812 57.773438 58.039062 57.148438 55.953125 56.3125 C 55.367188 56.078125 54.535156 55.703125 54.484375 55.660156 C 54.464844 55.644531 54.96875 55.410156 55.601562 55.136719 C 59.398438 53.472656 63.339844 51.585938 64.691406 50.777344 C 64.851562 50.679688 64.976562 50.628906 65 50.628906 Z M 45.960938 51.277344 C 45.976562 51.296875 44.917969 52.824219 43.429688 54.902344 C 42.914062 55.628906 42.3125 56.480469 42.085938 56.796875 C 41.863281 57.113281 41.519531 57.613281 41.328125 57.914062 L 40.976562 58.457031 L 40.601562 58.140625 C 40.160156 57.773438 39.390625 56.988281 39.050781 56.554688 C 38.332031 55.660156 37.847656 54.71875 37.65625 53.859375 C 37.5625 53.457031 37.5625 53.257812 37.648438 53.230469 C 37.773438 53.199219 40 52.671875 42.085938 52.1875 C 43.246094 51.921875 44.589844 51.605469 45.074219 51.488281 C 45.558594 51.371094 45.953125 51.277344 45.960938 51.277344 Z M 47.027344 51.6875 L 47.296875 51.988281 C 48.5 53.332031 49.726562 54.324219 51.210938 55.195312 C 51.476562 55.34375 51.679688 55.476562 51.660156 55.484375 C 51.601562 55.527344 46.503906 57.339844 44.140625 58.15625 C 42.8125 58.625 41.71875 59 41.710938 59 C 41.703125 59 41.628906 58.949219 41.542969 58.890625 L 41.394531 58.78125 L 41.636719 58.433594 C 42.421875 57.296875 43.40625 56.054688 45.550781 53.464844 Z M 53.691406 56.453125 C 53.699219 56.445312 54.066406 56.578125 54.515625 56.746094 C 55.601562 57.15625 56.460938 57.414062 57.613281 57.707031 C 59.03125 58.066406 61.085938 58.414062 62.296875 58.515625 C 62.480469 58.53125 62.582031 58.550781 62.546875 58.574219 C 62.488281 58.609375 61.261719 59.015625 60.359375 59.300781 C 58.925781 59.75 54.542969 61.046875 50.96875 62.070312 C 50.308594 62.265625 49.742188 62.421875 49.707031 62.429688 C 49.625 62.449219 49.351562 62.371094 49.351562 62.339844 C 49.351562 62.324219 49.550781 62.0625 49.792969 61.78125 C 50.992188 60.34375 52.1875 58.742188 53.179688 57.222656 C 53.457031 56.804688 53.691406 56.460938 53.691406 56.453125 Z M 52.222656 56.496094 C 52.230469 56.503906 51.636719 57.457031 50.601562 59.09375 C 50.160156 59.785156 49.667969 60.570312 49.492188 60.84375 C 49.324219 61.113281 49.074219 61.53125 48.933594 61.761719 L 48.691406 62.1875 L 48.566406 62.15625 C 48.265625 62.070312 46.152344 61.328125 45.59375 61.105469 C 44.902344 60.828125 44.183594 60.496094 43.648438 60.210938 C 42.980469 59.851562 42.144531 59.316406 42.210938 59.300781 C 42.230469 59.292969 43.371094 58.984375 44.75 58.609375 C 48.40625 57.613281 50.433594 57.039062 51.761719 56.621094 C 52.003906 56.546875 52.210938 56.488281 52.222656 56.496094 Z M 62.613281 58.933594 L 62.621094 58.933594 C 62.65625 59.015625 61.304688 62.773438 60.808594 63.957031 C 60.703125 64.226562 60.660156 64.292969 60.601562 64.285156 C 60.460938 64.277344 58.5 64 57.304688 63.824219 C 55.226562 63.507812 51.738281 62.898438 50.859375 62.699219 L 50.660156 62.65625 L 51.902344 62.371094 C 54.574219 61.769531 55.859375 61.445312 57.164062 61.046875 C 58.808594 60.542969 60.433594 59.917969 62.078125 59.152344 C 62.339844 59.035156 62.554688 58.941406 62.613281 58.933594 Z M 62.613281 58.933594 "/>
<path style=" stroke:none;fill-rule:nonzero;fill:url(#linear1);" d="M 56.410156 9.574219 C 56.226562 9.550781 53.265625 10.617188 51.351562 11.394531 C 48.773438 12.445312 46.769531 13.449219 45.535156 14.316406 C 45.074219 14.640625 44.5 15.21875 44.40625 15.445312 C 44.375 15.527344 44.359375 15.628906 44.359375 15.726562 L 45.476562 16.789062 L 48.140625 17.640625 L 54.476562 18.773438 L 61.71875 20.019531 L 61.796875 19.390625 C 61.769531 19.390625 61.753906 19.382812 61.730469 19.382812 L 60.777344 19.234375 L 60.585938 18.890625 C 59.601562 17.15625 58.515625 15 57.878906 13.550781 C 57.386719 12.421875 56.921875 11.121094 56.660156 10.183594 C 56.519531 9.617188 56.503906 9.585938 56.410156 9.574219 Z M 56.277344 10 L 56.285156 10 C 56.292969 10.007812 56.328125 10.242188 56.363281 10.519531 C 56.503906 11.6875 56.761719 12.8125 57.171875 14.03125 C 57.480469 14.953125 57.480469 14.902344 57.121094 14.792969 C 56.269531 14.558594 52.453125 13.898438 49.691406 13.515625 C 49.25 13.457031 48.875 13.398438 48.875 13.390625 C 48.839844 13.355469 50.867188 12.296875 51.761719 11.878906 C 52.90625 11.355469 56.042969 10.042969 56.277344 10 Z M 48.230469 13.742188 L 48.558594 13.847656 C 50.328125 14.449219 54.773438 15.300781 57.230469 15.503906 C 57.503906 15.527344 57.738281 15.550781 57.746094 15.550781 C 57.753906 15.5625 57.523438 15.6875 57.222656 15.828125 C 56.035156 16.421875 54.734375 17.148438 53.832031 17.707031 C 53.566406 17.871094 53.324219 18.007812 53.289062 18.007812 C 53.257812 18.007812 53.082031 17.972656 52.898438 17.949219 L 52.5625 17.898438 L 51.730469 17.078125 C 50.257812 15.652344 49.109375 14.550781 48.664062 14.132812 Z M 47.898438 14 L 49.074219 15.46875 C 49.71875 16.277344 50.367188 17.070312 50.511719 17.246094 C 50.652344 17.421875 50.769531 17.5625 50.761719 17.574219 C 50.726562 17.597656 49.058594 17.273438 48.171875 17.070312 C 47.261719 16.863281 46.886719 16.761719 46.328125 16.585938 L 45.867188 16.4375 L 45.867188 16.320312 C 45.878906 15.761719 46.585938 14.925781 47.789062 14.074219 Z M 57.898438 16.003906 C 57.929688 16.003906 57.972656 16.078125 58.074219 16.304688 C 58.355469 16.929688 59.242188 18.617188 59.457031 18.941406 C 59.523438 19.050781 59.640625 19.058594 58.464844 18.867188 C 55.636719 18.40625 54.726562 18.257812 54.726562 18.238281 C 54.726562 18.230469 54.808594 18.171875 54.917969 18.113281 C 55.792969 17.632812 56.679688 17.011719 57.464844 16.355469 C 57.65625 16.195312 57.832031 16.042969 57.863281 16.019531 C 57.871094 16.003906 57.890625 15.996094 57.898438 16.003906 Z M 57.898438 16.003906 "/>
<path style=" stroke:none;fill-rule:nonzero;fill:url(#radial0);" d="M 44.464844 15.328125 C 44.464844 15.328125 44.28125 15.621094 44.457031 16.054688 C 44.566406 16.320312 44.882812 16.644531 45.242188 16.980469 C 45.242188 16.980469 48.957031 20.601562 49.40625 21.121094 C 51.460938 23.492188 52.355469 25.828125 52.4375 29.050781 C 52.488281 31.121094 52.097656 32.941406 51.121094 35.050781 C 49.382812 38.839844 45.71875 43.023438 40.066406 47.664062 L 40.894531 47.390625 C 41.429688 46.988281 42.152344 46.5625 43.855469 45.628906 C 47.789062 43.472656 52.210938 41.496094 57.636719 39.460938 C 65.453125 36.519531 78.296875 33.082031 85.609375 31.964844 L 86.371094 31.847656 L 86.253906 31.664062 C 85.585938 30.628906 85.125 29.984375 84.574219 29.300781 C 82.972656 27.3125 81.027344 25.703125 78.648438 24.367188 C 75.375 22.539062 71.144531 21.113281 65.785156 20.050781 C 64.777344 19.851562 62.554688 19.46875 60.753906 19.191406 C 56.929688 18.597656 54.457031 18.191406 51.738281 17.722656 C 50.761719 17.554688 49.300781 17.304688 48.332031 17.097656 C 47.832031 16.988281 46.871094 16.761719 46.121094 16.503906 C 45.519531 16.269531 44.648438 16.035156 44.464844 15.328125 Z M 46.621094 17.414062 C 46.628906 17.40625 46.761719 17.457031 46.9375 17.515625 C 47.253906 17.621094 47.664062 17.746094 48.148438 17.882812 C 48.515625 17.980469 48.882812 18.078125 49.25 18.171875 C 49.75 18.296875 50.167969 18.414062 50.175781 18.414062 C 50.234375 18.472656 51.078125 21.167969 51.363281 22.203125 C 51.46875 22.597656 51.554688 22.929688 51.546875 22.929688 C 51.535156 22.941406 51.445312 22.796875 51.335938 22.605469 C 50.359375 20.886719 48.816406 19.140625 47.027344 17.738281 C 46.796875 17.574219 46.621094 17.421875 46.621094 17.414062 Z M 50.726562 18.550781 C 50.769531 18.550781 50.953125 18.574219 51.175781 18.625 C 52.597656 18.941406 55.144531 19.425781 56.769531 19.699219 C 57.046875 19.742188 57.261719 19.792969 57.261719 19.808594 C 57.261719 19.828125 57.164062 19.882812 57.039062 19.953125 C 56.761719 20.09375 55.652344 20.753906 55.285156 21.003906 C 54.359375 21.621094 53.523438 22.289062 52.921875 22.890625 C 52.679688 23.132812 52.472656 23.332031 52.472656 23.332031 C 52.472656 23.332031 52.421875 23.191406 52.378906 23.015625 C 52.078125 21.855469 51.453125 20.136719 50.886719 18.925781 C 50.792969 18.734375 50.71875 18.558594 50.71875 18.539062 C 50.71875 18.558594 50.71875 18.550781 50.726562 18.550781 Z M 57.957031 19.925781 C 58.003906 19.941406 58.089844 20.226562 58.257812 20.851562 C 58.566406 22.0625 58.707031 23.414062 58.65625 24.675781 C 58.640625 25.027344 58.625 25.351562 58.605469 25.394531 L 58.582031 25.476562 L 58.148438 25.335938 C 57.253906 25.050781 55.800781 24.625 54.558594 24.273438 C 53.847656 24.082031 53.273438 23.90625 53.273438 23.890625 C 53.273438 23.839844 54.308594 22.804688 54.75 22.414062 C 55.59375 21.671875 57.878906 19.902344 57.957031 19.925781 Z M 58.53125 20.007812 C 58.558594 19.984375 61.988281 20.578125 63.546875 20.878906 C 64.707031 21.101562 66.394531 21.453125 66.496094 21.496094 C 66.546875 21.511719 66.371094 21.613281 65.808594 21.863281 C 63.605469 22.855469 61.972656 23.75 60.34375 24.835938 C 59.917969 25.117188 59.558594 25.351562 59.550781 25.351562 C 59.542969 25.351562 59.535156 25.109375 59.535156 24.816406 C 59.535156 23.230469 59.214844 21.628906 58.632812 20.277344 C 58.574219 20.144531 58.523438 20.019531 58.53125 20.007812 Z M 67.40625 21.761719 C 67.429688 21.789062 67.320312 22.464844 67.222656 22.863281 C 66.921875 24.109375 66.109375 25.953125 65.117188 27.6875 C 64.941406 28 64.785156 28.25 64.765625 28.257812 C 64.75 28.265625 64.523438 28.140625 64.265625 27.988281 C 63.296875 27.421875 62.195312 26.886719 60.996094 26.386719 C 60.660156 26.246094 60.367188 26.128906 60.359375 26.113281 C 60.300781 26.0625 62.988281 24.285156 64.410156 23.433594 C 65.535156 22.746094 67.371094 21.730469 67.40625 21.761719 Z M 68.039062 21.863281 C 68.113281 21.863281 69.632812 22.28125 70.425781 22.515625 C 72.386719 23.097656 74.640625 23.925781 76.109375 24.59375 L 76.71875 24.867188 L 76.292969 24.96875 C 72.707031 25.792969 69.632812 26.746094 66.671875 27.949219 C 66.429688 28.046875 66.210938 28.132812 66.195312 28.132812 C 66.179688 28.132812 66.261719 27.941406 66.371094 27.707031 C 67.261719 25.8125 67.839844 23.832031 67.980469 22.148438 C 67.988281 21.988281 68.015625 21.863281 68.039062 21.863281 Z M 52.914062 25.335938 C 52.9375 25.308594 54.097656 25.585938 54.726562 25.761719 C 55.675781 26.027344 57.695312 26.703125 57.695312 26.753906 C 57.695312 26.761719 57.472656 26.953125 57.203125 27.1875 C 56.109375 28.097656 55.058594 29.058594 53.796875 30.277344 C 53.421875 30.636719 53.105469 30.929688 53.089844 30.929688 C 53.074219 30.929688 53.0625 30.878906 53.074219 30.8125 C 53.265625 29.410156 53.222656 27.605469 52.957031 25.777344 C 52.929688 25.542969 52.90625 25.34375 52.914062 25.335938 Z M 77.296875 25.359375 C 77.3125 25.378906 76.761719 26.246094 76.410156 26.738281 C 75.910156 27.457031 75.175781 28.40625 73.515625 30.492188 C 72.640625 31.597656 71.652344 32.839844 71.328125 33.257812 C 70.996094 33.675781 70.71875 34.023438 70.710938 34.023438 C 70.703125 34.023438 70.59375 33.875 70.476562 33.691406 C 69.542969 32.289062 68.421875 31.0625 67.097656 29.960938 C 66.84375 29.75 66.570312 29.527344 66.476562 29.457031 C 66.386719 29.390625 66.3125 29.324219 66.3125 29.316406 C 66.3125 29.292969 67.730469 28.683594 68.808594 28.25 C 70.695312 27.480469 73.265625 26.5625 75.191406 25.96875 C 76.203125 25.652344 77.28125 25.34375 77.296875 25.359375 Z M 77.9375 25.527344 C 77.972656 25.519531 78.171875 25.621094 78.414062 25.761719 C 80.445312 26.921875 82.429688 28.414062 84 29.953125 C 84.441406 30.386719 85.535156 31.519531 85.519531 31.527344 C 85.519531 31.527344 85.132812 31.5625 84.683594 31.597656 C 81.167969 31.863281 76.671875 32.605469 72.347656 33.648438 C 72.054688 33.714844 71.796875 33.773438 71.777344 33.773438 C 71.761719 33.773438 72.085938 33.449219 72.496094 33.054688 C 75.035156 30.609375 76.195312 29.066406 77.5625 26.3125 C 77.753906 25.902344 77.921875 25.550781 77.9375 25.527344 C 77.929688 25.527344 77.929688 25.527344 77.9375 25.527344 Z M 59.351562 27.429688 C 59.464844 27.457031 60.550781 27.964844 61.371094 28.375 C 62.121094 28.75 63.246094 29.351562 63.304688 29.402344 C 63.316406 29.410156 62.914062 29.617188 62.421875 29.859375 C 60.851562 30.644531 59.507812 31.386719 58.105469 32.238281 C 57.707031 32.480469 57.371094 32.679688 57.363281 32.679688 C 57.328125 32.679688 57.339844 32.648438 57.5625 32.238281 C 58.316406 30.871094 58.914062 29.234375 59.257812 27.640625 C 59.292969 27.515625 59.324219 27.429688 59.351562 27.429688 Z M 58.265625 27.632812 C 58.289062 27.65625 58.003906 28.683594 57.832031 29.242188 C 57.488281 30.300781 56.914062 31.628906 56.351562 32.632812 C 56.21875 32.863281 56.019531 33.207031 55.910156 33.398438 L 55.703125 33.734375 L 55.234375 33.28125 C 54.691406 32.757812 54.25 32.429688 53.683594 32.136719 C 53.457031 32.023438 53.28125 31.921875 53.28125 31.90625 C 53.28125 31.839844 54.707031 30.542969 55.800781 29.609375 C 56.585938 28.933594 58.238281 27.605469 58.265625 27.632812 Z M 64.902344 30.359375 L 65.308594 30.628906 C 66.246094 31.238281 67.347656 32.046875 68.191406 32.757812 C 68.664062 33.148438 69.582031 33.976562 69.765625 34.175781 L 69.867188 34.285156 L 69.191406 34.476562 C 65.367188 35.535156 62.414062 36.480469 58.964844 37.746094 C 58.582031 37.890625 58.257812 38.007812 58.230469 38.007812 C 58.179688 38.007812 58.140625 38.046875 59 37.253906 C 61.203125 35.226562 63.15625 32.988281 64.609375 30.8125 Z M 63.15625 30.792969 C 63.171875 30.8125 62.027344 32.421875 61.34375 33.332031 C 60.527344 34.417969 59.074219 36.238281 58.074219 37.421875 C 57.65625 37.914062 57.296875 38.324219 57.28125 38.332031 C 57.253906 38.339844 57.246094 38.214844 57.246094 38.023438 C 57.246094 37.011719 56.988281 35.9375 56.535156 35.019531 C 56.34375 34.632812 56.3125 34.542969 56.351562 34.5 C 56.511719 34.359375 58.941406 32.972656 60.476562 32.148438 C 61.511719 31.597656 63.132812 30.777344 63.15625 30.792969 Z M 52.605469 33.382812 C 52.628906 33.382812 52.820312 33.480469 53.039062 33.597656 C 53.574219 33.890625 54.050781 34.21875 54.476562 34.566406 C 54.492188 34.585938 54.273438 34.757812 53.992188 34.96875 C 53.199219 35.535156 51.996094 36.445312 51.292969 37.003906 C 50.558594 37.589844 50.535156 37.605469 50.617188 37.480469 C 51.167969 36.636719 51.445312 36.160156 51.738281 35.550781 C 51.996094 35.011719 52.253906 34.367188 52.4375 33.808594 C 52.503906 33.566406 52.589844 33.382812 52.605469 33.382812 Z M 55.417969 35.585938 C 55.460938 35.578125 55.511719 35.652344 55.734375 35.988281 C 56.210938 36.695312 56.578125 37.648438 56.671875 38.414062 L 56.6875 38.582031 L 55.542969 39.023438 C 53.5 39.816406 51.613281 40.601562 50.335938 41.1875 C 49.976562 41.355469 49.351562 41.65625 48.941406 41.855469 C 48.53125 42.0625 48.199219 42.222656 48.199219 42.214844 C 48.199219 42.207031 48.457031 42.011719 48.773438 41.78125 C 51.269531 39.96875 53.429688 37.980469 55.050781 35.996094 C 55.226562 35.785156 55.386719 35.59375 55.402344 35.585938 Z M 54.125 35.902344 C 54.15625 35.9375 53.207031 37.011719 52.554688 37.671875 C 50.945312 39.316406 49.351562 40.601562 47.371094 41.855469 C 47.121094 42.011719 46.894531 42.15625 46.871094 42.171875 C 46.8125 42.207031 46.886719 42.121094 47.753906 41.179688 C 48.304688 40.585938 48.722656 40.085938 49.199219 39.46875 C 49.515625 39.058594 49.574219 39 50.035156 38.675781 C 51.261719 37.789062 54.089844 35.871094 54.125 35.902344 Z M 54.125 35.902344 "/>
<path style=" stroke:none;fill-rule:nonzero;fill:rgb(13.72549%,12.156863%,12.156863%);fill-opacity:1;" d="M 17.976562 70.46875 C 17.824219 70.46875 17.667969 70.480469 17.515625 70.480469 C 14.40625 70.648438 12.308594 72.015625 11.082031 74.6875 C 10.035156 77.105469 10.148438 80.265625 11.09375 82.699219 C 12.195312 85.074219 13.972656 86.328125 16.941406 86.804688 C 17.570312 86.90625 17.988281 87.25 19.207031 88.671875 L 20.703125 90.425781 L 23.417969 90.425781 L 21.613281 88.605469 C 20.613281 87.605469 19.808594 86.738281 19.808594 86.664062 C 19.808594 86.585938 20.1875 86.417969 20.652344 86.277344 C 22.171875 85.816406 23.4375 84.640625 24.324219 82.839844 C 25.039062 81.390625 25.140625 80.941406 25.242188 79.140625 C 25.511719 73.777344 22.683594 70.425781 17.976562 70.464844 Z M 20.355469 84.488281 C 19.035156 85.128906 17.121094 85.253906 15.867188 84.796875 C 14.574219 84.320312 13.320312 82.976562 12.757812 81.457031 C 12.132812 79.792969 12.222656 76.722656 12.9375 75.339844 C 14.089844 73.140625 15.613281 72.128906 17.835938 72.128906 C 21.136719 72.128906 23.015625 74.152344 23.261719 77.949219 C 23.453125 81.121094 22.390625 83.5 20.359375 84.488281 Z M 67.238281 75.046875 C 66.101562 75.046875 65.230469 75.507812 64.644531 76.414062 L 64.183594 77.132812 L 64.183594 75.265625 L 62.210938 75.265625 L 62.210938 86.472656 L 64.179688 86.472656 L 64.179688 82.890625 C 64.179688 79.613281 64.222656 79.230469 64.679688 78.335938 C 65.3125 77.105469 66.398438 76.492188 67.445312 76.785156 L 68.148438 76.992188 L 68.148438 75.050781 L 67.238281 75.050781 Z M 55.664062 74.945312 C 55.28125 74.945312 54.871094 74.996094 54.460938 75.085938 C 51.828125 75.773438 50.339844 78.296875 50.429688 80.894531 C 50.429688 83.070312 50.851562 84.15625 51.902344 85.296875 C 54.050781 87.058594 55.996094 87.199219 58.617188 86.253906 C 59.066406 86.0625 59.554688 85.84375 59.554688 85.84375 L 59.554688 84.078125 L 58.617188 84.5625 C 56.496094 85.488281 54.898438 85.488281 53.617188 84.398438 C 52.800781 83.566406 52.4375 82.570312 52.273438 81.429688 L 60.21875 81.429688 L 60.21875 79.921875 C 60.21875 76.839844 58.363281 74.894531 55.664062 74.945312 Z M 52.453125 79.859375 C 52.453125 79.859375 52.746094 77.9375 53.835938 77.183594 C 54.359375 76.8125 54.960938 76.632812 55.546875 76.632812 C 56.136719 76.632812 56.726562 76.824219 57.210938 77.195312 C 58.210938 77.964844 58.375 79.84375 58.375 79.84375 L 52.453125 79.84375 Z M 4.953125 77.835938 C 2.820312 76.542969 1.871094 75.609375 1.988281 74.511719 C 2.320312 71.464844 6.082031 71.886719 8.164062 73.039062 L 8.179688 70.992188 C 8.179688 70.992188 7.027344 70.492188 5.375 70.464844 C 2.84375 70.425781 1.207031 71.257812 0.441406 72.949219 C -0.6875 75.441406 0.308594 77.320312 3.917969 79.421875 C 5.941406 80.597656 6.835938 81.621094 6.835938 82.734375 C 6.835938 85.039062 4.058594 85.84375 1.195312 84.398438 C 0.605469 84.105469 0.105469 83.859375 0.078125 83.859375 C -0.0234375 84.511719 0.0273438 86.074219 0.0273438 86.074219 C 0.0273438 86.074219 0.910156 86.445312 2.230469 86.699219 C 5.503906 87.351562 8.484375 85.816406 8.765625 83.320312 C 9.011719 80.980469 8.164062 79.753906 4.953125 77.835938 Z M 84.675781 74.917969 C 84.292969 74.917969 83.886719 74.96875 83.460938 75.058594 C 80.828125 75.75 79.34375 78.273438 79.445312 80.871094 C 79.445312 83.039062 79.867188 84.117188 80.914062 85.257812 C 83.0625 87.019531 85.007812 87.164062 87.644531 86.214844 C 88.089844 86.023438 88.574219 85.808594 88.574219 85.808594 L 88.574219 84.042969 L 87.640625 84.527344 C 85.515625 85.449219 83.914062 85.449219 82.640625 84.359375 C 81.816406 83.53125 81.460938 82.546875 81.296875 81.394531 L 89.226562 81.394531 L 89.226562 79.882812 C 89.226562 76.816406 87.371094 74.871094 84.671875 74.921875 Z M 81.464844 79.832031 C 81.464844 79.832031 81.761719 77.914062 82.847656 77.144531 C 83.371094 76.773438 83.972656 76.59375 84.558594 76.59375 C 85.144531 76.59375 85.738281 76.785156 86.222656 77.15625 C 87.222656 77.925781 87.386719 79.820312 87.386719 79.820312 L 81.464844 79.820312 Z M 45.351562 77.863281 C 43.214844 76.570312 42.269531 75.636719 42.386719 74.535156 C 42.71875 71.488281 46.480469 71.910156 48.5625 73.0625 L 48.578125 71.015625 C 48.578125 71.015625 47.425781 70.515625 45.773438 70.492188 C 43.242188 70.457031 41.605469 71.285156 40.835938 72.976562 C 39.710938 75.46875 40.722656 77.351562 44.316406 79.449219 C 46.339844 80.625 47.234375 81.632812 47.234375 82.75 C 47.234375 85.050781 44.457031 85.867188 41.59375 84.410156 C 41.003906 84.117188 40.507812 83.875 40.476562 83.875 C 40.375 84.527344 40.425781 86.089844 40.425781 86.089844 C 40.425781 86.089844 41.296875 86.445312 42.613281 86.714844 C 45.890625 87.371094 48.871094 85.835938 49.152344 83.339844 C 49.394531 81.011719 48.550781 79.785156 45.351562 77.863281 Z M 96.253906 75.019531 C 95.113281 75.019531 94.234375 75.484375 93.65625 76.390625 L 93.195312 77.105469 L 93.195312 75.242188 L 91.226562 75.242188 L 91.226562 86.445312 L 93.195312 86.445312 L 93.195312 82.863281 C 93.195312 79.589844 93.234375 79.203125 93.695312 78.308594 C 94.324219 77.082031 95.410156 76.46875 96.457031 76.761719 L 97.164062 76.96875 L 97.164062 75.019531 Z M 29.683594 77.796875 L 29.683594 70.660156 L 27.699219 70.660156 L 27.699219 86.46875 L 36.050781 86.46875 L 36.050781 84.601562 L 29.683594 84.601562 Z M 75.621094 80.023438 L 73.984375 84.28125 L 72.410156 80 L 70.808594 75.253906 L 68.777344 75.253906 C 70.09375 78.988281 71.527344 82.785156 72.972656 86.46875 C 73.597656 86.484375 74.226562 86.46875 74.851562 86.46875 L 77.0625 80.917969 L 79.316406 75.253906 L 77.371094 75.253906 C 77.371094 75.253906 76.511719 77.503906 75.617188 80.023438 Z M 34.261719 66.351562 C 34.582031 66.351562 34.847656 66.246094 35.070312 66.027344 C 35.285156 65.808594 35.398438 65.554688 35.398438 65.234375 C 35.398438 64.914062 35.285156 64.648438 35.070312 64.441406 C 34.847656 64.238281 34.59375 64.136719 34.277344 64.136719 C 33.953125 64.136719 33.6875 64.238281 33.46875 64.453125 C 33.25 64.671875 33.148438 64.9375 33.148438 65.246094 C 33.148438 65.570312 33.253906 65.835938 33.46875 66.039062 C 33.675781 66.246094 33.941406 66.347656 34.261719 66.347656 Z M 33.558594 64.53125 C 33.75 64.339844 33.980469 64.253906 34.277344 64.253906 C 34.554688 64.253906 34.785156 64.339844 34.980469 64.53125 C 35.171875 64.722656 35.273438 64.953125 35.273438 65.234375 C 35.273438 65.515625 35.171875 65.761719 34.980469 65.953125 C 34.785156 66.140625 34.554688 66.234375 34.277344 66.234375 C 33.992188 66.234375 33.761719 66.144531 33.570312 65.953125 C 33.382812 65.761719 33.277344 65.515625 33.277344 65.234375 C 33.277344 64.953125 33.367188 64.722656 33.558594 64.53125 Z M 34.03125 65.339844 L 34.160156 65.339844 C 34.25 65.339844 34.339844 65.425781 34.417969 65.59375 L 34.570312 65.941406 L 34.8125 65.941406 L 34.621094 65.554688 C 34.542969 65.402344 34.46875 65.3125 34.378906 65.285156 C 34.492188 65.261719 34.582031 65.222656 34.644531 65.144531 C 34.710938 65.078125 34.734375 64.992188 34.734375 64.890625 C 34.734375 64.773438 34.699219 64.683594 34.621094 64.621094 C 34.53125 64.546875 34.390625 64.507812 34.207031 64.507812 L 33.800781 64.507812 L 33.800781 65.941406 L 34.007812 65.941406 L 34.007812 65.339844 Z M 34.03125 64.671875 L 34.210938 64.671875 C 34.339844 64.671875 34.429688 64.699219 34.480469 64.738281 C 34.527344 64.773438 34.542969 64.824219 34.542969 64.914062 C 34.542969 65.082031 34.4375 65.160156 34.25 65.160156 L 34.027344 65.160156 L 34.027344 64.671875 Z M 1.21875 65.210938 C 1.21875 64.710938 1.207031 64.339844 1.195312 64.121094 L 1.207031 64.121094 C 1.257812 64.378906 1.320312 64.574219 1.371094 64.699219 L 3.277344 68.960938 L 3.597656 68.960938 L 5.503906 64.660156 C 5.554688 64.542969 5.609375 64.367188 5.671875 64.125 L 5.683594 64.125 C 5.648438 64.550781 5.632812 64.917969 5.632812 65.214844 L 5.632812 68.972656 L 6.285156 68.972656 L 6.285156 63.382812 L 5.46875 63.382812 L 3.714844 67.273438 C 3.652344 67.425781 3.5625 67.65625 3.445312 67.960938 L 3.421875 67.960938 C 3.382812 67.808594 3.292969 67.578125 3.164062 67.296875 L 1.453125 63.371094 L 0.582031 63.371094 L 0.582031 68.960938 L 1.210938 68.960938 L 1.210938 65.214844 Z M 7.71875 65.222656 L 8.28125 65.222656 L 8.28125 68.703125 L 7.71875 68.703125 Z M 8 63.945312 C 8.117188 63.945312 8.214844 63.90625 8.292969 63.828125 C 8.371094 63.75 8.421875 63.652344 8.421875 63.535156 C 8.421875 63.417969 8.382812 63.316406 8.292969 63.242188 C 8.214844 63.164062 8.113281 63.121094 7.996094 63.121094 C 7.882812 63.121094 7.78125 63.164062 7.703125 63.242188 C 7.625 63.316406 7.574219 63.417969 7.574219 63.535156 C 7.574219 63.660156 7.613281 63.75 7.703125 63.828125 C 7.792969 63.90625 7.882812 63.945312 7.996094 63.945312 Z M 12.296875 68.777344 L 12.296875 68.164062 C 11.988281 68.394531 11.65625 68.511719 11.316406 68.511719 C 10.902344 68.511719 10.570312 68.371094 10.328125 68.097656 C 10.085938 67.832031 9.957031 67.460938 9.957031 67 C 9.957031 66.515625 10.085938 66.128906 10.351562 65.835938 C 10.609375 65.554688 10.941406 65.414062 11.351562 65.414062 C 11.683594 65.414062 12.003906 65.515625 12.296875 65.722656 L 12.296875 65.070312 C 12.027344 64.929688 11.722656 64.863281 11.375 64.863281 C 10.738281 64.863281 10.238281 65.070312 9.867188 65.464844 C 9.496094 65.863281 9.304688 66.402344 9.304688 67.050781 C 9.304688 67.628906 9.46875 68.113281 9.816406 68.484375 C 10.175781 68.867188 10.632812 69.058594 11.199219 69.058594 C 11.632812 69.046875 11.988281 68.957031 12.296875 68.777344 Z M 13.910156 66.921875 C 13.910156 66.464844 14.011719 66.09375 14.203125 65.835938 C 14.382812 65.605469 14.597656 65.492188 14.855469 65.492188 C 15.074219 65.492188 15.226562 65.53125 15.339844 65.621094 L 15.339844 64.953125 C 15.25 64.914062 15.125 64.902344 14.957031 64.902344 C 14.726562 64.902344 14.523438 64.980469 14.34375 65.121094 C 14.152344 65.273438 14 65.503906 13.910156 65.796875 L 13.894531 65.796875 L 13.894531 64.980469 L 13.257812 64.980469 L 13.257812 68.96875 L 13.898438 68.96875 L 13.898438 66.921875 Z M 17.582031 69.050781 C 18.183594 69.050781 18.667969 68.855469 19.027344 68.472656 C 19.382812 68.089844 19.5625 67.578125 19.5625 66.9375 C 19.5625 66.285156 19.398438 65.785156 19.066406 65.414062 C 18.734375 65.042969 18.273438 64.863281 17.671875 64.863281 C 17.070312 64.863281 16.585938 65.042969 16.226562 65.390625 C 15.839844 65.769531 15.640625 66.308594 15.640625 67 C 15.640625 67.601562 15.804688 68.101562 16.148438 68.472656 C 16.507812 68.855469 16.980469 69.046875 17.582031 69.046875 Z M 16.671875 65.796875 C 16.914062 65.542969 17.234375 65.414062 17.632812 65.414062 C 18.042969 65.414062 18.351562 65.542969 18.578125 65.796875 C 18.808594 66.066406 18.925781 66.449219 18.925781 66.960938 C 18.925781 67.449219 18.820312 67.832031 18.605469 68.089844 C 18.386719 68.355469 18.066406 68.5 17.644531 68.5 C 17.234375 68.5 16.914062 68.355469 16.671875 68.089844 C 16.429688 67.820312 16.3125 67.449219 16.3125 66.960938 C 16.289062 66.476562 16.417969 66.082031 16.671875 65.796875 Z M 22.363281 68.703125 C 22.609375 68.484375 22.738281 68.21875 22.738281 67.882812 C 22.738281 67.589844 22.632812 67.347656 22.445312 67.152344 C 22.289062 67 22.046875 66.859375 21.699219 66.71875 C 21.390625 66.589844 21.199219 66.476562 21.097656 66.386719 C 20.996094 66.285156 20.933594 66.15625 20.933594 65.976562 C 20.933594 65.808594 20.996094 65.683594 21.125 65.582031 C 21.253906 65.476562 21.417969 65.429688 21.636719 65.429688 C 21.980469 65.429688 22.277344 65.519531 22.546875 65.710938 L 22.546875 65.070312 C 22.289062 64.941406 22.007812 64.878906 21.6875 64.878906 C 21.277344 64.878906 20.929688 64.992188 20.675781 65.210938 C 20.40625 65.429688 20.28125 65.710938 20.28125 66.042969 C 20.28125 66.335938 20.367188 66.578125 20.535156 66.757812 C 20.675781 66.910156 20.917969 67.066406 21.25 67.207031 C 21.570312 67.347656 21.789062 67.472656 21.902344 67.578125 C 22.019531 67.679688 22.070312 67.808594 22.070312 67.957031 C 22.070312 68.332031 21.8125 68.523438 21.316406 68.523438 C 20.929688 68.523438 20.585938 68.398438 20.277344 68.140625 L 20.277344 68.832031 C 20.554688 69 20.890625 69.074219 21.261719 69.074219 C 21.734375 69.050781 22.105469 68.933594 22.359375 68.703125 Z M 25.410156 64.863281 C 24.808594 64.863281 24.324219 65.042969 23.964844 65.390625 C 23.582031 65.769531 23.378906 66.308594 23.378906 67 C 23.378906 67.601562 23.542969 68.101562 23.886719 68.472656 C 24.246094 68.855469 24.71875 69.046875 25.320312 69.046875 C 25.9375 69.046875 26.40625 68.855469 26.765625 68.46875 C 27.125 68.089844 27.304688 67.574219 27.304688 66.9375 C 27.304688 66.28125 27.136719 65.785156 26.804688 65.414062 C 26.460938 65.042969 26 64.863281 25.414062 64.863281 Z M 26.652344 66.960938 C 26.652344 67.449219 26.546875 67.832031 26.332031 68.089844 C 26.113281 68.355469 25.792969 68.5 25.371094 68.5 C 24.960938 68.5 24.640625 68.355469 24.398438 68.089844 C 24.15625 67.820312 24.039062 67.449219 24.039062 66.960938 C 24.039062 66.449219 24.167969 66.050781 24.425781 65.785156 C 24.667969 65.53125 24.988281 65.402344 25.382812 65.402344 C 25.78125 65.402344 26.097656 65.53125 26.328125 65.785156 C 26.535156 66.066406 26.648438 66.449219 26.648438 66.960938 Z M 28.378906 68.957031 L 29.015625 68.957031 L 29.015625 65.503906 L 29.953125 65.503906 L 29.953125 64.96875 L 29.015625 64.96875 L 29.015625 64.351562 C 29.015625 63.789062 29.234375 63.507812 29.683594 63.507812 C 29.835938 63.507812 29.988281 63.546875 30.101562 63.613281 L 30.101562 63.035156 C 29.988281 62.984375 29.835938 62.972656 29.640625 62.972656 C 29.296875 62.972656 29.015625 63.074219 28.785156 63.292969 C 28.515625 63.546875 28.375 63.878906 28.375 64.328125 L 28.375 64.980469 L 27.699219 64.980469 L 27.699219 65.519531 L 28.375 65.519531 L 28.375 68.960938 Z M 31 67.871094 C 31 68.652344 31.34375 69.046875 32.050781 69.046875 C 32.304688 69.046875 32.496094 69.007812 32.652344 68.917969 L 32.652344 68.367188 C 32.535156 68.457031 32.394531 68.496094 32.238281 68.496094 C 32.023438 68.496094 31.871094 68.445312 31.78125 68.328125 C 31.691406 68.214844 31.636719 68.019531 31.636719 67.753906 L 31.636719 65.503906 L 32.652344 65.503906 L 32.652344 64.964844 L 31.636719 64.964844 L 31.636719 63.789062 C 31.417969 63.867188 31.203125 63.929688 31 63.996094 L 31 64.964844 L 30.308594 64.964844 L 30.308594 65.503906 L 31 65.503906 Z M 99.65625 75.226562 C 99.441406 75.019531 99.183594 74.917969 98.863281 74.917969 C 98.542969 74.917969 98.273438 75.019531 98.058594 75.242188 C 97.839844 75.457031 97.738281 75.722656 97.738281 76.03125 C 97.738281 76.351562 97.839844 76.621094 98.054688 76.824219 C 98.273438 77.03125 98.539062 77.132812 98.863281 77.132812 C 99.179688 77.132812 99.449219 77.03125 99.671875 76.8125 C 99.886719 76.59375 100 76.339844 100 76.019531 C 99.988281 75.699219 99.871094 75.429688 99.65625 75.226562 Z M 99.554688 76.738281 C 99.363281 76.925781 99.132812 77.015625 98.851562 77.015625 C 98.570312 77.015625 98.339844 76.925781 98.144531 76.738281 C 97.957031 76.542969 97.851562 76.300781 97.851562 76.019531 C 97.851562 75.738281 97.941406 75.507812 98.132812 75.3125 C 98.324219 75.125 98.554688 75.035156 98.851562 75.035156 C 99.128906 75.035156 99.359375 75.125 99.554688 75.3125 C 99.746094 75.507812 99.847656 75.738281 99.847656 76.019531 C 99.847656 76.3125 99.757812 76.542969 99.554688 76.738281 Z M 98.980469 76.085938 C 99.09375 76.058594 99.183594 76.007812 99.246094 75.941406 C 99.3125 75.878906 99.335938 75.789062 99.335938 75.683594 C 99.335938 75.570312 99.300781 75.480469 99.222656 75.417969 C 99.132812 75.34375 98.992188 75.304688 98.8125 75.304688 L 98.402344 75.304688 L 98.402344 76.734375 L 98.609375 76.734375 L 98.609375 76.132812 L 98.734375 76.132812 C 98.824219 76.132812 98.910156 76.222656 98.992188 76.390625 L 99.144531 76.734375 L 99.386719 76.734375 L 99.195312 76.347656 C 99.128906 76.183594 99.054688 76.105469 98.976562 76.082031 Z M 98.839844 75.953125 L 98.617188 75.953125 L 98.617188 75.472656 L 98.796875 75.472656 C 98.925781 75.472656 99.015625 75.496094 99.066406 75.535156 C 99.117188 75.570312 99.128906 75.621094 99.128906 75.714844 C 99.128906 75.878906 99.027344 75.957031 98.835938 75.957031 Z M 63.148438 64.800781 L 63.328125 64.800781 L 63.328125 63.367188 L 63.800781 63.367188 L 63.800781 63.1875 L 62.671875 63.1875 L 62.671875 63.367188 L 63.148438 63.367188 Z M 64.234375 63.722656 C 64.234375 63.585938 64.234375 63.46875 64.222656 63.40625 C 64.234375 63.480469 64.261719 63.535156 64.273438 63.570312 L 64.824219 64.800781 L 64.910156 64.800781 L 65.460938 63.558594 C 65.476562 63.523438 65.488281 63.472656 65.511719 63.40625 C 65.5 63.535156 65.5 63.636719 65.5 63.714844 L 65.5 64.800781 L 65.691406 64.800781 L 65.691406 63.1875 L 65.460938 63.1875 L 64.964844 64.300781 C 64.953125 64.339844 64.910156 64.417969 64.886719 64.507812 L 64.871094 64.507812 C 64.863281 64.453125 64.835938 64.402344 64.800781 64.316406 L 64.300781 63.1875 L 64.042969 63.1875 L 64.042969 64.804688 L 64.222656 64.804688 L 64.222656 63.726562 Z M 64.234375 63.722656 "/>
</g>
</svg>
