<?xml version="1.0" encoding="UTF-8"?>
<svg xmlns="http://www.w3.org/2000/svg" xmlns:xlink="http://www.w3.org/1999/xlink" width="100px" height="px" viewBox="0 0 100 100" version="1.1">
<g id="surface1">
<path style=" stroke:none;fill-rule:nonzero;fill:rgb(0%,32.941176%,41.960784%);fill-opacity:1;" d="M 92.050781 76.644531 C 86.613281 76.507812 82.398438 77.054688 78.867188 78.546875 C 77.847656 78.957031 76.214844 78.957031 76.078125 80.246094 C 76.621094 80.792969 76.691406 81.675781 77.167969 82.421875 C 77.984375 83.78125 79.410156 85.617188 80.699219 86.566406 C 82.128906 87.65625 83.554688 88.742188 85.050781 89.695312 C 87.699219 91.324219 90.691406 92.277344 93.273438 93.90625 C 94.769531 94.859375 96.261719 96.082031 97.757812 97.101562 C 98.507812 97.644531 98.980469 98.527344 99.933594 98.867188 L 99.933594 98.664062 C 99.457031 98.054688 99.320312 97.167969 98.847656 96.492188 C 98.167969 95.8125 97.488281 95.199219 96.808594 94.519531 C 94.835938 91.867188 92.390625 89.558594 89.738281 87.65625 C 87.566406 86.160156 82.808594 84.121094 81.921875 81.605469 C 81.921875 81.605469 81.855469 81.539062 81.789062 81.472656 C 83.28125 81.335938 85.050781 80.792969 86.476562 80.382812 C 88.789062 79.773438 90.894531 79.90625 93.273438 79.296875 C 94.359375 79.023438 95.449219 78.683594 96.535156 78.34375 L 96.535156 77.734375 C 95.3125 76.507812 94.429688 74.878906 93.136719 73.722656 C 89.671875 70.734375 85.867188 67.8125 81.921875 65.363281 C 79.816406 64.003906 77.097656 63.121094 74.855469 61.964844 C 74.039062 61.558594 72.679688 61.355469 72.207031 60.675781 C 70.980469 59.179688 70.300781 57.207031 69.417969 55.441406 C 67.449219 51.703125 65.542969 47.558594 63.847656 43.617188 C 62.625 40.964844 61.875 38.316406 60.378906 35.867188 C 53.378906 24.316406 45.769531 17.316406 34.078125 10.453125 C 31.5625 9.023438 28.574219 8.414062 25.378906 7.664062 C 23.679688 7.597656 21.980469 7.460938 20.28125 7.394531 C 19.195312 6.917969 18.109375 5.625 17.15625 5.015625 C 13.285156 2.566406 3.292969 -2.734375 0.4375 4.265625 C -1.398438 8.683594 3.15625 13.035156 4.71875 15.277344 C 5.875 16.839844 7.371094 18.605469 8.1875 20.375 C 8.660156 21.527344 8.796875 22.753906 9.273438 23.976562 C 10.359375 26.964844 11.378906 30.296875 12.808594 33.082031 C 13.554688 34.507812 14.371094 36.003906 15.320312 37.296875 C 15.867188 38.042969 16.816406 38.382812 17.019531 39.605469 C 16.070312 40.964844 16 43.003906 15.457031 44.703125 C 13.011719 52.382812 13.960938 61.898438 17.429688 67.539062 C 18.515625 69.238281 21.097656 72.976562 24.566406 71.546875 C 27.621094 70.324219 26.941406 66.453125 27.828125 63.054688 C 28.03125 62.238281 27.894531 61.695312 28.300781 61.152344 C 28.300781 61.21875 28.300781 61.285156 28.300781 61.285156 C 29.253906 63.1875 30.207031 65.023438 31.089844 66.925781 C 33.195312 70.257812 36.867188 73.722656 39.921875 76.035156 C 41.554688 77.257812 42.847656 79.363281 44.886719 80.113281 L 44.886719 79.90625 L 44.75 79.90625 C 44.339844 79.296875 43.730469 79.023438 43.1875 78.546875 C 41.960938 77.324219 40.601562 75.828125 39.652344 74.472656 C 36.796875 70.664062 34.28125 66.453125 32.039062 62.101562 C 30.953125 59.996094 30 57.683594 29.117188 55.578125 C 28.710938 54.761719 28.710938 53.539062 28.03125 53.132812 C 27.011719 54.625 25.515625 55.917969 24.769531 57.753906 C 23.476562 60.675781 23.339844 64.277344 22.867188 68.015625 C 22.59375 68.082031 22.730469 68.015625 22.59375 68.152344 C 20.417969 67.605469 19.671875 65.363281 18.855469 63.460938 C 16.816406 58.636719 16.476562 50.886719 18.246094 45.316406 C 18.71875 43.886719 20.757812 39.402344 19.941406 38.042969 C 19.535156 36.753906 18.175781 36.003906 17.429688 34.984375 C 16.546875 33.695312 15.59375 32.0625 14.980469 30.636719 C 13.351562 26.832031 12.535156 22.617188 10.769531 18.808594 C 9.953125 17.042969 8.527344 15.207031 7.371094 13.578125 C 6.078125 11.742188 4.652344 10.453125 3.632812 8.277344 C 3.292969 7.527344 2.816406 6.304688 3.359375 5.492188 C 3.496094 4.945312 3.769531 4.742188 4.3125 4.605469 C 5.195312 3.859375 7.710938 4.8125 8.59375 5.21875 C 11.109375 6.238281 13.214844 7.1875 15.320312 8.617188 C 16.273438 9.296875 17.292969 10.585938 18.515625 10.925781 L 19.941406 10.925781 C 22.117188 11.402344 24.5625 11.0625 26.601562 11.675781 C 30.207031 12.828125 33.46875 14.527344 36.390625 16.363281 C 45.292969 22.003906 52.632812 30.023438 57.59375 39.605469 C 58.410156 41.167969 58.75 42.597656 59.496094 44.226562 C 60.925781 47.558594 62.691406 50.957031 64.117188 54.21875 C 65.542969 57.414062 66.902344 60.675781 68.941406 63.324219 C 69.960938 64.753906 74.039062 65.5 75.875 66.246094 C 77.234375 66.859375 79.339844 67.402344 80.566406 68.152344 C 82.875 69.578125 85.1875 71.207031 87.359375 72.773438 C 88.449219 73.585938 91.847656 75.285156 92.050781 76.644531 Z M 92.050781 76.644531 "/>
<path style=" stroke:none;fill-rule:nonzero;fill:rgb(0%,32.941176%,41.960784%);fill-opacity:1;" d="M 22.730469 17.585938 C 21.574219 17.585938 20.757812 17.722656 19.941406 17.925781 C 19.941406 17.925781 19.941406 17.996094 19.941406 18.0625 L 20.078125 18.0625 C 20.621094 19.148438 21.574219 19.898438 22.253906 20.847656 C 22.796875 21.9375 23.273438 23.023438 23.816406 24.113281 C 23.882812 24.042969 23.953125 23.976562 23.953125 23.976562 C 24.90625 23.296875 25.378906 22.207031 25.378906 20.578125 C 24.972656 20.101562 24.902344 19.625 24.5625 19.148438 C 24.15625 18.46875 23.273438 18.128906 22.730469 17.585938 Z M 22.730469 17.585938 "/>
</g>
</svg>
