<?xml version="1.0" encoding="UTF-8"?>
<svg xmlns="http://www.w3.org/2000/svg" xmlns:xlink="http://www.w3.org/1999/xlink" width="100px" height="px" viewBox="0 0 100 100" version="1.1">
<g id="surface1">
<path style=" stroke:none;fill-rule:nonzero;fill:rgb(0%,0%,0%);fill-opacity:1;" d="M 70.507812 0 L 81.4375 0 L 81.4375 75.433594 L 70.507812 75.433594 Z M 53.316406 53.917969 L 64.246094 53.917969 L 64.246094 64.625 L 53.316406 64.625 Z M 53.316406 24.597656 L 64.246094 24.597656 L 64.246094 47.289062 L 53.316406 47.289062 Z M 53.316406 71.25 L 64.246094 71.25 L 64.246094 93.941406 L 53.316406 93.941406 Z M 18.566406 24.566406 L 29.492188 24.566406 L 29.492188 100 L 18.5625 100 Z M 36.121094 35.230469 L 47.050781 35.230469 L 47.050781 45.9375 L 36.125 45.9375 Z M 36.121094 52.523438 L 47.050781 52.523438 L 47.050781 75.222656 L 36.125 75.222656 Z M 36.121094 5.914062 L 47.050781 5.914062 L 47.050781 28.605469 L 36.125 28.605469 Z M 36.121094 5.914062 "/>
</g>
</svg>
