<?xml version="1.0" encoding="UTF-8"?>
<svg xmlns="http://www.w3.org/2000/svg" xmlns:xlink="http://www.w3.org/1999/xlink" width="100px" height="px" viewBox="0 0 100 100" version="1.1">
<defs>
<linearGradient id="linear0" gradientUnits="userSpaceOnUse" x1="12.4809" y1="2" x2="12.4809" y2="22.7407" gradientTransform="matrix(3.125,0,0,3.125,0,0)">
<stop offset="0" style="stop-color:rgb(19.607843%,49.411765%,74.117647%);stop-opacity:1;"/>
<stop offset="1" style="stop-color:rgb(8.235294%,39.607843%,65.490196%);stop-opacity:1;"/>
</linearGradient>
<linearGradient id="linear1" gradientUnits="userSpaceOnUse" x1="19.519" y1="9.25928" x2="19.519" y2="30" gradientTransform="matrix(3.125,0,0,3.125,0,0)">
<stop offset="0" style="stop-color:rgb(100%,85.490196%,29.411765%);stop-opacity:1;"/>
<stop offset="1" style="stop-color:rgb(97.647059%,77.647059%,0%);stop-opacity:1;"/>
</linearGradient>
</defs>
<g id="surface1">
<path style=" stroke:none;fill-rule:evenodd;fill:url(#linear0);" d="M 40.675781 6.25 C 33.808594 6.25 28.246094 11.640625 28.246094 18.285156 L 28.246094 26.621094 L 49.761719 26.621094 L 49.761719 28.933594 L 18.683594 28.933594 C 11.816406 28.933594 6.25 34.324219 6.25 40.972656 L 6.25 59.027344 C 6.25 65.675781 11.816406 71.066406 18.683594 71.066406 L 25.855469 71.066406 L 25.855469 60.878906 C 25.855469 54.230469 31.417969 48.84375 38.285156 48.84375 L 61.234375 48.84375 C 67.046875 48.84375 71.753906 44.28125 71.753906 38.65625 L 71.753906 18.285156 C 71.753906 11.640625 66.191406 6.25 59.324219 6.25 Z M 37.808594 21.066406 C 40.183594 21.066406 42.109375 19.199219 42.109375 16.898438 C 42.109375 14.597656 40.183594 12.730469 37.808594 12.730469 C 35.429688 12.730469 33.503906 14.597656 33.503906 16.898438 C 33.503906 19.199219 35.429688 21.066406 37.808594 21.066406 Z M 37.808594 21.066406 "/>
<path style=" stroke:none;fill-rule:evenodd;fill:url(#linear1);" d="M 59.324219 93.75 C 66.1875 93.75 71.753906 88.359375 71.753906 81.714844 L 71.753906 73.378906 L 50.238281 73.378906 L 50.238281 71.066406 L 81.316406 71.066406 C 88.183594 71.066406 93.75 65.675781 93.75 59.027344 L 93.75 40.972656 C 93.75 34.324219 88.183594 28.933594 81.316406 28.933594 L 74.144531 28.933594 L 74.144531 39.121094 C 74.144531 45.769531 68.578125 51.15625 61.714844 51.15625 L 38.761719 51.15625 C 32.953125 51.15625 28.242188 55.71875 28.242188 61.34375 L 28.242188 81.714844 C 28.242188 88.359375 33.808594 93.75 40.675781 93.75 Z M 62.191406 78.933594 C 59.816406 78.933594 57.890625 80.800781 57.890625 83.101562 C 57.890625 85.402344 59.816406 87.269531 62.191406 87.269531 C 64.570312 87.269531 66.496094 85.402344 66.496094 83.101562 C 66.496094 80.800781 64.570312 78.933594 62.191406 78.933594 Z M 62.191406 78.933594 "/>
</g>
</svg>
