<?xml version="1.0" encoding="UTF-8"?>
<svg xmlns="http://www.w3.org/2000/svg" xmlns:xlink="http://www.w3.org/1999/xlink" width="100px" height="px" viewBox="0 0 100 100" version="1.1">
<g id="surface1">
<path style=" stroke:none;fill-rule:nonzero;fill:rgb(100%,100%,100%);fill-opacity:1;" d="M 50.34375 0.90625 C 24.308594 0.90625 3.203125 22.007812 3.203125 48.042969 C 3.203125 74.074219 24.308594 95.179688 50.34375 95.179688 C 76.140625 95.179688 97.148438 74.4375 97.476562 48.640625 L 97.480469 48.042969 L 97.476562 47.445312 C 97.148438 21.644531 76.140625 0.90625 50.34375 0.90625 Z M 50.34375 0.90625 "/>
<path style="fill-rule:nonzero;fill:rgb(68.627451%,85.490196%,82.352941%);fill-opacity:1;stroke-width:0.25;stroke-linecap:butt;stroke-linejoin:miter;stroke:rgb(100%,100%,100%);stroke-opacity:1;stroke-miterlimit:4;" d="M 100.426356 73.978508 C 103.082101 73.978508 105.231497 71.829112 105.231497 69.173367 C 105.231497 66.527956 103.082101 64.37856 100.426356 64.37856 C 97.770611 64.37856 95.621215 66.527956 95.621215 69.173367 C 95.621215 71.829112 97.770611 73.978508 100.426356 73.978508 Z M 90.082385 81.222388 C 92.655461 81.222388 94.732522 79.134993 94.732522 76.572251 C 94.732522 73.999176 92.655461 71.922115 90.082385 71.922115 C 87.519643 71.922115 85.432249 73.999176 85.432249 76.572251 C 85.432249 79.134993 87.519643 81.222388 90.082385 81.222388 Z M 80.131093 85.83119 C 81.712139 85.851858 83.189849 85.025167 83.985539 83.661127 C 84.781229 82.297086 84.781229 80.60237 83.985539 79.23833 C 83.189849 77.87429 81.712139 77.047599 80.131093 77.068266 C 77.713022 77.068266 75.759964 79.031657 75.759964 81.449728 C 75.759964 83.867799 77.713022 85.83119 80.131093 85.83119 Z M 109.147946 68.264007 C 110.935665 68.284674 112.599381 67.344313 113.498407 65.804601 C 114.397433 64.26489 114.397433 62.3635 113.498407 60.823788 C 112.599381 59.284076 110.935665 58.343715 109.147946 58.364383 C 106.4612 58.426385 104.30147 60.617116 104.30147 63.314195 C 104.30147 66.000941 106.4612 68.202005 109.147946 68.253673 Z M 72.670207 75.445885 C 74.509594 75.445885 75.997638 73.957841 75.997638 72.118454 C 75.997638 70.2894 74.509594 68.801356 72.670207 68.801356 C 70.830819 68.801356 69.342775 70.2894 69.342775 72.118454 C 69.342775 73.957841 70.830819 75.445885 72.670207 75.445885 Z M 64.465299 93.653754 C 66.645696 93.653754 68.412748 91.876368 68.412748 89.695971 C 68.412748 87.515573 66.645696 85.748521 64.465299 85.748521 C 62.284901 85.748521 60.517849 87.515573 60.517849 89.695971 C 60.517849 91.876368 62.284901 93.653754 64.465299 93.653754 Z M 69.487446 62.384168 C 72.11219 62.384168 74.240919 60.255438 74.240919 57.630694 C 74.240919 55.005951 72.11219 52.877221 69.487446 52.877221 C 66.862703 52.877221 64.733973 55.005951 64.733973 57.630694 C 64.733973 60.255438 66.862703 62.384168 69.487446 62.384168 Z M 82.321824 71.291763 C 83.654863 71.322764 84.905233 70.63041 85.587253 69.473043 C 86.258939 68.326009 86.258939 66.899967 85.587253 65.7426 C 84.905233 64.595566 83.654863 63.903212 82.321824 63.934213 C 80.327432 63.975548 78.725718 65.608262 78.725718 67.612988 C 78.725718 69.60738 80.327432 71.240095 82.321824 71.291763 Z M 145.770356 60.307107 C 148.147092 60.307107 150.069149 58.38505 150.069149 56.008313 C 150.069149 53.631577 148.147092 51.70952 145.770356 51.70952 C 143.393619 51.70952 141.461229 53.631577 141.461229 56.008313 C 141.461229 58.38505 143.393619 60.307107 145.770356 60.307107 Z M 55.537036 83.113444 C 56.973412 83.113444 58.141113 81.945743 58.141113 80.509367 C 58.141113 79.062658 56.973412 77.894957 55.537036 77.894957 C 54.090327 77.894957 52.922626 79.062658 52.922626 80.509367 C 52.922626 81.945743 54.090327 83.113444 55.537036 83.113444 Z M 64.196624 80.664372 C 65.322991 80.685039 66.377022 80.106355 66.945372 79.134993 C 67.513722 78.163632 67.513722 76.96493 66.945372 75.993568 C 66.377022 75.022206 65.322991 74.443522 64.196624 74.474523 C 62.512241 74.505524 61.158535 75.879898 61.158535 77.564281 C 61.158535 79.258997 62.512241 80.633371 64.196624 80.664372 Z M 48.396493 70.85775 C 49.884537 70.878417 51.25891 70.103395 52.002932 68.822024 C 52.757288 67.540653 52.757288 65.959606 52.002932 64.678235 C 51.25891 63.407198 49.884537 62.621841 48.396493 62.652842 C 46.154094 62.683843 44.356041 64.512897 44.356041 66.755296 C 44.356041 68.997695 46.154094 70.816416 48.396493 70.85775 Z M 64.537634 69.049364 C 65.312657 69.059697 66.036012 68.656685 66.42869 67.995333 C 66.821368 67.323646 66.821368 66.496955 66.42869 65.825269 C 66.036012 65.153582 65.312657 64.75057 64.537634 64.771238 C 63.380267 64.791905 62.450239 65.7426 62.450239 66.910301 C 62.450239 68.067668 63.380267 69.018363 64.537634 69.049364 Z M 93.172143 65.711599 C 95.383541 65.711599 97.17126 63.92388 97.17126 61.722815 C 97.17126 59.511416 95.383541 57.723697 93.172143 57.723697 C 90.971078 57.723697 89.183359 59.511416 89.183359 61.722815 C 89.183359 63.92388 90.971078 65.711599 93.172143 65.711599 Z M 123.501368 68.026333 C 124.751738 68.047001 125.909105 67.395982 126.539457 66.321283 C 127.169809 65.246585 127.169809 63.913546 126.539457 62.838848 C 125.909105 61.764149 124.751738 61.11313 123.501368 61.133797 C 121.63098 61.175132 120.142936 62.70451 120.142936 64.574899 C 120.142936 66.445287 121.63098 67.974665 123.501368 68.026333 Z M 129.81522 46.522035 C 131.055257 46.522035 132.067953 45.519672 132.067953 44.269302 C 132.067953 43.029265 131.055257 42.016569 129.81522 42.016569 C 128.56485 42.016569 127.552154 43.029265 127.552154 44.269302 C 127.552154 45.519672 128.56485 46.522035 129.81522 46.522035 Z M 137.141769 59.511416 C 139.229164 59.511416 140.913546 57.8167 140.913546 55.739639 C 140.913546 53.662578 139.229164 51.967861 137.141769 51.967861 C 135.064708 51.967861 133.369991 53.662578 133.369991 55.739639 C 133.369991 57.8167 135.064708 59.511416 137.141769 59.511416 Z M 99.496329 57.310352 C 101.635392 57.310352 103.371443 55.574301 103.371443 53.435238 C 103.371443 51.296175 101.635392 49.570457 99.496329 49.570457 C 97.357266 49.570457 95.631548 51.296175 95.631548 53.435238 C 95.631548 55.574301 97.357266 57.310352 99.496329 57.310352 Z M 51.000569 94.521779 C 52.73662 94.521779 54.141995 93.116405 54.141995 91.380353 C 54.141995 89.644302 52.73662 88.238928 51.000569 88.238928 C 49.264518 88.238928 47.859144 89.644302 47.859144 91.380353 C 47.859144 93.116405 49.264518 94.521779 51.000569 94.521779 Z M 51.000569 94.521779 " transform="matrix(0.378013,0,0,0.378013,1.615649,0)"/>
<path style="fill-rule:nonzero;fill:rgb(68.627451%,85.490196%,82.352941%);fill-opacity:1;stroke-width:0.25;stroke-linecap:butt;stroke-linejoin:miter;stroke:rgb(100%,100%,100%);stroke-opacity:1;stroke-miterlimit:4;" d="M 154.481612 61.133797 C 157.127023 61.133797 159.266086 58.994735 159.266086 56.349323 C 159.266086 53.703912 157.127023 51.564849 154.481612 51.564849 C 151.836201 51.564849 149.697138 53.703912 149.697138 56.349323 C 149.697138 58.994735 151.836201 61.133797 154.481612 61.133797 Z M 108.310921 57.889035 C 110.739326 57.889035 112.702717 55.925644 112.702717 53.49724 C 112.702717 51.068835 110.739326 49.105444 108.310921 49.105444 C 105.882516 49.105444 103.919125 51.068835 103.919125 53.49724 C 103.919125 55.925644 105.882516 57.889035 108.310921 57.889035 Z M 57.283421 61.433473 C 59.52582 61.433473 61.354874 59.604419 61.354874 57.36202 C 61.354874 55.109287 59.52582 53.290567 57.283421 53.290567 C 55.030688 53.290567 53.211968 55.109287 53.211968 57.36202 C 53.211968 59.604419 55.030688 61.433473 57.283421 61.433473 Z M 79.945087 50.91383 C 82.53883 50.91383 84.646892 48.805768 84.646892 46.212025 C 84.646892 43.607949 82.53883 41.499887 79.945087 41.499887 C 77.341011 41.499887 75.232949 43.607949 75.232949 46.212025 C 75.232949 48.805768 77.341011 50.91383 79.945087 50.91383 Z M 168.266684 57.258684 C 169.868398 57.258684 171.170436 55.956645 171.170436 54.354932 C 171.170436 52.742884 169.868398 51.440846 168.266684 51.440846 C 166.66497 51.440846 165.362932 52.742884 165.362932 54.354932 C 165.362932 55.956645 166.66497 57.258684 168.266684 57.258684 Z M 66.976373 45.385334 C 68.309412 45.406002 69.559782 44.703314 70.231468 43.545947 C 70.903155 42.398913 70.903155 40.972871 70.231468 39.815504 C 69.559782 38.658137 68.309412 37.965783 66.976373 37.98645 C 64.961313 38.017451 63.338932 39.660499 63.338932 41.685892 C 63.338932 43.700952 64.961313 45.354334 66.976373 45.385334 Z M 83.654863 61.950155 C 85.401248 61.950155 86.806622 60.54478 86.806622 58.798395 C 86.806622 57.062344 85.401248 55.65697 83.654863 55.65697 C 81.918812 55.65697 80.513437 57.062344 80.513437 58.798395 C 80.513437 60.54478 81.918812 61.950155 83.654863 61.950155 Z M 91.198418 55.119621 C 92.355785 55.140288 93.430484 54.530603 94.019501 53.538574 C 94.598185 52.536211 94.598185 51.306509 94.019501 50.304146 C 93.430484 49.301783 92.355785 48.702432 91.198418 48.723099 C 89.452033 48.7541 88.056992 50.169808 88.056992 51.916193 C 88.056992 53.662578 89.452033 55.08862 91.198418 55.119621 Z M 41.803632 63.241859 C 43.581018 63.241859 45.017394 61.805484 45.017394 60.028098 C 45.017394 58.240379 43.581018 56.804004 41.803632 56.804004 C 40.026247 56.804004 38.579538 58.240379 38.579538 60.028098 C 38.579538 61.805484 40.026247 63.241859 41.803632 63.241859 Z M 50.669893 50.717491 C 52.302608 50.717491 53.625313 49.394786 53.625313 47.772405 C 53.625313 46.13969 52.302608 44.816984 50.669893 44.816984 C 49.037178 44.816984 47.714473 46.13969 47.714473 47.772405 C 47.714473 49.394786 49.037178 50.717491 50.669893 50.717491 Z M 118.82023 59.893761 C 120.194604 59.893761 121.300303 58.788062 121.300303 57.413688 C 121.300303 56.049648 120.194604 54.943949 118.82023 54.943949 C 117.45619 54.943949 116.350491 56.049648 116.350491 57.413688 C 116.350491 58.788062 117.45619 59.893761 118.82023 59.893761 Z M 39.530232 79.548339 C 41.793299 79.548339 43.622353 77.708952 43.622353 75.456219 C 43.622353 73.193152 41.793299 71.364098 39.530232 71.364098 C 37.267166 71.364098 35.438112 73.193152 35.438112 75.456219 C 35.438112 77.708952 37.267166 79.548339 39.530232 79.548339 Z M 30.384963 72.645469 C 31.500996 72.666137 32.53436 72.077119 33.10271 71.126425 C 33.660726 70.165396 33.660726 68.977028 33.10271 68.016 C 32.53436 67.054972 31.500996 66.465954 30.384963 66.486622 C 28.710914 66.517622 27.367541 67.891996 27.367541 69.566045 C 27.367541 71.240095 28.710914 72.614468 30.384963 72.645469 Z M 127.273145 59.170406 C 128.978196 59.170406 130.362903 57.785699 130.362903 56.080649 C 130.362903 54.365265 128.978196 52.980558 127.273145 52.980558 C 125.557762 52.980558 124.173054 54.365265 124.173054 56.080649 C 124.173054 57.785699 125.557762 59.170406 127.273145 59.170406 Z M 56.91141 75.239212 C 59.546487 75.239212 61.68555 73.110483 61.68555 70.475405 C 61.68555 67.840328 59.546487 65.701265 56.91141 65.701265 C 54.276332 65.701265 52.147603 67.840328 52.147603 70.475405 C 52.147603 73.110483 54.276332 75.239212 56.91141 75.239212 Z M 56.91141 75.239212 " transform="matrix(0.378013,0,0,0.378013,1.615649,0)"/>
<path style="fill-rule:nonzero;fill:rgb(68.627451%,85.490196%,82.352941%);fill-opacity:1;stroke-width:0.25;stroke-linecap:butt;stroke-linejoin:miter;stroke:rgb(100%,100%,100%);stroke-opacity:1;stroke-miterlimit:4;" d="M 162.014834 53.548908 C 163.730217 53.579909 165.342265 52.670549 166.21029 51.182505 C 167.078316 49.694461 167.078316 47.84474 166.21029 46.356696 C 165.342265 44.868653 163.730217 43.959293 162.014834 43.990293 C 159.400423 44.021294 157.292361 46.150024 157.292361 48.764434 C 157.292361 51.389178 159.400423 53.517907 162.014834 53.548908 Z M 42.061973 98.6139 C 43.601685 98.6139 44.841722 97.373863 44.841722 95.844485 C 44.841722 94.304773 43.601685 93.064736 42.061973 93.064736 C 40.532595 93.064736 39.292559 94.304773 39.292559 95.844485 C 39.292559 97.373863 40.532595 98.6139 42.061973 98.6139 Z M 111.411012 44.465641 C 112.785386 44.496642 114.066757 43.773287 114.759111 42.584919 C 115.461798 41.386217 115.461798 39.91884 114.759111 38.730472 C 114.066757 37.542104 112.785386 36.818749 111.411012 36.839417 C 109.323618 36.870417 107.649568 38.565134 107.649568 40.652529 C 107.649568 42.739923 109.323618 44.43464 111.411012 44.465641 Z M 190.70101 49.725462 C 192.850407 49.725462 194.596792 47.979077 194.596792 45.829681 C 194.596792 43.669951 192.850407 41.923566 190.70101 41.923566 C 188.551614 41.923566 186.805229 43.669951 186.805229 45.829681 C 186.805229 47.979077 188.551614 49.725462 190.70101 49.725462 Z M 138.836485 47.741404 C 140.551869 47.741404 141.94691 46.346363 141.94691 44.630979 C 141.94691 42.915595 140.551869 41.530888 138.836485 41.530888 C 137.121102 41.530888 135.736394 42.915595 135.736394 44.630979 C 135.736394 46.346363 137.121102 47.741404 138.836485 47.741404 Z M 71.161496 88.693608 C 73.393561 88.693608 75.201948 86.885221 75.201948 84.642822 C 75.201948 82.410756 73.393561 80.60237 71.161496 80.60237 C 68.919096 80.60237 67.11071 82.410756 67.11071 84.642822 C 67.11071 86.885221 68.919096 88.693608 71.161496 88.693608 Z M 149.366462 49.074443 C 151.505525 49.074443 153.241576 47.338392 153.241576 45.199329 C 153.241576 43.060266 151.505525 41.324215 149.366462 41.324215 C 147.227399 41.324215 145.491348 43.060266 145.491348 45.199329 C 145.491348 47.338392 147.227399 49.074443 149.366462 49.074443 Z M 176.802268 52.856554 C 178.579654 52.856554 180.01603 51.420179 180.01603 49.642793 C 180.01603 47.865407 178.579654 46.429032 176.802268 46.429032 C 175.035216 46.429032 173.588507 47.865407 173.588507 49.642793 C 173.588507 51.420179 175.035216 52.856554 176.802268 52.856554 Z M 207.12116 59.811092 C 208.71254 59.811092 210.014578 58.519387 210.014578 56.917674 C 210.014578 55.31596 208.71254 54.024255 207.12116 54.024255 C 205.519446 54.024255 204.227741 55.31596 204.227741 56.917674 C 204.227741 58.519387 205.519446 59.811092 207.12116 59.811092 Z M 98.803975 38.544467 C 100.178349 38.544467 101.294382 37.428434 101.294382 36.05406 C 101.294382 34.669353 100.178349 33.55332 98.803975 33.55332 C 97.419268 33.55332 96.303235 34.669353 96.303235 36.05406 C 96.303235 37.428434 97.419268 38.544467 98.803975 38.544467 Z M 121.486309 31.693265 C 123.501368 31.693265 125.134083 30.060551 125.134083 28.045491 C 125.134083 26.030432 123.501368 24.387384 121.486309 24.387384 C 119.471249 24.387384 117.828201 26.030432 117.828201 28.045491 C 117.828201 30.060551 119.471249 31.693265 121.486309 31.693265 Z M 206.470141 51.275508 C 209.125885 51.275508 211.285616 49.115777 211.285616 46.460033 C 211.285616 43.804288 209.125885 41.654891 206.470141 41.654891 C 203.814396 41.654891 201.664999 43.804288 201.664999 46.460033 C 201.664999 49.115777 203.814396 51.275508 206.470141 51.275508 Z M 115.97848 53.238899 C 118.489554 53.238899 120.52528 51.203172 120.52528 48.692098 C 120.52528 46.181025 118.489554 44.145298 115.97848 44.145298 C 113.467406 44.145298 111.421346 46.181025 111.421346 48.692098 C 111.421346 51.203172 113.467406 53.238899 115.97848 53.238899 Z M 132.801641 36.198731 C 135.302381 36.198731 137.338108 34.173338 137.338108 31.662264 C 137.338108 29.161524 135.302381 27.125798 132.801641 27.125798 C 130.290567 27.125798 128.265175 29.161524 128.265175 31.662264 C 128.265175 34.163004 130.290567 36.198731 132.801641 36.198731 Z M 172.121131 41.727227 C 173.815847 41.747894 175.396894 40.859201 176.244252 39.391825 C 177.101944 37.934782 177.101944 36.116062 176.244252 34.659019 C 175.396894 33.191643 173.815847 32.30295 172.121131 32.323617 C 169.548055 32.364952 167.491661 34.452346 167.491661 37.025422 C 167.491661 39.598498 169.548055 41.685892 172.121131 41.727227 Z M 220.771895 71.271096 C 222.383942 71.302096 223.882319 70.454738 224.698677 69.070031 C 225.515034 67.67499 225.515034 65.959606 224.698677 64.564565 C 223.882319 63.169524 222.383942 62.332499 220.771895 62.3635 C 218.34349 62.415168 216.4111 64.399227 216.4111 66.817298 C 216.4111 69.235369 218.34349 71.219427 220.771895 71.271096 Z M 120.452945 17.401845 C 121.85832 17.401845 122.99502 16.265145 122.99502 14.870104 C 122.99502 13.464729 121.85832 12.328029 120.452945 12.328029 C 119.057904 12.328029 117.921204 13.464729 117.921204 14.870104 C 117.921204 16.265145 119.057904 17.401845 120.452945 17.401845 Z M 120.452945 17.401845 " transform="matrix(0.378013,0,0,0.378013,1.615649,0)"/>
<path style="fill-rule:nonzero;fill:rgb(68.627451%,85.490196%,82.352941%);fill-opacity:1;stroke-width:0.25;stroke-linecap:butt;stroke-linejoin:miter;stroke:rgb(100%,100%,100%);stroke-opacity:1;stroke-miterlimit:4;" d="M 161.022804 44.372638 C 163.378874 44.372638 165.290597 42.460915 165.290597 40.104846 C 165.290597 37.748777 163.378874 35.837054 161.022804 35.837054 C 158.687402 35.878388 156.817014 37.769444 156.817014 40.104846 C 156.817014 42.429914 158.687402 44.331303 161.022804 44.372638 Z M 155.318637 36.178064 C 157.220026 36.178064 158.759738 34.638352 158.759738 32.736963 C 158.759738 30.835573 157.220026 29.285528 155.318637 29.285528 C 153.417247 29.285528 151.867202 30.835573 151.867202 32.736963 C 151.867202 34.638352 153.417247 36.178064 155.318637 36.178064 Z M 138.009794 28.675843 C 140.448533 28.675843 142.432591 26.702118 142.432591 24.26338 C 142.432591 21.824642 140.448533 19.840583 138.009794 19.840583 C 135.571056 19.840583 133.597331 21.824642 133.597331 24.26338 C 133.597331 26.702118 135.571056 28.675843 138.009794 28.675843 Z M 89.286695 46.697706 C 92.014775 46.697706 94.236507 44.475974 94.236507 41.747894 C 94.236507 39.00948 92.014775 36.787748 89.286695 36.787748 C 86.548281 36.787748 84.326549 39.00948 84.326549 41.747894 C 84.326549 44.475974 86.548281 46.697706 89.286695 46.697706 Z M 58.73013 39.402159 C 59.701492 39.422826 60.610852 38.916478 61.106867 38.069119 C 61.602881 37.232095 61.602881 36.188397 61.106867 35.341039 C 60.610852 34.504015 59.701492 33.987333 58.73013 34.008 C 57.262754 34.039001 56.084719 35.237703 56.084719 36.705079 C 56.084719 38.172456 57.262754 39.371158 58.73013 39.402159 Z M 71.554174 37.593772 C 73.47623 37.593772 75.046943 36.033393 75.046943 34.101003 C 75.046943 32.168613 73.47623 30.5979 71.554174 30.5979 C 69.621784 30.5979 68.051071 32.168613 68.051071 34.101003 C 68.051071 36.033393 69.621784 37.593772 71.554174 37.593772 Z M 189.016627 58.777728 C 190.566673 58.798395 192.023716 57.982038 192.798739 56.638665 C 193.584095 55.295292 193.584095 53.631577 192.798739 52.288204 C 192.023716 50.944831 190.566673 50.128474 189.016627 50.159475 C 186.639891 50.159475 184.707501 52.081531 184.707501 54.468602 C 184.707501 56.845338 186.639891 58.777728 189.016627 58.777728 Z M 141.740237 36.064394 C 143.062943 36.064394 144.127308 34.989695 144.127308 33.66699 C 144.127308 32.344284 143.062943 31.269586 141.740237 31.269586 C 140.417532 31.269586 139.342834 32.344284 139.342834 33.66699 C 139.342834 34.989695 140.417532 36.064394 141.740237 36.064394 Z M 90.91941 36.539741 C 93.430484 36.539741 95.46621 34.514348 95.46621 32.003274 C 95.46621 29.4922 93.430484 27.466808 90.91941 27.466808 C 88.41867 27.466808 86.382943 29.4922 86.382943 32.003274 C 86.382943 34.514348 88.41867 36.539741 90.91941 36.539741 Z M 24.329452 92.176044 C 26.509849 92.176044 28.276901 90.408992 28.276901 88.228594 C 28.276901 86.048197 26.509849 84.281145 24.329452 84.281145 C 22.149054 84.281145 20.382003 86.048197 20.382003 88.228594 C 20.382003 90.408992 22.149054 92.176044 24.329452 92.176044 Z M 34.838761 93.540084 C 37.370502 93.540084 39.426896 91.48369 39.426896 88.951949 C 39.426896 86.420208 37.370502 84.374147 34.838761 84.374147 C 32.30702 84.374147 30.250626 86.420208 30.250626 88.951949 C 30.250626 91.48369 32.30702 93.540084 34.838761 93.540084 Z M 71.88485 53.114895 C 74.323589 53.114895 76.297313 51.14117 76.297313 48.712766 C 76.297313 46.274027 74.323589 44.300303 71.88485 44.300303 C 69.446112 44.300303 67.472387 46.274027 67.472387 48.712766 C 67.472387 51.14117 69.446112 53.125229 71.88485 53.125229 Z M 25.621157 82.359088 C 27.512212 82.359088 29.04159 80.82971 29.04159 78.938654 C 29.04159 77.047599 27.512212 75.51822 25.621157 75.51822 C 23.730101 75.51822 22.200723 77.047599 22.200723 78.938654 C 22.200723 80.82971 23.730101 82.359088 25.621157 82.359088 Z M 163.513211 32.716295 C 165.579938 32.716295 167.253988 31.042246 167.253988 28.975519 C 167.253988 26.898458 165.579938 25.224408 163.513211 25.224408 C 161.446484 25.224408 159.772434 26.898458 159.772434 28.975519 C 159.772434 31.042246 161.446484 32.716295 163.513211 32.716295 Z M 59.329481 48.423424 C 61.210203 48.423424 62.739581 46.904379 62.739581 45.023657 C 62.739581 43.142935 61.210203 41.613557 59.329481 41.613557 C 57.448759 41.613557 55.929714 43.142935 55.929714 45.023657 C 55.929714 46.904379 57.448759 48.423424 59.329481 48.423424 Z M 59.329481 48.423424 " transform="matrix(0.378013,0,0,0.378013,1.615649,0)"/>
<path style="fill-rule:nonzero;fill:rgb(68.627451%,85.490196%,82.352941%);fill-opacity:1;stroke-width:0.25;stroke-linecap:butt;stroke-linejoin:miter;stroke:rgb(100%,100%,100%);stroke-opacity:1;stroke-miterlimit:4;" d="M 42.826662 89.447963 C 45.46174 89.447963 47.600803 87.3089 47.600803 84.673823 C 47.600803 82.028412 45.46174 79.889349 42.826662 79.889349 C 40.191585 79.889349 38.052522 82.028412 38.052522 84.673823 C 38.052522 87.3089 40.191585 89.447963 42.826662 89.447963 Z M 198.079227 56.938341 C 199.773944 56.969342 201.344657 56.080649 202.192015 54.623606 C 203.049707 53.166563 203.049707 51.358177 202.192015 49.901134 C 201.344657 48.444091 199.773944 47.555398 198.079227 47.586399 C 195.495818 47.586399 193.408423 49.684128 193.408423 52.267537 C 193.408423 54.850946 195.495818 56.948674 198.079227 56.948674 Z M 214.954057 56.390658 C 216.121758 56.411325 217.20679 55.801641 217.785473 54.788944 C 218.374491 53.786581 218.374491 52.546545 217.785473 51.544182 C 217.20679 50.541819 216.121758 49.932135 214.954057 49.952802 C 213.197338 49.983803 211.791964 51.409845 211.791964 53.166563 C 211.791964 54.923282 213.197338 56.359657 214.954057 56.390658 Z M 103.691785 48.423424 C 105.66551 48.423424 107.277557 46.811376 107.277557 44.837652 C 107.277557 42.853593 105.66551 41.25188 103.691785 41.25188 C 101.707727 41.25188 100.106013 42.853593 100.106013 44.837652 C 100.106013 46.811376 101.707727 48.423424 103.691785 48.423424 Z M 182.382432 44.393305 C 183.467464 44.413973 184.480161 43.845623 185.027844 42.905262 C 185.575526 41.964901 185.575526 40.807533 185.027844 39.867172 C 184.480161 38.937145 183.467464 38.368795 182.382432 38.389462 C 180.749718 38.410129 179.437346 39.753502 179.437346 41.386217 C 179.437346 43.029265 180.749718 44.362304 182.382432 44.393305 Z M 181.090728 36.870417 C 183.798141 36.870417 185.988872 34.679686 185.988872 31.972273 C 185.988872 29.26486 183.798141 27.074129 181.090728 27.074129 C 178.383315 27.074129 176.192584 29.26486 176.192584 31.972273 C 176.192584 34.679686 178.383315 36.870417 181.090728 36.870417 Z M 120.721619 45.209663 C 123.139691 45.209663 125.092748 43.256605 125.092748 40.838534 C 125.092748 38.420463 123.139691 36.457072 120.721619 36.457072 C 118.303548 36.457072 116.340157 38.420463 116.340157 40.838534 C 116.340157 43.256605 118.303548 45.209663 120.721619 45.209663 Z M 213.238673 66.372952 C 215.3054 66.372952 216.989783 64.698902 216.989783 62.621841 C 216.989783 60.54478 215.3054 58.860397 213.238673 58.860397 C 211.161612 58.860397 209.477229 60.54478 209.477229 62.621841 C 209.477229 64.698902 211.161612 66.372952 213.238673 66.372952 Z M 33.939734 100.287949 C 35.159104 100.287949 36.140799 99.306253 36.140799 98.086884 C 36.140799 96.867515 35.159104 95.885819 33.939734 95.885819 C 32.720365 95.885819 31.73867 96.867515 31.73867 98.086884 C 31.73867 99.306253 32.720365 100.287949 33.939734 100.287949 Z M 80.234429 39.205819 C 82.507829 39.205819 84.347217 37.366432 84.347217 35.093032 C 84.347217 32.819632 82.507829 30.980244 80.234429 30.980244 C 77.961029 30.980244 76.121641 32.819632 76.121641 35.093032 C 76.121641 37.366432 77.961029 39.205819 80.234429 39.205819 Z M 110.253645 32.499289 C 111.31801 32.519956 112.310039 31.96194 112.847388 31.042246 C 113.374403 30.132886 113.374403 28.996186 112.847388 28.076492 C 112.310039 27.156798 111.31801 26.609116 110.253645 26.629783 C 108.651931 26.65045 107.37056 27.962822 107.37056 29.564536 C 107.37056 31.16625 108.651931 32.468288 110.253645 32.499289 Z M 195.506152 41.541221 C 197.552212 41.541221 199.205594 39.887839 199.205594 37.852113 C 199.205594 35.806053 197.552212 34.152671 195.506152 34.152671 C 193.470425 34.152671 191.80671 35.806053 191.80671 37.852113 C 191.80671 39.887839 193.470425 41.541221 195.506152 41.541221 Z M 102.038403 26.567781 C 104.580478 26.567781 106.636872 24.511387 106.636872 21.969313 C 106.636872 19.437572 104.580478 17.370844 102.038403 17.370844 C 99.506662 17.370844 97.450269 19.437572 97.450269 21.969313 C 97.450269 24.511387 99.506662 26.567781 102.038403 26.567781 Z M 102.038403 26.567781 " transform="matrix(0.378013,0,0,0.378013,1.615649,0)"/>
<path style="fill-rule:nonzero;fill:rgb(68.627451%,85.490196%,82.352941%);fill-opacity:1;stroke-width:0.25;stroke-linecap:butt;stroke-linejoin:miter;stroke:rgb(100%,100%,100%);stroke-opacity:1;stroke-miterlimit:4;" d="M 174.146524 30.959577 C 176.502593 30.959577 178.403982 29.058188 178.403982 26.712452 C 178.403982 24.356383 176.502593 22.454994 174.146524 22.454994 C 171.800788 22.454994 169.899399 24.356383 169.899399 26.702118 C 169.899399 29.058188 171.800788 30.959577 174.146524 30.959577 Z M 81.329795 26.42311 C 83.210517 26.42311 84.729561 24.904066 84.729561 23.023344 C 84.729561 21.142622 83.210517 19.613243 81.329795 19.613243 C 79.449073 19.613243 77.919694 21.142622 77.919694 23.023344 C 77.919694 24.904066 79.449073 26.42311 81.329795 26.42311 Z M 89.503702 23.798366 C 91.580763 23.798366 93.254812 22.113984 93.254812 20.036922 C 93.254812 17.959861 91.580763 16.285812 89.503702 16.285812 C 87.42664 16.285812 85.742258 17.959861 85.742258 20.036922 C 85.742258 22.113984 87.42664 23.798366 89.503702 23.798366 Z M 147.403071 19.086228 C 149.831475 19.086228 151.8052 17.112503 151.8052 14.684098 C 151.8052 12.24536 149.831475 10.271635 147.403071 10.271635 C 144.964332 10.271635 142.990608 12.24536 142.990608 14.684098 C 142.990608 17.112503 144.964332 19.086228 147.403071 19.086228 Z M 129.691216 20.016255 C 131.582272 20.016255 133.121984 18.486877 133.121984 16.585488 C 133.121984 14.694432 131.582272 13.165054 129.691216 13.165054 C 127.800161 13.165054 126.260449 14.694432 126.260449 16.585488 C 126.260449 18.486877 127.800161 20.016255 129.691216 20.016255 Z M 156.196996 24.201378 C 157.14769 24.222046 158.036383 23.726031 158.511731 22.909674 C 158.997412 22.093316 158.997412 21.08062 158.511731 20.253929 C 158.036383 19.437572 157.14769 18.941557 156.196996 18.962224 C 154.770954 18.993225 153.62392 20.150592 153.62392 21.586968 C 153.62392 23.01301 154.770954 24.180711 156.196996 24.201378 Z M 156.196996 24.201378 " transform="matrix(0.378013,0,0,0.378013,1.615649,0)"/>
<path style="fill-rule:nonzero;fill:rgb(68.627451%,85.490196%,82.352941%);fill-opacity:1;stroke-width:0.25;stroke-linecap:butt;stroke-linejoin:miter;stroke:rgb(100%,100%,100%);stroke-opacity:1;stroke-miterlimit:4;" d="M 147.444405 28.231497 C 150.131151 28.231497 152.301215 26.051099 152.301215 23.364354 C 152.301215 20.677608 150.131151 18.507544 147.444405 18.507544 C 144.757659 18.507544 142.577262 20.677608 142.577262 23.364354 C 142.577262 26.051099 144.757659 28.231497 147.444405 28.231497 Z M 166.747639 23.509025 C 168.59736 23.509025 170.106071 22.010647 170.106071 20.150592 C 170.106071 18.300871 168.59736 16.79216 166.747639 16.79216 C 164.887585 16.79216 163.378874 18.300871 163.378874 20.150592 C 163.378874 22.010647 164.887585 23.509025 166.747639 23.509025 Z M 15.928205 105.496102 C 18.253273 105.496102 20.144329 103.61538 20.144329 101.279978 C 20.144329 98.944576 18.253273 97.05352 15.928205 97.05352 C 13.592803 97.05352 11.701747 98.944576 11.701747 101.279978 C 11.701747 103.61538 13.592803 105.496102 15.928205 105.496102 Z M 111.721021 23.219683 C 112.981725 23.219683 113.994422 22.206986 113.994422 20.946283 C 113.994422 19.695912 112.981725 18.672882 111.721021 18.672882 C 110.470651 18.672882 109.447621 19.695912 109.447621 20.946283 C 109.447621 22.206986 110.470651 23.219683 111.721021 23.219683 Z M 189.812318 33.625655 C 191.321029 33.625655 192.550731 32.406286 192.550731 30.887241 C 192.550731 29.368197 191.321029 28.138494 189.812318 28.138494 C 188.293273 28.138494 187.06357 29.368197 187.06357 30.887241 C 187.06357 32.395953 188.293273 33.625655 189.812318 33.625655 Z M 138.547144 19.902585 C 140.737875 19.902585 142.504927 18.135533 142.504927 15.944802 C 142.504927 13.754071 140.737875 11.976685 138.547144 11.976685 C 136.346079 11.976685 134.579027 13.754071 134.579027 15.944802 C 134.579027 18.135533 136.346079 19.902585 138.547144 19.902585 Z M 47.952146 80.14769 C 50.473554 80.14769 52.519614 78.10163 52.519614 75.580222 C 52.519614 73.048481 50.473554 71.002421 47.952146 71.002421 C 45.420405 71.002421 43.374345 73.048481 43.374345 75.580222 C 43.374345 78.10163 45.420405 80.14769 47.952146 80.14769 Z M 47.952146 80.14769 " transform="matrix(0.378013,0,0,0.378013,1.615649,0)"/>
<path style=" stroke:none;fill-rule:nonzero;fill:rgb(100%,100%,100%);fill-opacity:1;" d="M 67.519531 22.136719 L 65.738281 22.09375 L 63.953125 22.136719 L 62.171875 22.257812 L 60.386719 22.464844 L 58.605469 22.75 L 56.828125 23.109375 L 55.050781 23.539062 L 53.277344 24.035156 L 51.507812 24.59375 L 49.742188 25.203125 L 47.976562 25.863281 L 46.214844 26.5625 L 44.457031 27.292969 L 42.699219 28.050781 L 40.945312 28.828125 L 39.195312 29.617188 L 35.699219 31.203125 L 33.957031 31.992188 L 32.214844 32.765625 L 30.472656 33.523438 L 28.734375 34.257812 L 26.996094 34.96875 L 25.261719 35.648438 L 23.527344 36.296875 L 21.792969 36.914062 L 20.058594 37.496094 L 18.324219 38.042969 L 16.59375 38.550781 L 14.863281 39.023438 L 13.132812 39.460938 L 11.398438 39.863281 L 9.667969 40.230469 L 7.933594 40.566406 L 6.203125 40.871094 L 4.300781 41.171875 L 4.21875 41.75 C 3.652344 45.664062 3.585938 49.632812 4.03125 53.5625 L 4.152344 54.636719 L 6.660156 53.523438 L 8.410156 52.734375 L 11.90625 51.144531 L 13.652344 50.359375 L 15.394531 49.585938 L 17.132812 48.835938 L 18.867188 48.113281 L 20.601562 47.425781 L 22.335938 46.78125 L 24.0625 46.183594 L 25.789062 45.640625 L 27.511719 45.15625 L 29.230469 44.738281 L 30.945312 44.390625 L 32.660156 44.117188 L 34.375 43.921875 L 36.085938 43.800781 L 37.792969 43.761719 L 39.503906 43.804688 L 41.210938 43.925781 L 42.921875 44.125 L 44.636719 44.398438 L 46.351562 44.746094 L 48.066406 45.164062 L 49.785156 45.648438 L 51.507812 46.1875 L 53.234375 46.785156 L 54.960938 47.429688 L 56.695312 48.117188 L 58.425781 48.839844 L 60.164062 49.589844 L 61.902344 50.359375 L 63.644531 51.144531 L 67.136719 52.730469 L 68.886719 53.519531 L 70.636719 54.296875 L 72.386719 55.058594 L 74.140625 55.800781 L 75.898438 56.519531 L 77.652344 57.207031 L 79.410156 57.867188 L 81.171875 58.492188 L 82.929688 59.082031 L 84.691406 59.636719 L 86.453125 60.15625 L 88.210938 60.636719 L 89.972656 61.082031 L 91.734375 61.492188 L 94.210938 62.019531 L 94.417969 61.3125 C 95.585938 57.300781 96.203125 53.148438 96.257812 48.972656 L 96.261719 48.390625 L 96.257812 47.800781 L 96.246094 47.171875 C 96.097656 41.507812 94.90625 35.917969 92.738281 30.679688 L 92.578125 30.300781 L 92.292969 29.640625 L 90.492188 28.828125 L 88.742188 28.054688 L 86.988281 27.296875 L 85.234375 26.566406 L 83.472656 25.867188 L 81.710938 25.210938 L 79.949219 24.601562 L 78.179688 24.042969 L 76.410156 23.546875 L 74.636719 23.113281 L 72.859375 22.753906 L 71.082031 22.46875 L 69.300781 22.261719 Z M 65.71875 22.886719 L 67.464844 22.925781 L 69.210938 23.050781 L 70.957031 23.253906 L 72.703125 23.53125 L 74.449219 23.886719 L 76.195312 24.308594 L 77.941406 24.800781 L 79.6875 25.347656 L 81.4375 25.953125 L 83.183594 26.605469 L 84.929688 27.296875 L 86.675781 28.023438 L 88.421875 28.777344 L 90.167969 29.550781 L 91.6875 30.238281 C 94.019531 35.59375 95.296875 41.347656 95.453125 47.1875 L 95.464844 47.808594 L 95.46875 48.382812 L 95.464844 48.960938 C 95.410156 53.066406 94.804688 57.148438 93.65625 61.089844 L 91.914062 60.71875 L 90.167969 60.3125 L 88.421875 59.871094 L 86.675781 59.394531 L 84.929688 58.882812 L 83.183594 58.332031 L 81.4375 57.746094 L 79.6875 57.125 L 77.941406 56.46875 L 76.195312 55.785156 L 74.449219 55.070312 L 72.703125 54.332031 L 70.957031 53.574219 L 69.210938 52.796875 L 67.464844 52.011719 L 63.972656 50.421875 L 62.226562 49.636719 L 60.480469 48.863281 L 58.730469 48.109375 L 56.984375 47.382812 L 55.238281 46.6875 L 53.492188 46.035156 L 51.746094 45.433594 L 50 44.882812 L 48.253906 44.394531 L 46.507812 43.96875 L 44.761719 43.617188 L 43.015625 43.335938 L 41.269531 43.132812 L 39.523438 43.011719 L 37.773438 42.96875 L 36.027344 43.011719 L 34.28125 43.132812 L 32.535156 43.335938 L 30.789062 43.617188 L 29.042969 43.96875 L 27.296875 44.394531 L 25.550781 44.882812 L 23.804688 45.433594 L 22.058594 46.035156 L 20.3125 46.6875 L 18.566406 47.382812 L 16.816406 48.109375 L 15.070312 48.863281 L 13.324219 49.636719 L 11.578125 50.421875 L 8.085938 52.011719 L 6.339844 52.796875 L 4.816406 53.472656 C 4.382812 49.609375 4.445312 45.710938 5.003906 41.863281 L 6.339844 41.652344 L 8.085938 41.347656 L 9.832031 41.007812 L 11.578125 40.636719 L 13.324219 40.230469 L 15.070312 39.789062 L 16.816406 39.3125 L 18.5625 38.796875 L 20.3125 38.246094 L 22.058594 37.660156 L 23.804688 37.039062 L 25.550781 36.386719 L 27.296875 35.699219 L 29.042969 34.988281 L 30.789062 34.25 L 32.535156 33.488281 L 34.28125 32.714844 L 36.027344 31.925781 L 39.519531 30.339844 L 41.269531 29.550781 L 43.015625 28.777344 L 44.761719 28.023438 L 46.507812 27.296875 L 48.253906 26.605469 L 50 25.953125 L 51.746094 25.347656 L 53.492188 24.800781 L 55.238281 24.308594 L 56.984375 23.886719 L 58.730469 23.53125 L 60.480469 23.25 L 62.226562 23.050781 L 63.972656 22.925781 Z M 65.71875 22.886719 "/>
<path style="fill-rule:nonzero;fill:rgb(49.019608%,69.019608%,73.72549%);fill-opacity:1;stroke-width:1;stroke-linecap:butt;stroke-linejoin:miter;stroke:rgb(100%,100%,100%);stroke-opacity:1;stroke-miterlimit:4;" d="M 169.579056 60.048766 L 174.218859 60.152102 L 178.858662 60.482778 L 183.508799 61.020127 L 188.148602 61.753816 L 192.788405 62.694177 L 197.428208 63.820543 L 202.057678 65.122581 L 206.697481 66.589958 L 211.32695 68.181338 L 215.966753 69.917389 L 220.585889 71.756776 L 225.215358 73.678833 L 229.844828 75.673225 L 234.463964 77.719285 L 238.65942 79.610341 C 244.99394 94.087766 248.414374 109.650224 248.755384 125.440022 L 248.765718 126.463052 L 248.776051 128.002764 L 248.765718 129.532142 C 248.63138 140.589134 246.967665 151.584124 243.836573 162.196769 L 238.762757 161.122071 L 234.133287 160.037039 L 229.503818 158.869338 L 224.874348 157.608634 L 220.244879 156.244594 L 215.61541 154.787551 L 210.98594 153.227172 L 206.366804 151.584124 L 201.737335 149.848073 L 197.107865 148.039686 L 192.478396 146.14863 L 187.85926 144.195573 L 183.229791 142.180514 L 178.610655 140.12412 L 173.991519 138.047059 L 164.753247 133.841269 L 160.134112 131.764208 L 155.514976 129.718147 L 150.906174 127.723755 L 146.297371 125.812033 L 141.678236 123.982979 L 137.069433 122.257261 L 132.460631 120.665881 L 127.851829 119.208838 L 123.253361 117.927467 L 118.644558 116.801101 L 114.04609 115.871074 L 109.447621 115.137385 L 104.849153 114.600036 L 100.250684 114.279693 L 95.652216 114.176357 L 91.064081 114.279693 L 86.465612 114.600036 L 81.867144 115.137385 L 77.268675 115.871074 L 72.659873 116.801101 L 68.061404 117.927467 L 63.462936 119.208838 L 58.854134 120.665881 L 54.245332 122.257261 L 49.636529 123.972645 L 45.027727 125.801699 L 40.418925 127.723755 L 35.799789 129.718147 L 31.180653 131.764208 L 26.561518 133.841269 L 17.323246 138.047059 L 12.70411 140.12412 L 8.053973 142.190847 C 6.79327 131.588536 6.958608 120.872554 8.518987 110.311577 L 12.414768 109.691559 L 17.02357 108.885535 L 21.632373 107.996842 L 26.241175 107.015147 L 30.849977 105.940448 L 35.469113 104.772747 L 40.077915 103.512044 L 44.686717 102.158337 L 49.295519 100.701294 L 53.904322 99.161582 L 58.523457 97.518534 L 63.132259 95.792817 L 67.751395 93.98443 L 72.360197 92.093374 L 76.979333 90.140317 L 81.598469 88.135591 L 86.207271 86.089531 L 90.826407 84.002137 L 100.075012 79.80668 L 104.694148 77.719285 L 109.323618 75.673225 L 113.942753 73.678833 L 118.572223 71.746443 L 123.201692 69.917389 L 127.831162 68.181338 L 132.460631 66.579624 L 137.090101 65.122581 L 141.729904 63.820543 L 146.369707 62.694177 L 151.00951 61.764149 L 155.649313 61.020127 L 160.289116 60.482778 L 164.928919 60.152102 Z M 169.579056 60.048766 " transform="matrix(0.378013,0,0,0.378013,1.615649,0)"/>
<path style=" stroke:none;fill-rule:nonzero;fill:rgb(36.078431%,49.019608%,63.529412%);fill-opacity:1;" d="M 37.773438 43.84375 L 39.523438 43.882812 L 41.269531 44.007812 L 43.015625 44.210938 L 44.761719 44.488281 L 46.507812 44.84375 L 48.253906 45.265625 L 50 45.757812 L 51.746094 46.304688 L 53.492188 46.910156 L 55.238281 47.5625 L 56.984375 48.253906 L 58.730469 48.980469 L 60.480469 49.734375 L 62.226562 50.507812 L 63.972656 51.296875 L 67.464844 52.882812 L 69.210938 53.671875 L 70.957031 54.445312 L 72.703125 55.207031 L 74.449219 55.945312 L 76.195312 56.65625 L 77.941406 57.34375 L 79.6875 57.996094 L 81.4375 58.617188 L 83.183594 59.203125 L 84.929688 59.753906 L 86.675781 60.269531 L 88.421875 60.746094 L 90.167969 61.1875 L 91.914062 61.59375 L 93.410156 61.910156 C 89.394531 74.792969 79.867188 85.226562 67.398438 90.390625 C 44.199219 100 17.605469 88.984375 7.992188 65.785156 C 6.46875 62.109375 5.4375 58.246094 4.917969 54.300781 L 6.339844 53.671875 L 8.085938 52.882812 L 11.578125 51.296875 L 13.324219 50.507812 L 15.070312 49.734375 L 16.816406 48.980469 L 18.5625 48.253906 L 20.3125 47.5625 L 22.058594 46.910156 L 23.804688 46.304688 L 25.550781 45.757812 L 27.296875 45.265625 L 29.042969 44.84375 L 30.789062 44.488281 L 32.535156 44.210938 L 34.28125 44.007812 L 36.027344 43.882812 Z M 37.773438 43.84375 "/>
<path style=" stroke:none;fill-rule:nonzero;fill:rgb(26.666667%,28.235294%,46.27451%);fill-opacity:1;" d="M 41.269531 55.617188 L 41.269531 61.472656 L 51.746094 61.472656 L 51.746094 69.5625 L 62.226562 69.5625 L 62.226562 75.09375 L 72.703125 75.09375 L 72.703125 77.429688 L 83.183594 77.429688 L 83.183594 79.46875 C 70.238281 93.285156 50.089844 97.636719 32.601562 90.390625 C 22.835938 86.347656 14.785156 79.023438 9.832031 69.6875 L 9.832031 64.230469 L 20.3125 64.230469 L 20.3125 56.933594 L 30.789062 56.933594 L 30.789062 55.617188 Z M 41.269531 55.617188 "/>
<path style=" stroke:none;fill-rule:nonzero;fill:rgb(100%,100%,100%);fill-opacity:1;" d="M 41.625 55.257812 L 41.625 61.117188 L 52.105469 61.117188 L 52.105469 69.203125 L 62.582031 69.203125 L 62.582031 74.734375 L 73.0625 74.734375 L 73.0625 77.070312 L 83.539062 77.070312 L 83.539062 79.082031 C 83.304688 79.339844 83.066406 79.59375 82.824219 79.847656 L 82.824219 77.785156 L 73.0625 77.785156 L 73.0625 87.570312 C 72.824219 87.710938 72.585938 87.847656 72.34375 87.984375 L 72.34375 75.449219 L 62.582031 75.449219 L 62.582031 92.078125 C 62.34375 92.144531 62.105469 92.210938 61.867188 92.277344 L 61.867188 69.917969 L 52.105469 69.917969 L 52.105469 93.804688 C 51.867188 93.816406 51.625 93.824219 51.386719 93.832031 L 51.386719 61.832031 L 41.625 61.832031 L 41.625 93.074219 C 41.386719 93.03125 41.148438 92.984375 40.910156 92.933594 L 40.910156 55.972656 L 31.148438 55.972656 L 31.148438 89.757812 C 30.90625 89.648438 30.667969 89.539062 30.429688 89.425781 L 30.429688 57.289062 L 20.667969 57.289062 L 20.667969 83.125 C 20.425781 82.921875 20.1875 82.71875 19.953125 82.507812 L 19.953125 64.589844 L 10.191406 64.589844 L 10.1875 70.347656 C 9.945312 69.902344 9.703125 69.453125 9.472656 69 L 9.472656 63.875 L 19.953125 63.875 L 19.953125 56.574219 L 30.429688 56.574219 L 30.429688 55.257812 Z M 41.625 55.257812 "/>
<path style=" stroke:none;fill-rule:nonzero;fill:rgb(26.666667%,28.235294%,46.27451%);fill-opacity:1;" d="M 50 0 C 76.480469 0 98.042969 21.289062 98.378906 47.769531 L 98.382812 48.382812 L 98.378906 49 C 98.042969 75.480469 76.480469 96.769531 50 96.769531 C 23.277344 96.769531 1.617188 75.105469 1.617188 48.386719 C 1.617188 21.664062 23.277344 0 50 0 Z M 50 1.589844 C 24.15625 1.589844 3.203125 22.539062 3.203125 48.382812 C 3.207031 74.230469 24.15625 95.179688 50 95.179688 C 75.613281 95.179688 96.464844 74.589844 96.792969 48.980469 L 96.796875 48.382812 L 96.792969 47.789062 C 96.464844 22.179688 75.613281 1.589844 50 1.589844 Z M 50 1.589844 "/>
</g>
</svg>
