<?xml version="1.0" encoding="UTF-8"?>
<svg xmlns="http://www.w3.org/2000/svg" xmlns:xlink="http://www.w3.org/1999/xlink" width="100px" height="px" viewBox="0 0 100 100" version="1.1">
<g id="surface1">
<path style=" stroke:none;fill-rule:nonzero;fill:rgb(0%,73.72549%,94.901961%);fill-opacity:1;" d="M 44.0625 99.9375 C 34.703125 99.261719 25.453125 96.90625 19.777344 93.75 C 16.546875 91.953125 14.082031 89.746094 13.117188 87.777344 L 12.542969 86.609375 L 12.542969 13.15625 L 12.996094 12.234375 C 15.03125 8.105469 21.519531 4.382812 30.574219 2.152344 C 33.648438 1.394531 38.085938 0.640625 41.707031 0.257812 C 45.40625 -0.128906 55.203125 -0.0703125 58.890625 0.363281 C 68.695312 1.515625 77.035156 4.09375 82.175781 7.558594 C 84.15625 8.898438 86.191406 11.035156 86.878906 12.507812 L 87.46875 13.769531 L 87.417969 50.386719 L 87.371094 87 L 86.894531 87.964844 C 86.632812 88.496094 85.847656 89.535156 85.144531 90.28125 C 80.871094 94.8125 71.703125 98.164062 59.675781 99.589844 C 57.226562 99.882812 46.578125 100.117188 44.0625 99.9375 Z M 61.3125 68.46875 C 61.277344 68.375 59.878906 67.125 58.203125 65.695312 C 56.53125 64.265625 55.089844 63.03125 55 62.949219 C 54.910156 62.867188 55.222656 62.574219 55.6875 62.300781 C 56.152344 62.027344 57.046875 61.269531 57.671875 60.613281 C 59.5 58.695312 60.363281 56.324219 60.363281 53.21875 C 60.363281 50.164062 59.433594 47.699219 57.570312 45.816406 C 55.691406 43.921875 53.53125 43.105469 50.390625 43.105469 C 45.546875 43.105469 41.828125 45.933594 40.640625 50.511719 C 40.234375 52.089844 40.234375 55.273438 40.644531 56.671875 C 41.714844 60.316406 44.632812 62.960938 48.261719 63.585938 C 49.488281 63.792969 49.65625 63.886719 50.492188 64.800781 C 50.988281 65.34375 52.011719 66.429688 52.761719 67.214844 L 54.125 68.636719 L 57.753906 68.636719 C 59.746094 68.636719 61.351562 68.5625 61.3125 68.46875 Z M 48.875 58.3125 C 48.003906 57.855469 47.671875 57.503906 47.175781 56.492188 C 46.789062 55.710938 46.726562 55.265625 46.71875 53.417969 C 46.714844 51.539062 46.777344 51.132812 47.175781 50.320312 C 47.835938 48.984375 48.738281 48.351562 50.140625 48.25 C 52.089844 48.109375 53.214844 49.066406 53.804688 51.367188 C 54.527344 54.183594 53.730469 57.183594 51.996094 58.175781 C 51.085938 58.699219 49.730469 58.757812 48.875 58.3125 Z M 32.800781 63.542969 C 36.601562 62.824219 38.761719 60.613281 38.761719 57.4375 C 38.761719 54.621094 37.367188 52.980469 33.515625 51.261719 C 31.3125 50.277344 30.511719 49.660156 30.511719 48.9375 C 30.511719 48.339844 31.269531 47.683594 32.152344 47.519531 C 33.015625 47.355469 35.300781 47.753906 36.648438 48.300781 L 37.78125 48.757812 L 37.78125 43.75 L 36.550781 43.476562 C 35.792969 43.308594 34.199219 43.207031 32.378906 43.210938 C 29.800781 43.210938 29.292969 43.277344 28.324219 43.660156 C 25.488281 44.785156 24.144531 46.703125 24.164062 49.585938 C 24.183594 52.285156 25.609375 53.972656 29.152344 55.484375 C 31.246094 56.378906 32.082031 57.0625 32.082031 57.863281 C 32.082031 59.574219 29.234375 59.785156 26.21875 58.296875 C 25.394531 57.890625 24.652344 57.523438 24.570312 57.484375 C 24.492188 57.445312 24.425781 58.613281 24.425781 60.082031 C 24.425781 62.742188 24.425781 62.757812 24.910156 62.941406 C 26.722656 63.628906 30.730469 63.9375 32.800781 63.542969 Z M 76.273438 61.078125 L 76.273438 58.816406 L 69.398438 58.816406 L 69.398438 43.300781 L 63.3125 43.300781 L 63.3125 63.335938 L 76.273438 63.335938 Z M 55.0625 21.496094 C 61.109375 21.078125 65.644531 20.285156 69.636719 18.953125 C 73.609375 17.621094 75.960938 16.015625 76.484375 14.261719 C 76.6875 13.585938 76.671875 13.328125 76.390625 12.589844 C 75.121094 9.269531 68.035156 6.714844 57.210938 5.683594 C 52.582031 5.238281 44.160156 5.382812 39.742188 5.980469 C 33.007812 6.890625 27.539062 8.582031 25.109375 10.503906 C 20.191406 14.398438 25.390625 18.683594 37.484375 20.699219 C 42.730469 21.574219 49.523438 21.882812 55.0625 21.496094 Z M 55.0625 21.496094 "/>
</g>
</svg>
