<?xml version="1.0" encoding="UTF-8"?>
<svg xmlns="http://www.w3.org/2000/svg" xmlns:xlink="http://www.w3.org/1999/xlink" width="100px" height="px" viewBox="0 0 100 100" version="1.1">
<defs>
<linearGradient id="linear0" gradientUnits="userSpaceOnUse" x1="26.5" y1="7" x2="4" y2="28" gradientTransform="matrix(3.125,0,0,3.125,0,0)">
<stop offset="0" style="stop-color:rgb(35.686275%,81.568627%,40%);stop-opacity:1;"/>
<stop offset="1" style="stop-color:rgb(15.294118%,70.588235%,24.313725%);stop-opacity:1;"/>
</linearGradient>
</defs>
<g id="surface1">
<path style=" stroke:none;fill-rule:evenodd;fill:rgb(74.901961%,78.431373%,81.568627%);fill-opacity:1;" d="M 50 96.875 C 74.164062 96.875 93.75 77.289062 93.75 53.125 C 93.75 28.960938 74.164062 9.375 50 9.375 C 25.835938 9.375 6.25 28.960938 6.25 53.125 C 6.25 60.972656 8.316406 68.335938 11.933594 74.703125 L 6.25 96.875 L 29.109375 91.574219 C 35.316406 94.953125 42.433594 96.875 50 96.875 Z M 50 90.144531 C 70.445312 90.144531 87.019531 73.570312 87.019531 53.125 C 87.019531 32.679688 70.445312 16.105469 50 16.105469 C 29.554688 16.105469 12.980469 32.679688 12.980469 53.125 C 12.980469 61.019531 15.453125 68.335938 19.660156 74.34375 L 16.347656 86.777344 L 29 83.617188 C 34.96875 87.734375 42.203125 90.144531 50 90.144531 Z M 50 90.144531 "/>
<path style=" stroke:none;fill-rule:nonzero;fill:url(#linear0);" d="M 87.5 50 C 87.5 70.710938 70.710938 87.5 50 87.5 C 42.101562 87.5 34.773438 85.058594 28.726562 80.886719 L 15.910156 84.089844 L 19.269531 71.496094 C 15.003906 65.410156 12.5 57.996094 12.5 50 C 12.5 29.289062 29.289062 12.5 50 12.5 C 70.710938 12.5 87.5 29.289062 87.5 50 Z M 87.5 50 "/>
<path style=" stroke:none;fill-rule:evenodd;fill:rgb(100%,100%,100%);fill-opacity:1;" d="M 50 93.75 C 74.164062 93.75 93.75 74.164062 93.75 50 C 93.75 25.835938 74.164062 6.25 50 6.25 C 25.835938 6.25 6.25 25.835938 6.25 50 C 6.25 57.847656 8.316406 65.210938 11.933594 71.578125 L 6.25 93.75 L 29.109375 88.449219 C 35.316406 91.828125 42.433594 93.75 50 93.75 Z M 50 87.019531 C 70.445312 87.019531 87.019531 70.445312 87.019531 50 C 87.019531 29.554688 70.445312 12.980469 50 12.980469 C 29.554688 12.980469 12.980469 29.554688 12.980469 50 C 12.980469 57.894531 15.453125 65.210938 19.660156 71.21875 L 16.347656 83.652344 L 29 80.492188 C 34.96875 84.609375 42.203125 87.019531 50 87.019531 Z M 50 87.019531 "/>
<path style=" stroke:none;fill-rule:nonzero;fill:rgb(100%,100%,100%);fill-opacity:1;" d="M 39.0625 29.6875 C 38.023438 27.597656 36.425781 27.78125 34.816406 27.78125 C 31.933594 27.78125 27.441406 31.234375 27.441406 37.65625 C 27.441406 42.917969 29.761719 48.679688 37.578125 57.300781 C 45.117188 65.617188 55.03125 69.921875 63.257812 69.773438 C 71.484375 69.628906 73.175781 62.546875 73.175781 60.15625 C 73.175781 59.097656 72.519531 58.570312 72.066406 58.425781 C 69.261719 57.078125 64.089844 54.570312 62.914062 54.101562 C 61.738281 53.628906 61.125 54.265625 60.742188 54.613281 C 59.675781 55.628906 57.558594 58.628906 56.835938 59.300781 C 56.113281 59.976562 55.03125 59.632812 54.582031 59.378906 C 52.929688 58.714844 48.445312 56.722656 44.875 53.257812 C 40.453125 48.972656 40.195312 47.5 39.363281 46.1875 C 38.695312 45.140625 39.183594 44.496094 39.429688 44.214844 C 40.382812 43.113281 41.695312 41.417969 42.285156 40.574219 C 42.875 39.734375 42.40625 38.453125 42.125 37.65625 C 40.917969 34.226562 39.894531 31.359375 39.0625 29.6875 Z M 39.0625 29.6875 "/>
</g>
</svg>
